<?xml version="1.0" encoding="UTF-8"?>
<svg enable-background="new 0 0 1497.679 1678.416" version="1.1" viewBox="0 0 1497.679 1678.416" xmlns="http://www.w3.org/2000/svg">
 <path d="m943.11 1490.1c5.863-1.747 7.453-2.2 9.832-2.987l-0.827-2.628c24.137-7.833 35.555-11.96 60.336-22.199l1.075 2.537 10.891-4.761-3.644-8.197c-27.024 11.831-51.335 21.034-80.226 29.638l2.563 8.597zm9.832-2.987c25.504-8.276 36.137-12.189 60.584-22.29l4.243 10.018c-25.013 10.337-36.393 14.483-61.561 22.649l-3.266-10.377zm-640.43-625.83l-49.692 2.452c0.076 17.614 5.476 59.678 12.414 87.828l-43.754 10.327c3.015 12.356 2.036 8.542 3.945 15.578l-12.905 3.464c5.985 22.173 10.535 34.648 13.927 44.289l12.56-4.56c0.709 2.023-0.285-0.663 5.161 13.667l16.008-6.319c7.25 17.698 10.322 24.853 19.146 42.602l8.97-4.527-1.353-2.728 3.423-1.702 1.343 2.707 8.969-4.527-1.315-2.653 3.429-1.704c7.419 14.953 15.185 28.617 23.108 41.301l-61.308 38.337c4.992 8.005 10.671 16.516 11.377 17.517l-13.651 9.262c11.775 16.981 21.454 30.331 36.627 48.266l12.606-10.641c5.608 6.635 2.868 3.493 12.48 14.326l6.09-5.503c-9.559-10.777-6.92-7.75-10.43-11.908l4.368-3.726c3.455 4.093 0.802 1.05 10.322 11.785l5.27-4.763c-9.365-10.56-6.739-7.546-10.188-11.632l4.368-3.727c3.396 4.025 0.755 0.993 10.08 11.509l5.272-4.765c-9.196-10.371-6.546-7.327-9.946-11.357l4.37-3.728c3.344 3.965 0.692 0.919 9.838 11.233l5.27-4.763c-8.996-10.146-6.372-7.129-9.704-11.081l4.366-3.724c3.286 3.897 0.632 0.848 9.595 10.958l5.274-4.766c-8.821-9.949-6.183-6.916-9.462-10.805l4.366-3.724c3.223 3.825 0.597 0.804 9.353 10.682l5.274-4.766c-8.655-9.764-5.99-6.697-9.219-10.529l4.366-3.724c3.172 3.766 0.534 0.729 9.111 10.406l5.27-4.763c-8.456-9.541-5.816-6.5-8.977-10.254l4.37-3.728c3.122 3.707 0.469 0.652 8.869 10.13l5.27-4.763c-8.237-9.295-5.626-6.283-8.735-9.978l4.366-3.724c3.069 3.646 0.418 0.59 8.627 9.855l2.665-2.408c1.166 1.323 0.241 0.307 4.411 4.774-26.381 24.534-43.12 40.1-65.272 60.702 5.823 6.256 3.768 4.099 9.609 10.072-33.27 32.566-48.592 47.564-81.805 80.073 5.473 5.601 3.496 3.623 9.216 9.234l-10.222 10.41c6.238 6.089 7.21 7.056 7.879 7.655l-5.932 6.242c18.708 17.421 32.064 29.355 56.62 48.179l5.217-6.851c5.749 4.404 3.471 2.701 10.662 7.95l8.608-11.78c7.981 5.818 5.584 4.115 11.068 7.919l48.842-69.833c15.733 10.91 25.38 16.938 37.724 24.231l9.542-16.222c3.787 2.242 4.664 2.781 6.165 3.6l1.962-3.437c8.953 4.998 16.196 9.041 25.931 13.867l4.504-8.981c-9.498-4.707-16.582-8.66-25.453-13.611l1.918-3.36c1 0.558 14.645 8.253 22.19 11.986l4.561-8.949c-7.174-3.548-20.77-11.202-21.77-11.76l1.919-3.362c11.365 6.357 7.386 4.189 18.637 10.132l4.618-8.919c-11.042-5.831-7.126-3.699-18.276-9.935l1.918-3.36c11.7 6.54 7.122 4.047 15.257 8.337l4.677-8.892c-7.711-4.065-3.45-1.741-14.953-8.17l1.919-3.362c11.416 6.374 7.822 4.417 12.036 6.63l4.733-8.859c-4.091-2.148-0.476-0.178-11.789-6.494l1.917-3.357 8.971 5.013 4.792-8.831-8.782-4.908 1.918-3.36 6.103 3.408 4.847-8.797-5.971-3.334 1.919-3.362 3.391 1.888 4.904-8.766-3.315-1.845 1.367-2.395c10.879 6.083 6.019 3.417 14.236 7.757l-23.042 44.096c2.811 1.489 3.397 1.814 4.467 2.333l22.582-44.333 2.703 1.334-22.274 44.488 4.511 2.245-76.173 156.18c2.567 1.307 4.183 2.037 10.88 5.165l-6.708 14.419 5.584 2.604-3.078 6.777c1 0.484 25.922 11.849 57.878 23.116l2.444-7.031c7.71 2.71 19.141 6.402 24.916 8.128l-2.168 7.12c26.043 7.745 37.183 10.374 60.386 15.417l1.506-7.289c1.964 0.414 0.44 0.118 10.591 2.065l2.968-15.623c8.523 1.63 6.1 1.19 10.365 1.9l20.402-117.64c3.83 0.632 16.106 2.749 26.341 3.906l-27.598 224.32 10.53 1.207-2.437 22.348 5.422 0.609-1.069 10.471c30.68 2.901 42.638 3.215 59.167 3.827l0.296-10.521c1.985 0.096 5.013 0.13 19.021 0.3l-0.046 10.525c17.417 0.33 41.8-0.815 59.189-1.917l-0.724-10.5c6.793-0.443 4.625-0.279 9.505-0.703l-1.816-22.407 9.23-0.817-28.434-305.27c4.683-0.404 3.316-0.269 5.948-0.578l10.402 97.964c14.225-1.624 9.06-0.976 20.72-2.606l2.353 16.328c23.939-3.339 42.873-7.736 59.403-11.768l-4.065-15.988c2.038-0.495 0.584-0.116 7.612-2.021l28.929 107.38c10.153-2.751 7.754-2.077 12.63-3.524l-1.202-4.134c36.926-10.974 57.442-19.093 88.01-32.476l1.774 3.923 13.762-6.425-66.071-137.63c1-0.469 8.701-4.207 18.031-9.134l21.148 39.956c6.839-3.606 3.612-1.848 14.069-7.695l8.133 14.359c16.353-9.131 37.123-22.771 39.538-24.515l-9.259-13.66c12.099-8.394 9.366-6.468 11.959-8.347l-5.948-8.305c10.598-7.728 6.939-5 17.121-12.784l67.581 87.067c4.066-3.121 2.237-1.682 8.973-7.103l7.482 9.305c5.416-4.365 6.878-5.513 9.026-7.365l18.252 21.916c3.176-2.684 9.962-8.41 10.882-9.223l23.736 27.358c14.36-12.736 10.809-9.492 21.299-19.259l-24.776-26.42c5.131-4.783 2.976-2.72 10.302-9.864l-19.925-20.407c6.993-6.834 4.728-4.571 9.497-9.451l-8.509-8.377c5.939-6.082 7.521-7.68 8.372-8.622l-6.789-6.446c-2.641 2.761-11.024 11.423-15.495 15.741-7.012-7.121-1.865-1.895-5.032-5.11 3.701-3.563 14.193-14.332 15.326-15.57l-37.691-35.791c9.918-4.13 16.009-7.227 24.532-12.08l11.485 10.019c9.734-10.972 24.481-29.592 30.719-38.145 1.839 1.139 3.677 2.276 5.507 3.409-11.68 16.01-25.594 32.245-29.806 37.224l18.805 16.281c9.119-10.779 20.086-23.763 31.989-40.071 1.989 1.296 3.973 2.588 5.956 3.879-10.566 14.473-20.28 26.299-30.99 38.961l18.379 15.794c12.432-14.698 21.57-25.926 33.017-41.61l6.533 4.163c-11.664 15.898-19.746 25.997-32.022 40.519l17.956 15.315c13.419-15.879 21.983-26.664 34.135-43.302 2.399 1.476 4.78 2.941 7.152 4.4-10.408 14.253-19.299 25.837-33.169 42.267l17.526 14.835c14.244-16.879 22.969-28.191 35.395-45.218 2.837 1.688 5.642 3.357 8.413 5.005-60.33 90.897-12.523 79.333 33.668 19.574 34.742 19.679 47.63 26.248 64.045 34.76l3.704-5.346c-60.329-54.447-56.957-41.01-46.544-62.617 31.781-68.551 14.817-82.425-38.692-9.745-2.516-2.011-5.067-4.051-7.645-6.112 13.572-20.64 20.872-32.971 30.366-49.928l-20.072-11.153c-8.909 15.919-16.32 28.445-28.367 46.775-2.197-1.707-4.405-3.422-6.631-5.151 12.424-18.93 19.342-30.777 28.982-48.022l-20.672-11.386c-8.296 14.84-15.898 27.995-27.103 45.033l-6.196-4.649c11.658-17.73 19.613-31.738 27.772-46.346l-21.27-11.611c-7.184 12.86-15.481 27.51-25.984 43.48-1.907-1.4-3.817-2.803-5.728-4.207 10.287-15.645 23.789-39.128 26.647-44.812l-21.877-11.837c-2.778 5.56-16.319 28.951-24.728 41.728-1.345-1.036-2.689-2.071-4.037-3.109 68.456-95.667 52.335-222.42-39.533-272.73 0.241-1.704 0.029 6e-3 0.912-7.779-44.936-5.09-15.628-2.606-48.969-9.609 0.06-0.416 1.063-11.387 1.2-13.682l49.622 3.599 0.315-5.046-49.657-3.089c0.824-12.523 0.798-20.758 0.907-27.701h-71.754c-8.681 478.96-721.4 487.3-730.24 0h-71.754c0.181 13.544 0.067 8.835 0.56 22.035zm1053.4 444.88c3.744 2.831-5.328 12.232-5.139 3.862 0.067-2.963 1.799-6.387 5.139-3.862m8.413-11.334c3.792 2.76-5.063 12.378-5.048 3.976 5e-3 -2.973 1.663-6.44 5.048-3.976m33.248-49.463c-3.93-2.432 3.956-12.685 4.744-4.376 0.252 2.96-1.189 6.576-4.744 4.376m-15.617 24.292c3.963 2.651-4.661 12.503-4.908 4.162-0.066-2.94 1.435-6.485 4.908-4.162m-707.93 56.726c-11.475-1.601-7.39-0.977-19.083-2.902l9.227-53.728c10.372 1.712 6.769 1.161 16.961 2.58l-7.105 54.05zm-36.424 27.73c-6.003-1.142-14.36-2.922-23.609-5.186l3.369-13.807c8.01 1.961 16.275 3.773 22.965 5.044l-2.725 13.949zm-29.97 20.885c9.659 2.362 18.201 4.189 24.826 5.453l-2.724 13.946c-6.565-1.254-15.393-3.131-25.47-5.594l3.368-13.805zm-117.08 62.701c-13.131-5.41-22.723-9.958-27.33-12.109l6.052-12.853c2.301 1.074 13.382 6.346 26.728 11.842l-5.45 13.12zm15.743-37.906c-12.25-5.04-21.879-9.606-25.589-11.338l6.053-12.856c2.72 1.27 12.678 6.009 24.986 11.071l-5.45 13.123zm15.744-37.905c-11.306-4.645-20.942-9.21-23.848-10.567l6.053-12.856c2.422 1.131 11.841 5.617 23.245 10.3l-5.45 13.123zm7.871-18.953c-10.823-4.443-20.184-8.877-22.977-10.182l6.053-12.856c2.344 1.094 11.458 5.436 22.375 9.915l-5.451 13.123zm15.743-37.905c-9.854-4.038-18.745-8.247-21.236-9.411l6.053-12.856c1.004 0.469 10.453 4.975 20.634 9.144l-5.451 13.123zm15.743-37.906c-3.947-1.614-9.878-4.148-19.495-8.64l6.054-12.859c9.044 4.224 14.591 6.615 18.892 8.373l-5.451 13.126zm-30.571 185.78c-16.925-5.961-10.908-3.757-28.077-10.262l5.18-13.229c16.784 6.36 10.909 4.207 27.457 10.036l-4.56 13.455zm6.586-19.436c-16.756-5.902-10.949-3.784-27.181-9.935l5.18-13.229c16.204 6.14 10.562 4.073 26.561 9.709l-4.56 13.455zm13.173-38.874c-15.651-5.513-10.227-3.535-25.389-9.281l5.181-13.231c15.138 5.737 9.849 3.799 24.769 9.055l-4.561 13.457zm6.587-19.437c-15.099-5.318-9.866-3.41-24.493-8.954l5.181-13.231c14.593 5.531 9.484 3.659 23.873 8.727l-4.561 13.458zm6.586-19.436c-14.547-5.124-9.505-3.286-23.597-8.627l5.181-13.232c14.042 5.323 9.136 3.525 22.977 8.4l-4.561 13.459zm13.173-38.874c-13.145-4.631-8.472-2.918-21.805-7.973l5.181-13.231c12.947 4.908 8.424 3.25 21.185 7.746l-4.561 13.458zm13.173-38.873c-12.337-4.347-8.062-2.787-20.013-7.319l5.182-13.234c11.831 4.486 7.711 2.976 19.393 7.092l-4.562 13.461zm-12.783 167.5c-13.483-3.648-22.722-6.424-27.788-8.068l4.283-13.546c5.184 1.683 14.318 4.411 27.154 7.884l-3.649 13.73zm10.542-39.668c-1.4-0.379-14.835-3.918-25.956-7.535l4.284-13.548c4.194 1.365 12.321 3.832 25.322 7.351l-3.65 13.732zm5.271-19.834c-1.165-0.315-14.243-3.755-25.04-7.269l4.284-13.548c6.911 2.251 17.378 5.182 24.406 7.084l-3.65 13.733zm10.542-39.668c-11.967-3.241-19.489-5.522-23.208-6.736l4.285-13.551c3.556 1.162 10.851 3.377 22.573 6.552l-3.65 13.735zm10.542-39.667c-5.86-1.587-15.643-4.327-21.376-6.203l4.285-13.552c3.385 1.109 10.065 3.127 20.741 6.019l-3.65 13.736zm5.271-19.834c-1-0.271-11.984-3.16-20.46-5.937l4.285-13.551c3.104 1.018 9.506 2.956 19.825 5.752l-3.65 13.736zm-16.721 108.13c10.071 2.46 18.85 4.338 25.756 5.657l-2.724 13.946c-6.846-1.309-15.912-3.237-26.4-5.798l3.368-13.805zm11.234 80.029c-7.732-1.484-17.472-3.553-29.191-6.411l3.367-13.802c11.239 2.741 20.696 4.764 28.547 6.269l-2.723 13.944zm3.934-20.142c-7.436-1.426-16.911-3.438-28.261-6.206l3.367-13.802c10.83 2.643 20.063 4.618 27.617 6.065l-2.723 13.943zm27.536-140.99c-5.439-1.031-13.327-2.713-21.749-4.777l3.369-13.808c7.206 1.767 15.009 3.482 21.105 4.636l-2.725 13.949zm23.586 50.352c-12.647-1.767-8.254-1.102-20.567-3.127l4.509-26.256c11.965 1.969 7.795 1.332 19.53 2.97l-3.472 26.413zm14.717 215.4c-2.008-0.102-18.091-1.498-25.839-2.373l2.169-19.972c7.422 0.839 23.229 2.213 25.143 2.31l-1.473 20.035zm2.127-28.934c-1.861-0.093-17.496-1.451-24.834-2.281l2.169-19.974c6.956 0.788 22.324 2.129 24.137 2.218l-1.472 20.037zm4.254-57.873c-1.473-0.071-16.182-1.343-22.822-2.098l2.169-19.974c6.104 0.696 20.552 1.96 22.126 2.035l-1.473 20.037zm2.127-28.939c-1.388-0.065-15.616-1.299-21.816-2.007l2.169-19.971c5.74 0.657 19.7 1.878 21.12 1.943l-1.473 20.035zm4.254-57.87c-1.046-0.046-13.705-1.122-19.805-1.824l2.17-19.977c5.034 0.581 17.952 1.71 19.108 1.76l-1.473 20.041zm2.127-28.935c-1.002-0.043-13.588-1.13-18.799-1.732l2.17-19.976c4.431 0.513 16.984 1.622 18.103 1.669l-1.474 20.039zm4.254-57.874c-0.794-0.031-12.361-1.033-16.788-1.549l2.17-19.976c4.218 0.494 15.375 1.458 16.091 1.485l-1.473 20.04zm19.508 204.23c-2.005-0.028-16.325-0.531-23.885-1.004l1.167-20.052c6.985 0.438 21.073 0.947 23.192 0.976l-0.474 20.08zm0.684-29.006c-1.849-0.025-15.8-0.518-22.884-0.963l1.167-20.057c6.474 0.409 20.171 0.908 22.191 0.935l-0.474 20.085zm0.685-29.008c-1.994-0.025-15.568-0.523-21.883-0.922l1.167-20.055c6.793 0.432 20.057 0.88 21.19 0.894l-0.474 20.083zm0.684-29.005c-1-0.012-14.03-0.446-20.882-0.881l1.167-20.057c5.417 0.346 18.343 0.831 20.189 0.853l-0.474 20.085zm0.684-29.005c-1.629-0.019-14.388-0.489-19.881-0.84l1.167-20.06c4.936 0.318 17.45 0.792 19.188 0.812l-0.474 20.088zm0.684-29.006c-1.487-0.017-13.834-0.474-18.88-0.8l1.167-20.06c4.464 0.29 16.571 0.754 18.187 0.771l-0.474 20.089zm0.684-29.005c-1.012-0.01-12.531-0.411-17.879-0.759l1.167-20.06c5.068 0.331 16.186 0.72 17.186 0.73l-0.474 20.089zm0.684-29.008c-1.244-0.012-12.707-0.444-16.878-0.718l1.167-20.06c3.607 0.238 14.835 0.677 16.185 0.689l-0.474 20.089zm31.134 261.02c-1.001 0.022-15.581 0.303-25.883 0.185l0.17-20.089c10.009 0.116 24.188-0.156 25.194-0.179l0.519 20.083zm-0.751-29.002c-1.005 0.022-14.977 0.293-24.888 0.176l0.17-20.089c8.932 0.106 23.189-0.148 24.198-0.17l0.52 20.083zm-0.75-29.007c-1 0.022-14.648 0.278-23.892 0.167l0.17-20.085c7.706 0.093 22.202-0.113 23.202-0.161l0.52 20.079zm-1.502-58.01c-19.633 0.265-15.125 0.235-21.9 0.15l0.17-20.088c6.479 0.083 2.014 0.113 21.21-0.144l0.52 20.082zm-1.501-58.007c-18.158 0.239-13.548 0.217-19.908 0.133l0.17-20.094c6.067 0.082 1.491 0.104 19.218-0.127l0.52 20.088zm-1.501-58.008c-16.684 0.212-11.949 0.199-17.916 0.115l0.17-20.093c5.801 0.083 0.815 0.096 17.226-0.109l0.52 20.087zm43.289 230.14c-21.566 1.38-17.16 1.127-25.877 1.467l-0.825-20.073c8.48-0.329 3.959-0.07 25.183-1.426l1.519 20.032zm-4.388-57.862c-20.212 1.289-15.713 1.035-23.872 1.35l-0.825-20.069c7.895-0.303 3.251-0.041 23.178-1.309l1.519 20.028zm-2.193-28.93c-19.747 1.256-15.134 0.995-22.87 1.291l-0.825-20.074c7.615-0.291 2.93-0.029 22.175-1.25l1.52 20.033zm-4.389-57.863c-18.176 1.15-13.495 0.895-20.865 1.174l-0.825-20.074c6.996-0.263 2.236-1e-3 20.17-1.133l1.52 20.033zm-4.387-57.861c-16.88 1.061-12.055 0.803-18.86 1.057l-0.825-20.077c6.594-0.244 1.722 0.015 18.166-1.016l1.519 20.036zm-2.194-28.93c-16.175 1.013-11.304 0.756-17.857 0.998l-0.825-20.077c6.358-0.233 1.443 0.024 17.163-0.958l1.519 20.037zm-2.194-28.933c-15.446 0.963-10.547 0.709-16.855 0.94l-0.825-20.077c6.091-0.22 1.169 0.032 16.161-0.899l1.519 20.036zm11.403-30.622c-2.617 0.307-1.208 0.168-5.838 0.567l-0.347-3.727c4.546-0.391 3.201-0.257 5.79-0.562l0.395 3.722zm30.786 18.597c-8.201 1.368-5.393 0.94-10.806 1.688l-1.889-13.112c4.893-0.675 2.363-0.282 10.503-1.641l2.192 13.065zm27.132 47.526l-11.908 2.286-2.36-13.03 11.607-2.228 2.661 12.972zm-4.007-50.141c6.419-1.385 4.157-0.861 10.681-2.466l3.131 12.872c-6.572 1.615-4.21 1.073-10.981 2.536l-2.831-12.942zm-23.432 36.122c-2.648 0.432 0.115 0.017-11.584 1.658l-1.737-13.127c11.651-1.635 8.593-1.175 11.281-1.615l2.04 13.084zm55.572 25.947c-11.768 2.866-11.581 2.832-12.183 2.958l-2.965-12.912c0.469-0.099 11.417-2.772 11.884-2.886l3.264 12.84zm119.48-171.78c9.379-6.842 5.473-3.924 11.75-8.745l1.57 2.045c-6.132 4.708-2.324 1.869-11.82 8.796l-1.5-2.096zm6.517 9.099c9.567-6.979 5.653-4.055 12.05-8.967l2.278 2.966c-6.205 4.764-2.488 1.993-12.151 9.041l-2.177-3.04zm53.235 20.679c2.315-1.824 3.469-2.844 9.726-8.131l7.789 9.072c-6.189 5.23-7.529 6.409-9.959 8.326l-7.556-9.267zm5.054-13.573c-6.202 5.241-7.304 6.216-9.587 8.015l-6.655-8.16c2.231-1.757 3.298-2.703 9.382-7.844l6.86 7.989zm-29.462 24.275c-4.092-2.409-8.059-4.998-11.903-7.752l-9.73-13.585c9.738-7.104 5.853-4.201 12.381-9.212l18.268 23.787c-6.244 4.799-3.972 3.091-9.016 6.762m14.555-3.776c4.713 6.072 7.992 10.296 12.654 16.302-8.111-2.795-15.21-5.95-21.714-9.428 2.739-1.988 0.472-0.29 9.06-6.874zm74.428 86.856c11.543-9.296 9.816-7.899 12.072-9.807l6.801 8.165c-2.297 1.941-0.619 0.584-12.281 9.977l-6.592-8.335zm9.467-38.491c-4.357 3.868-2.087 1.919-11.349 9.75l-7.281-8.701c8.928-7.548 6.791-5.708 11.13-9.562l7.5 8.513zm-18.592-52.452l9.781-9.542 7.753 7.744-9.98 9.736-7.554-7.938zm-23.316-44.691c-2.087 2.135 0.207-0.159-8.87 8.721l-8.602-8.986c9.075-8.88 6.509-6.314 8.645-8.5l8.827 8.765zm-13.917-13.819c-2.087 2.137 0.37-0.322-8.516 8.373l-6.948-7.257c8.856-8.669 6.193-6.002 8.334-8.195l7.13 7.079zm24.342 44.963l9.442-9.212 8.152 8.144-9.651 9.415-7.943-8.347zm-117.26 16.096c-1.743 1.117-2.651 1.623-7.637 4.567l-5.812-9.897c4.721-2.787 5.713-3.34 7.445-4.452l6.004 9.782zm32.887 68.123c5.483-3.233 3.577-2.078 8.86-5.381l6.057 9.756c-5.503 3.439-3.58 2.27-9.051 5.497l-5.866-9.872zm-38.198-45.009c3.514-1.954 1.479-0.78 7.984-4.637l5.85 9.875c-6.62 3.923-4.572 2.742-8.178 4.749l-5.656-9.987zm35.779 42.28c-7.14 4.228-4.987 2.986-8.903 5.169l-5.66-9.991c3.775-2.104 1.656-0.879 8.709-5.057l5.854 9.879zm5.329-16.695c5.249-3.267 3.436-2.108 8.481-5.433l6.288 9.608c-5.164 3.402-3.299 2.21-8.668 5.553l-6.101-9.728zm-0.949-19.84c-4.99 3.29-3.24 2.167-8.199 5.252l-6.099-9.726c4.96-3.084 3.248-1.989 8.012-5.132l6.286 9.606zm-16.109-24.613c-4.592 3.031-2.938 1.974-7.718 4.944l-6.101-9.729c4.562-2.833 2.946-1.796 7.531-4.824l6.288 9.609zm-68.783-0.875c0.4-0.171 8.265-4.058 14.952-7.592l16.408 31c-7.088 3.744-15.764 8.031-16.16 8.202l-15.2-31.61zm45.614 157.87c13.906-6.085 11.124-4.848 13.976-6.169l12.31 26.98c-2.808 1.298-0.458 0.259-14.672 6.475l-11.614-27.286zm-75.747-6.998c12.055-3.585 8.824-2.593 13.819-4.217l9.015 28.255c-5.15 1.673-1.88 0.672-14.547 4.44l-8.287-28.478zm13.08-6.532c-4.926 1.603-1.708 0.615-13.759 4.199l-8.286-28.474c11.471-3.411 8.277-2.428 13.031-3.977l9.014 28.252zm-9.754-30.57c-4.682 1.526-1.499 0.547-12.971 3.959l-3.417-11.744c11.201-3.331 8.022-2.351 12.671-3.867l3.717 11.652zm-7.056-28.892c7.312-2.364 4.714-1.483 12.129-4.098l3.883 11.025c-7.586 2.673-4.935 1.776-12.413 4.194l-3.599-11.121zm11.323-6.388c-7.375 2.601-4.799 1.728-12.07 4.078l-9.132-28.218c6.997-2.259 4.573-1.442 11.348-3.834l9.854 27.974zm18.966 8.054c-10.231 3.892-7.174 2.767-12.283 4.559l-3.929-11.008c4.944-1.733 1.933-0.623 12.001-4.455l4.211 10.904zm-3.799-48.259c-11.869 4.832-8.806 3.631-11.048 4.476l-4.267-10.916c2.244-0.844-0.906 0.389 10.769-4.363l4.546 10.803zm-10.165 6.736c2.23-0.839-0.827 0.359 11.106-4.499l11.505 27.342c-12.487 5.089-9.576 3.943-11.811 4.785l-10.8-27.628zm-2.68-1.582c-9.414 3.583-6.429 2.487-11.173 4.147l-3.94-11.038c4.589-1.605 1.598-0.505 10.891-4.042l4.222 10.933zm-12.984 4.783c-6.897 2.436-4.487 1.619-11.289 3.815l-3.609-11.151c6.786-2.188 4.435-1.397 11.004-3.718l3.894 11.054zm-13.113 4.409c-4.232 1.385-1.13 0.426-11.396 3.478l-3.275-11.253c9.987-2.969 6.908-2.016 11.108-3.391l3.563 11.166zm-10.718 5.808c10.255-3.049 7.181-2.098 11.455-3.497l9.017 28.261c-4.468 1.458-1.298 0.482-12.184 3.719l-8.288-28.483zm8.968 30.813c10.892-3.239 7.739-2.267 12.242-3.737l3.553 11.135c-4.564 1.489-1.381 0.509-12.53 3.824l-3.265-11.222zm43.843 87.213c8.727-2.832 5.614-1.777 14.472-4.89l9.853 27.971c-9.083 3.189-5.825 2.091-15.193 5.134l-9.132-28.215zm13.665-7.181c-8.615 3.028-5.525 1.986-14.413 4.87l-9.132-28.218c8.235-2.669 5.332-1.686 13.691-4.626l9.854 27.974zm-10.66-30.266c-8.335 2.932-5.424 1.946-13.633 4.606l-9.131-28.215c7.961-2.577 5.194-1.645 12.911-4.363l9.853 27.972zm-10.663-30.265c-7.68 2.705-4.925 1.776-12.851 4.342l-3.766-11.637c7.57-2.449 4.875-1.536 12.553-4.242l4.064 11.537zm24.45 62.006c5.687-2.002 2.567-0.847 14.321-5.316l10.682 27.665c-12.136 4.614-9.064 3.478-15.034 5.581l-9.969-27.93zm13.446-7.583c-11.649 4.429-8.497 3.265-14.259 5.293l-9.97-27.933c5.44-1.913 2.363-0.776 13.546-5.028l10.683 27.668zm-23.117-59.869c-10.515 4-7.487 2.884-12.715 4.72l-4.112-11.519c5.107-1.793 2.005-0.648 12.421-4.61l4.406 11.409zm26.294 61.261c2.237-0.849-0.342 0.185 14.157-5.737l11.502 27.334c-14.814 6.054-12.535 5.139-14.862 6.023l-10.797-27.62zm13.214-7.976c-14.256 5.822-11.769 4.828-14.099 5.713l-10.798-27.623c2.265-0.859-0.494 0.241 13.394-5.427l11.503 27.337zm-12.445-29.577c-13.661 5.576-11.024 4.527-13.336 5.404l-10.797-27.62c2.264-0.857-0.616 0.285 12.631-5.118l11.502 27.334zm-12.445-29.577c-13.16 5.367-10.277 4.225-12.573 5.094l-4.453-11.392c2.274-0.86-0.674 0.306 12.283-4.977l4.743 11.275zm-6.97-16.563c-12.745 5.196-9.87 4.061-12.146 4.921l-4.255-10.886c2.267-0.857-0.772 0.343 11.868-4.808l4.533 10.773zm-15.203-41.108c11.549-5.067 8.177-3.544 10.966-4.842l12.313 26.988c-2.727 1.267 0.202-0.053-11.661 5.148l-11.618-27.294zm9.957-7.048c-2.762 1.285 0.584-0.227-10.909 4.816l-4.59-10.784c11.286-4.954 7.844-3.396 10.634-4.695l4.865 10.663zm-7.249-15.887c-2.718 1.266 0.168-0.047-10.499 4.636l-4.777-11.223c11.053-4.855 7.432-3.213 10.213-4.51l5.063 11.097zm-12.198 5.358c-11.61 4.724-8.388 3.463-10.633 4.307l-4.441-11.36c2.225-0.836-0.932 0.396 10.343-4.189l4.731 11.242zm-12.362 4.959c-9.127 3.475-6.155 2.383-10.753 3.991l-4.1-11.487c4.446-1.553 1.48-0.463 10.459-3.882l4.394 11.378zm-12.496 4.604c-6.625 2.342-4.318 1.56-10.864 3.671l-3.756-11.604c6.373-2.053 4.107-1.285 10.567-3.571l4.053 11.504zm-12.619 4.242c-4.097 1.342-1.03 0.394-10.967 3.347l-3.408-11.711c9.66-2.871 6.638-1.935 10.667-3.256l3.708 11.62zm39.42 176.5c13.191-3.924 9.934-2.926 15.397-4.699l3.395 10.641c-5.513 1.788-2.229 0.784-15.672 4.782l-3.12-10.724zm17.862-5.499c9.382-3.047 6.141-1.955 15.252-5.154l3.711 10.535c-9.285 3.259-5.953 2.135-15.524 5.245l-3.439-10.626zm17.698-6.015c5.916-2.084 2.84-0.945 15.093-5.603l4.023 10.419c-12.381 4.706-9.265 3.554-15.362 5.703l-3.754-10.519zm17.518-6.525c2.241-0.852-0.187 0.127 14.919-6.046l4.332 10.295c-15.136 6.187-12.908 5.287-15.185 6.154l-4.066-10.403zm17.306-7.059c14.413-6.304 11.846-5.167 14.729-6.501l4.636 10.161c-2.815 1.302-0.53 0.293-14.99 6.616l-4.375-10.276zm-12.919-67.098c-2.772 1.285-0.115 0.097-13.166 5.812l-11.614-27.287c12.751-5.586 9.641-4.192 12.471-5.505l12.309 26.98zm-13.323-29.192c-2.747 1.275 0.044 0.022-12.411 5.479l-4.79-11.254c12.488-5.473 9.307-4.045 12.125-5.353l5.076 11.128zm-7.459-16.348c-2.73 1.268 0.142-0.024-11.99 5.293l-4.578-10.755c12.163-5.332 8.898-3.863 11.716-5.172l4.852 10.634zm-12.27 161.29c-5.681 1.841-2.391 0.834-16.126 4.921l-3.562-12.24c13.509-4.019 10.212-3.01 15.813-4.825l3.875 12.144zm18.555-6.235c-9.767 3.426-6.356 2.271-15.974 5.397l-3.925-12.129c9.652-3.137 6.306-2.009 15.664-5.293l4.235 12.025zm18.368-6.771c-12.638 4.803-9.55 3.661-15.807 5.868l-4.285-12.006c6.105-2.153 2.935-0.978 15.5-5.754l4.592 11.892zm18.164-7.299c-15.481 6.33-13.264 5.433-15.625 6.332l-4.641-11.873c2.461-0.937 0.322-0.078 15.321-6.209l4.945 11.75zm17.92-7.866c-2.82 1.303-0.646 0.347-15.424 6.807l-4.993-11.73c14.764-6.456 12.216-5.331 15.125-6.675l5.292 11.598zm-33.899-146.76c-9.305 4.913-16.931 8.615-17.931 9.084l-14.738-30.701c1.002-0.469 8.2-3.971 16.738-8.482l15.931 30.099zm12.451-13.784l-8.628 4.819-5.521-10.065 8.433-4.71 5.716 9.956zm56.804 6.893c-6.338 4.4-4.046 2.845-8.762 5.945l-6.349-9.565c4.384-2.88 2.353-1.497 8.578-5.82l6.533 9.44zm-16.334-23.601c-5.997 4.167-3.821 2.69-8.302 5.632l-6.347-9.563c4.249-2.791 2.194-1.39 8.117-5.507l6.532 9.438zm-16.742-24.191c-5.731 3.986-3.571 2.518-7.829 5.312l-6.347-9.563c4.042-2.652 1.982-1.248 7.645-5.187l6.531 9.438zm43.133 46.678l-31.125-43.456 1.651-1.208c10.557 5.976 20.866 10.305 32.323 13.674l14.184 18.273c-10.367 7.924-6.731 5.205-17.033 12.717zm89.737 44.897c-2.384 2.014-0.928 0.837-12.655 10.281l-7.353-9.298c11.795-9.499 10.116-8.142 12.422-10.091l7.586 9.108zm-33.826-65.371c-4.233 3.759-1.96 1.808-10.992 9.444l-7.148-8.541 6.322-5.343c2.612 0.053 5.171-0.039 7.789-0.133l4.029 4.573zm102.51-316.47c-1.943 10.174-9.18 34.212-9.477 35.215l-3.66-1.134c0.296-1 7.483-24.881 9.402-34.937l3.735 0.856zm13.516 3.1c-1.614 8.402-7.332 28.063-9.747 36.22l-3.651-1.132c2.306-7.789 8.069-27.583 9.672-35.943l3.726 0.855zm-45.504-43.164c-4.499 27.223-8.024 40.974-14.209 61.962l-2.283-0.697c6.97-23.653 10.101-37.228 14.133-61.632l2.359 0.367zm-12.289-1.911c-4.392 26.585-7.846 39.99-13.814 60.241l-2.064-0.63c6.04-20.493 9.427-33.796 13.746-59.942l2.132 0.331zm53.243 103.66c-2.336 6.649-1.786 5.123-2.33 6.56l-7.376-2.716c0.513-1.352 0.047-0.063 2.294-6.459l7.412 2.615zm-49.515-10.819c0.497-1.307 0.018 0.013 2.098-5.916l7.409 2.615c-2.156 6.144-1.621 4.665-2.134 6.017l-7.373-2.716zm22.011 25.15c2.24-5.459 1.652-3.985 2.488-6.199l7.323 2.856c-0.851 2.254-0.256 0.759-2.528 6.298l-7.283-2.955zm-20.627 9.9l2.593-5.936 7.217 3.114-2.636 6.034-7.174-3.212zm-22.711-14.803c2.496-5.683 1.927-4.348 2.437-5.609l7.246 3.046c-0.5 1.237 4e-3 0.055-2.479 5.708l-7.204-3.145zm41.943-109.3c-3.668 22.189-6.7 36.966-14.596 63.65l-2.056-0.628c6.281-21.223 9.953-35.673 14.528-63.353l2.124 0.331zm28.757 141.66l12.232 5.377c7.664-17.489 12.067-29.634 16.873-43.259l-12.648-4.308c0.261-0.701 4.296-13.132 4.524-13.893l-16.439-5.094c4.741-15.986 7.213-24.396 11.733-45.19l-9.829-2.084-0.649 2.975-3.735-0.816 0.644-2.952-9.828-2.084-0.632 2.893-3.741-0.817c2.375-10.837 4.565-22.445 6.395-35.642 73.441 42.339 95.707 136.33 59.806 221.02l-17.814-9.552c-8.028 15.227-16.768 29.262-23.047 39.326-1.577-1.179-3.121-2.333-4.681-3.5 4.353-6.976 13.541-21.409 23.622-40.525l-23.09-12.269c-9.358 17.757-17.953 31.322-22.06 37.905-1.469-0.924-2.933-1.844-4.387-2.758 9.219-14.776 14.721-24.005 22.843-39.421l-23.701-12.48c-10.006 18.986-17.302 30.401-22.353 38.504-2.844-1.555 0.09 0.027-4-2.168 8.538-13.7 13.575-21.834 23.252-40.191l-24.315-12.687c-6.809 12.926-15.386 28.055-23.437 40.227-1.17-0.583-2.351-1.171-3.523-1.754 9.247-13.982 16.872-27.725 24.362-41.914l-24.93-12.89c-7.956 15.08-14.293 26.342-25.047 42.669-1.014-0.458-2.023-0.914-3.014-1.361 11.549-17.545 17.225-27.804 25.972-44.336l-23.063-11.814c6.04-12.213 4.088-8.133 5.526-11.241l85.502 40.732c5.372-11.504 3.742-7.904 6.677-14.625zm-111.71 57.316c0.772 0.774 1.552 1.556 2.334 2.342-11.16 15.3-19.316 25.173-30.78 38.078l20.872 18.762c10.475-11.799 20.873-24.192 30.273-37.134 0.927 0.89 1.919 1.788 2.88 2.681-8.591 11.831-19.333 24.782-29.01 35.665l20.464 18.259c14.911-16.782 22.45-26.884 29.012-35.437 0.209 0.181 0.131 0.114 3.441 2.983-5.226 6.805-13.967 18.478-27.745 33.992l20.054 17.759c11.135-12.543 18.216-21.468 28.398-34.738 1.367 1.04 2.743 2.087 4.124 3.138-8.434 10.993-16.797 21.702-27.245 33.463l19.639 17.262c11.515-12.971 20.561-24.654 29.122-35.816 1.639 1.05 3.262 2.09 4.922 3.153-2.878 3.752-16.026 21.143-28.193 34.844l3.128 2.729c-8.603 4.774-14.776 7.793-24.557 11.7l-109.44-103.92c0.362-0.39 6.818-7.322 7.074-7.625l19.206 17.395c13.302-15.008 20.193-23.363 32.022-39.536zm-328.01 165.96c-2.542 0.299-1.167 0.164-5.679 0.551l-0.239-2.567c4.479-0.384 3.11-0.249 5.646-0.548l0.272 2.564zm-433.84-162l-6.248-8.996 10.962-7.438 6.074 8.745-10.788 7.689zm-30.785 45.164c-5.093-6.632-3.685-4.77-7.285-9.712l10.684-7.823c3.847 5.282 2.05 2.891 7.102 9.469l-10.501 8.066zm-0.38 24.908l-7.856-9.738 10.399-8.203 7.665 9.501-10.208 8.44zm40.368-33.373l-7.1-8.802 10.401-8.204 6.909 8.565-10.21 8.441zm-14.237-86.994c-14.004-25.068-19.49-37.26-27.711-57.265l2.885-1.153c4.583 11.236 16.098 37.498 22.383 47.681l7.563-4.116c-6.111-9.881-17.327-35.424-21.95-46.759l2.673-1.068c8.372 20.375 13.419 31.432 26.81 55.404l-12.653 7.276zm-55.443-183.38c1.865 21.451 6.075 46.106 10.115 62.431l-2.323 0.548c-4.141-16.74-8.308-41.379-10.169-62.764l2.377-0.215zm5.202 107.06c0.399 1.244 0.094 0.366 2.063 5.929l-7.415 2.6c-1.986-5.612-1.569-4.385-2.098-6.03l7.45-2.499zm23.882-10.392c1.229 3.827 0.872 2.766 1.886 5.616l-7.428 2.561c-1.033-2.906-0.675-1.844-1.92-5.718l7.462-2.459zm-69.271 32.958c-2.132-6.034-1.832-5.173-2.285-6.577l7.452-2.499c0.55 1.709 0.117 0.44 2.25 6.475l-7.417 2.601zm12.005-29.981l1.896 6.404-7.506 2.332-1.927-6.506 7.537-2.23zm37.339-21.709c0.656 2.384 0.92 3.521 1.606 5.894l-7.557 2.161c-0.698-2.417-0.968-3.574-1.635-5.997l7.586-2.058zm-26.981 2.674l1.696 6.253c-2.902 0.8-4.71 1.299-7.574 2.089l-1.723-6.356c2.868-0.75 4.714-1.232 7.601-1.986zm-29.225 7.638l1.801 6.645-7.577 2.089-1.829-6.748 7.605-1.986zm59.208-89.349c1.802 20.769 5.903 44.839 9.838 60.729l-2.104 0.497c-4.025-16.255-8.091-40.343-9.887-61.031l2.153-0.195zm-16.241 66.882c-4.249-17.201-8.517-42.349-10.445-64.465l2.141-0.194c1.925 22.077 6.222 47.267 10.396 64.165l-2.092 0.494zm-2.972 112.39c-5.04-10.08-10.834-23.992-15.086-34.358l3.556-1.404c4.216 10.278 9.969 24.092 14.97 34.095l-3.44 1.667zm12.481-6.043c-4.885-9.763-10.559-23.395-14.668-33.406l3.564-1.407c4.086 9.954 9.735 23.521 14.553 33.143l-3.449 1.67zm39.44 17.336c-14.813-26.511-20.39-39.175-28.465-58.821l1.997-0.798c8.814 21.445 14.516 33.818 28.332 58.547l-1.864 1.072zm-14.607 58.556c-5.036-7.25-3.097-4.395-6.574-9.688l11.043-7.308c3.232 4.922 1.542 2.438 6.403 9.435l-10.872 7.561zm134.63 147.06c2.629 1.737 1.856 1.242 3.578 2.313l-2.532 3.976c-1.613-1.003-0.882-0.532-3.611-2.334l2.565-3.955zm21.759-22.495c-3.429-2.132-2.651-1.639-3.399-2.131l2.546-3.961c0.679 0.447 0.043 0.044 3.367 2.11l-2.514 3.982zm-8.113-19.037l-3.217-2.235 2.69-3.875 3.186 2.213-2.659 3.897zm-16.936 15.818l3.375 2.342-2.662 3.887-3.407-2.364 2.694-3.865zm-10.732 19.144l-2.678 3.876c-1.218-0.844-2.304-1.596-3.554-2.461l2.71-3.854c1.239 0.857 2.315 1.602 3.522 2.439zm-101.06 33.736c-2.335-1.974-0.64-0.477-12.321-10.841l10.361-11.44c11.675 10.358 9.734 8.644 12.012 10.568l-10.052 11.713zm-16.924-5.758c11.864 10.527 10.035 8.913 12.459 10.963l-10.051 11.713c-2.45-2.073-0.737-0.557-12.768-11.235l10.36-11.441zm31.441-11.159c-2.25-1.901-0.527-0.382-11.874-10.447l10.361-11.441c11.215 9.947 9.261 8.229 11.565 10.175l-10.052 11.713zm14.517-16.918c-2.227-1.88-0.432-0.302-11.427-10.053l10.361-11.441c10.852 9.621 8.842 7.86 11.118 9.781l-10.052 11.713zm14.517-16.918c-2.202-1.857-0.339-0.225-10.98-9.659l10.361-11.44c10.608 9.402 8.415 7.485 10.671 9.386l-10.052 11.713zm14.516-16.915c-2.188-1.844-0.248-0.15-10.533-9.265l10.359-11.439c10.243 9.076 7.984 7.107 10.224 8.993l-10.05 11.711zm14.515-16.916c-2.169-1.826-0.142-0.062-10.086-8.871l10.361-11.44c9.885 8.755 7.565 6.738 9.777 8.599l-10.052 11.712zm-75.054 52.491c-7.109-6.615-4.661-4.286-11.454-10.91l10.793-11.033c6.77 6.603 4.389 4.332 11.155 10.626l-10.494 11.317zm-16.249-6.008c6.878 6.705 4.392 4.341 11.587 11.037l-10.495 11.318c-7.215-6.716-4.666-4.285-11.885-11.321l10.793-11.034zm31.407-10.339c-6.842-6.364-4.486-4.124-11.023-10.499l10.793-11.033c6.363 6.209 4.063 4.021 10.724 10.215l-10.494 11.317zm15.157-16.346c-6.564-6.103-4.312-3.961-10.591-10.089l10.793-11.033c6.246 6.097 4.049 4.001 10.293 9.804l-10.495 11.318zm15.155-16.345c-6.298-5.853-4.138-3.798-10.16-9.678l10.791-11.031c5.981 5.841 3.876 3.833 9.861 9.393l-10.492 11.316zm15.156-16.344c-6.032-5.603-3.964-3.635-9.729-9.267l10.793-11.033c5.718 5.587 3.706 3.667 9.43 8.983l-10.494 11.317zm-92.464 75.31c7.296 7.111 4.731 4.664 12.018 11.447l-10.495 11.318c-7.628-7.103-5.009-4.612-12.317-11.732l10.794-11.033zm107.01-53.344c3.745 3.176 0.97 0.897 10.542 8.609l-9.591 12.09c-9.752-7.856-6.993-5.59-10.862-8.87l9.911-11.829zm14.805 3.236c-9.413-7.584-6.664-5.324-10.402-8.495l9.913-11.831c3.647 3.095 0.898 0.835 10.082 8.234l-9.593 12.092zm-29.118 13.847c3.886 3.293 1.109 1.015 11.004 8.986l-9.593 12.092c-10.1-8.136-7.317-5.852-11.324-9.247l9.913-11.831zm-14.317 17.088c4.044 3.425 1.266 1.146 11.466 9.362l-9.594 12.094c-10.471-8.434-7.675-6.143-11.786-9.623l9.914-11.833zm-14.317 17.087c4.131 3.497 1.355 1.223 11.928 9.739l-9.593 12.092c-10.714-8.63-7.984-6.392-12.248-10l9.913-11.831zm-14.317 17.088c4.283 3.623 1.483 1.331 12.39 10.116l-9.593 12.092c-11.175-9-8.351-6.691-12.71-10.377l9.913-11.831zm-14.317 17.087c4.397 3.718 1.612 1.44 12.852 10.493l-9.593 12.092c-11.402-9.182-8.666-6.945-13.172-10.753l9.913-11.832zm73.203-55.511c8.474 6.501 5.587 4.343 11.35 8.54l-9.119 12.452c-5.382-3.921-2.818-1.991-11.68-8.789l9.449-12.203zm15.4 3.009c-5.23-3.809-2.676-1.887-11.203-8.43l9.448-12.202c8.177 6.275 5.313 4.133 10.873 8.181l-9.118 12.451zm-29.048 14.617c8.742 6.705 5.879 4.566 11.826 8.899l-9.119 12.453c-5.859-4.27-3.147-2.238-12.157-9.148l9.45-12.204zm-23.635 57.322c-6.23-4.543-3.523-2.515-13.11-9.866l9.449-12.204c9.361 7.177 6.408 4.971 12.78 9.617l-9.119 12.453zm-17.309-4.443c9.629 7.383 6.698 5.193 13.257 9.976l-9.119 12.452c-6.449-4.705-3.662-2.617-13.587-10.225l9.449-12.203zm30.48-13.542c-5.764-4.203-3.159-2.241-12.633-9.507l9.449-12.204c9.058 6.947 6.133 4.761 12.303 9.258l-9.119 12.453zm52.682-71.937c-5.299-3.857-2.57-1.811-10.726-8.071l9.449-12.204c7.859 6.032 5.052 3.933 10.396 7.822l-9.119 12.453zm2.398 74.703c-8.697-5.434-14.134-8.737-27.008-17.668l3.96-5.697c12.621 8.756 18 12.03 26.674 17.449l-3.626 5.916zm14.233-13.84c-2.814-1.659-1.99-1.157-3.793-2.286 1.336-2.183 0.905-1.479 2.458-4.019 1.73 1.084 0.952 0.611 3.76 2.266-1.535 2.557-1.11 1.849-2.425 4.039zm13.724-32.183l-3.524-2.204c1.414-2.262 1.096-1.753 2.498-3.997l3.491 2.183c-1.383 2.255-1.07 1.744-2.465 4.018zm21.784-35.507l-3.233-2.024c0.948-1.516 1.547-2.476 2.495-3.992l3.2 2.003c-0.935 1.525-1.527 2.489-2.462 4.013zm-72.089-88.406c-5.984-6.12-11.413-12.012-12.132-12.862l2.313-2.091c0.709 0.839 6.132 6.724 12.046 12.771l-2.227 2.182z"/>
 <path d="m554.56 188.36c-5.863 1.747-7.453 2.2-9.832 2.987l0.827 2.628c-25.184 8.173-36.222 12.237-60.337 22.199l-1.075-2.537-10.891 4.761 3.644 8.197c26.617-11.653 50.312-20.731 80.226-29.638l-2.562-8.597zm-9.833 2.987c-25.219 8.184-36.279 12.249-60.584 22.29l-4.243-10.018c25.017-10.338 36.375-14.477 61.561-22.649l3.266 10.377zm640.43 625.83l49.692-2.452c-0.027-6.219-3.174-50.318-12.414-87.828l43.754-10.327c-3.016-12.36-2.04-8.559-3.945-15.578l12.905-3.464c-5.648-20.923-9.72-32.331-13.927-44.289l-12.56 4.56c-0.705-2.011 0.337 0.8-5.161-13.667l-16.008 6.319c-7.268-17.742-10.347-24.904-19.146-42.602l-8.97 4.527 1.353 2.728-3.423 1.702-1.343-2.707-8.969 4.527 1.316 2.653-3.429 1.704c-8.217-16.559-15.633-29.335-23.107-41.301l61.308-38.337c-5.047-8.092-10.67-16.514-11.377-17.517l13.651-9.262c-11.568-16.684-21.263-30.104-36.627-48.266l-12.606 10.641c-5.933-7.019-3.014-3.657-12.48-14.326l-6.09 5.503c9.553 10.771 6.92 7.75 10.43 11.908l-4.368 3.726c-3.446-4.083-0.823-1.074-10.322-11.785l-5.27 4.763c9.39 10.588 6.729 7.534 10.188 11.632l-4.368 3.726c-3.395-4.024-0.752-0.991-10.08-11.509l-5.272 4.765c9.189 10.363 6.551 7.333 9.946 11.357l-4.37 3.728c-3.339-3.959-0.697-0.925-9.838-11.233l-5.27 4.763c9.011 10.163 6.365 7.122 9.704 11.081l-4.366 3.725c-3.284-3.895-0.644-0.861-9.596-10.958l-5.274 4.766c8.815 9.943 6.177 6.908 9.462 10.805l-4.366 3.725c-3.23-3.832-0.586-0.792-9.354-10.682l-5.274 4.766c8.626 9.731 5.991 6.698 9.219 10.529l-4.366 3.725c-3.171-3.764-0.538-0.733-9.111-10.406l-5.27 4.763c8.46 9.545 5.808 6.49 8.977 10.254l-4.37 3.728c-3.117-3.702-0.485-0.67-8.869-10.13l-5.27 4.763c8.258 9.318 5.626 6.284 8.735 9.978l-4.366 3.724c-3.078-3.658-0.437-0.612-8.627-9.855l-2.665 2.408c-0.895-1.016-0.251-0.319-4.411-4.774 26.381-24.534 43.12-40.1 65.273-60.702-5.822-6.255-3.771-4.102-9.609-10.072 33.27-32.566 48.592-47.564 81.805-80.073-5.587-5.717-3.63-3.754-9.216-9.234l10.222-10.41c-6.245-6.096-7.211-7.057-7.879-7.655l5.932-6.242c-18.708-17.421-32.064-29.355-56.62-48.179l-5.217 6.851c-5.752-4.406-3.443-2.68-10.662-7.95l-8.608 11.78c-7.957-5.8-5.599-4.126-11.068-7.919l-48.842 69.833c-15.739-10.914-25.389-16.943-37.724-24.231l-9.542 16.222c-3.71-2.197-4.65-2.774-6.165-3.6l-1.962 3.437c-7.702-4.3-15.61-8.751-25.931-13.867l-4.504 8.981c10.436 5.171 17.993 9.447 25.453 13.611l-1.918 3.36c-1.041-0.581-14.643-8.252-22.19-11.987l-4.561 8.949c7.155 3.538 20.77 11.202 21.77 11.76l-1.919 3.362c-11.365-6.357-7.386-4.189-18.637-10.132l-4.618 8.919c11.271 5.952 7.386 3.844 18.276 9.935l-1.918 3.36c-11.67-6.522-7.134-4.054-15.257-8.337l-4.677 8.892c7.693 4.055 3.453 1.743 14.953 8.17l-1.919 3.362c-11.421-6.377-7.824-4.418-12.036-6.63l-4.733 8.859c4.125 2.166 0.483 0.181 11.789 6.494l-1.917 3.357-8.971-5.013-4.792 8.831 8.782 4.908-1.918 3.36-6.103-3.408-4.847 8.797 5.971 3.334-1.919 3.362-3.391-1.888-4.904 8.766 3.315 1.845-1.367 2.395c-10.832-6.057-6.034-3.425-14.236-7.757l23.042-44.096c-2.663-1.411-3.362-1.798-4.467-2.333l-22.582 44.333-2.703-1.334 22.274-44.488-4.511-2.245 76.173-156.18c-2.567-1.307-4.187-2.039-10.88-5.165l6.708-14.419-5.584-2.604 3.078-6.777c-1-0.484-25.939-11.855-57.878-23.116l-2.444 7.03c-7.71-2.71-19.141-6.402-24.916-8.128l2.168-7.121c-26.043-7.745-37.183-10.374-60.386-15.417l-1.506 7.289c-1.966-0.415-0.431-0.117-10.591-2.065l-2.968 15.623c-8.492-1.624-6.101-1.191-10.365-1.9l-20.402 117.64c-3.707-0.612-16.1-2.749-26.341-3.906l27.597-224.32-10.53-1.207 2.437-22.348-5.422-0.609 1.069-10.471c-30.661-2.901-42.639-3.215-59.167-3.827l-0.296 10.521c-1.975-0.096-4.881-0.128-19.021-0.3l0.046-10.525c-17.422-0.33-41.805 0.816-59.189 1.917l0.724 10.5c-6.819 0.445-4.611 0.278-9.505 0.703l1.815 22.407-9.23 0.817 28.434 305.27c-4.541 0.392-3.154 0.25-5.948 0.578l-10.402-97.964c-14.257 1.628-9.067 0.977-20.72 2.606l-2.353-16.328c-21.919 3.057-39.625 6.943-59.403 11.768l4.064 15.988c-2.036 0.494-0.591 0.118-7.612 2.021l-28.931-107.38c-10.137 2.747-7.74 2.073-12.63 3.524l1.202 4.134c-31.547 9.376-51.971 16.698-88.01 32.476l-1.774-3.923-13.762 6.425 66.071 137.63c-1 0.469-8.693 4.203-18.031 9.134l-21.148-39.956c-6.841 3.607-3.614 1.849-14.069 7.695l-8.133-14.359c-8.361 4.669-31.415 18.648-39.538 24.515l9.259 13.66c-12.12 8.409-9.365 6.468-11.959 8.347l5.948 8.305c-10.598 7.728-6.939 5-17.121 12.784l-67.582-87.067c-4.057 3.113-2.261 1.701-8.973 7.103l-7.482-9.305c-5.413 4.362-6.882 5.517-9.026 7.365l-18.252-21.916c-3.249 2.745-9.962 8.41-10.882 9.223l-23.736-27.358c-14.347 12.724-10.818 9.5-21.299 19.259l24.776 26.42c-5.129 4.78-2.963 2.707-10.302 9.864l19.925 20.407c-6.979 6.82-4.737 4.581-9.497 9.451l8.509 8.377c-5.932 6.075-7.521 7.68-8.372 8.622l6.789 6.446c2.639-2.759 11.024-11.423 15.495-15.742 7.012 7.121 1.865 1.895 5.032 5.111-3.691 3.554-14.188 14.327-15.326 15.57l37.691 35.791c-9.929 4.135-16.024 7.236-24.532 12.08l-11.485-10.019c-8.509 9.59-23.141 27.755-30.719 38.145-1.839-1.139-3.677-2.276-5.507-3.409 9.993-13.697 20.809-26.586 29.806-37.224l-18.805-16.281c-9.181 10.851-20.124 23.815-31.989 40.071-1.989-1.296-3.973-2.588-5.956-3.879 10.575-14.487 20.296-26.317 30.99-38.961l-18.379-15.794c-12.435 14.701-21.575 25.933-33.017 41.61l-6.533-4.163c11.762-16.032 19.829-26.095 32.022-40.519l-17.956-15.315c-13.211 15.632-21.848 26.478-34.136 43.302-2.399-1.476-4.78-2.941-7.152-4.4 10.429-14.282 19.327-25.871 33.169-42.267l-17.526-14.835c-14.22 16.849-22.955 28.172-35.395 45.218-2.837-1.688-5.642-3.357-8.413-5.005 60.264-90.801 12.57-79.395-33.668-19.574-34.811-19.718-47.719-26.294-64.045-34.759l-3.705 5.346c60.212 54.343 56.952 41.019 46.544 62.617-32.088 69.208-14.65 82.197 38.692 9.745 2.516 2.011 5.067 4.051 7.646 6.112-13.544 20.597-20.853 32.936-30.366 49.928l20.071 11.153c8.915-15.93 16.32-28.444 28.367-46.775 2.197 1.707 4.405 3.422 6.631 5.151-12.406 18.901-19.336 30.765-28.982 48.022l20.672 11.386c8.263-14.782 15.878-27.965 27.103-45.033l6.196 4.649c-11.255 17.117-18.948 30.547-27.772 46.346l21.27 11.611c7.173-12.839 15.456-27.469 25.984-43.48 1.907 1.4 3.817 2.803 5.728 4.207-10.272 15.621-23.792 39.134-26.647 44.812l21.877 11.835c2.776-5.556 16.304-28.924 24.728-41.728 1.345 1.036 2.689 2.071 4.037 3.109-68.682 95.981-51.997 222.6 39.533 272.73-0.241 1.696-0.03 6e-3 -0.912 7.779 44.936 5.09 15.627 2.606 48.969 9.609-0.062 0.429-1.065 11.417-1.199 13.682l-49.622-3.599-0.315 5.046 49.657 3.089c-0.827 12.562-0.8 20.87-0.907 27.701h71.754c8.829-487.13 721.57-478.23 730.24 0h71.754c-0.171-13.243-0.049-8.52-0.554-22.036zm-1053.4-444.88c-3.744-2.831 5.328-12.233 5.139-3.862-0.067 2.964-1.8 6.387-5.139 3.862m-8.413 11.335c-3.787-2.757 5.064-12.382 5.048-3.976-6e-3 2.972-1.664 6.439-5.048 3.976m-33.249 49.462c3.93 2.432-3.956 12.685-4.744 4.376-0.252-2.96 1.189-6.576 4.744-4.376m15.617-24.291c-3.963-2.651 4.662-12.503 4.908-4.162 0.067 2.939-1.434 6.485-4.908 4.162m707.93-56.727c11.735 1.638 7.659 1.021 19.083 2.902l-9.227 53.728c-10.372-1.712-6.769-1.16-16.961-2.58l7.105-54.05zm36.425-27.73c6.003 1.142 14.359 2.922 23.61 5.186l-3.369 13.808c-8.015-1.962-16.275-3.773-22.965-5.044l2.724-13.95zm29.969-20.885c-9.66-2.362-18.199-4.189-24.826-5.453l2.724-13.946c5.066 0.967 14.562 2.928 25.47 5.594l-3.368 13.805zm117.08-62.7c13.157 5.42 23.392 10.27 27.33 12.109l-6.052 12.853c-7.571-3.535-16.591-7.668-26.728-11.842l5.45-13.12zm-15.743 37.905c12.333 5.074 22.895 10.08 25.589 11.338l-6.053 12.856c-1.375-0.642-12.397-5.894-24.986-11.071l5.45-13.123zm-15.743 37.906c11.283 4.636 20.892 9.187 23.848 10.567l-6.053 12.856c-2.47-1.153-11.864-5.627-23.245-10.3l5.45-13.123zm-7.872 18.952c10.823 4.443 20.184 8.877 22.978 10.182l-6.053 12.856c-1.312-0.613-11.174-5.319-22.375-9.915l5.45-13.123zm-15.743 37.906c10 4.098 18.441 8.106 21.236 9.411l-6.053 12.856c-1.941-0.906-10.519-5.002-20.634-9.144l5.451-13.123zm-15.743 37.905c9.166 3.748 16.557 7.268 19.495 8.64l-6.054 12.859c-9.044-4.224-14.591-6.615-18.892-8.373l5.451-13.126zm30.572-185.78c17.308 6.096 11.31 3.909 28.077 10.262l-5.18 13.229c-16.78-6.358-10.918-4.21-27.457-10.036l4.56-13.455zm-6.587 19.437c16.756 5.901 10.949 3.784 27.181 9.935l-5.18 13.229c-16.233-6.151-10.562-4.073-26.561-9.709l4.56-13.455zm-13.173 38.873c15.651 5.513 10.227 3.535 25.389 9.281l-5.181 13.231c-15.138-5.737-9.849-3.799-24.769-9.055l4.561-13.457zm-6.586 19.437c15.099 5.319 9.866 3.41 24.493 8.954l-5.181 13.231c-14.59-5.53-9.493-3.662-23.873-8.727l4.561-13.458zm-6.587 19.437c14.547 5.124 9.505 3.286 23.597 8.627l-5.181 13.232c-14.042-5.323-9.136-3.525-22.977-8.4l4.561-13.459zm-13.173 38.873c13.442 4.735 8.783 3.036 21.805 7.973l-5.181 13.231c-12.947-4.909-8.424-3.251-21.185-7.746l4.561-13.458zm-13.173 38.873c12.337 4.347 8.062 2.787 20.013 7.319l-5.182 13.234c-11.852-4.494-7.711-2.976-19.393-7.092l4.562-13.461zm12.784-167.5c13.545 3.665 22.741 6.43 27.788 8.068l-4.283 13.546c-5.157-1.674-14.266-4.396-27.154-7.884l3.649-13.73zm-10.542 39.668c1.243 0.336 14.687 3.872 25.956 7.535l-4.284 13.548c-4.364-1.42-12.697-3.933-25.322-7.351l3.65-13.732zm-5.271 19.834c12.509 3.386 20.737 5.868 25.04 7.269l-4.284 13.548c-4.08-1.329-11.881-3.694-24.406-7.085l3.65-13.732zm-10.543 39.668c11.943 3.234 19.472 5.517 23.208 6.736l-4.285 13.551c-3.593-1.173-10.865-3.381-22.573-6.552l3.65-13.735zm-10.542 39.667c11.326 3.068 18.16 5.151 21.376 6.203l-4.285 13.552c-3.413-1.118-10.219-3.168-20.741-6.019l3.65-13.736zm-5.271 19.835c5.748 1.557 14.787 4.077 20.46 5.937l-4.285 13.551c-2.767-0.908-8.833-2.774-19.825-5.752l3.65-13.736zm16.721-108.13c-10.514-2.569-19.642-4.489-25.756-5.657l2.724-13.946c8.804 1.684 17.632 3.657 26.4 5.798l-3.368 13.805zm-11.234-80.029c6.703 1.287 17.07 3.455 29.191 6.411l-3.367 13.802c-11.23-2.739-20.674-4.759-28.547-6.269l2.723-13.944zm-3.933 20.141c7.436 1.426 16.933 3.443 28.261 6.206l-3.367 13.802c-10.875-2.654-20.091-4.623-27.617-6.065l2.723-13.943zm-27.537 140.99c6.954 1.318 14.652 3.038 21.749 4.777l-3.368 13.808c-8.602-2.109-16.508-3.766-21.105-4.636l2.724-13.949zm-23.585-50.352c12.647 1.767 8.254 1.102 20.567 3.127l-4.509 26.256c-11.965-1.969-7.795-1.331-19.53-2.97l3.472-26.413zm-14.717-215.4c2.008 0.102 18.075 1.497 25.839 2.373l-2.169 19.972c-8.627-0.975-23.884-2.246-25.143-2.31l1.473-20.035zm-2.127 28.934c1.861 0.093 17.496 1.451 24.834 2.281l-2.169 19.974c-6.956-0.789-22.324-2.129-24.137-2.218l1.472-20.037zm-4.254 57.874c1.473 0.071 16.164 1.341 22.822 2.098l-2.169 19.974c-6.104-0.696-20.553-1.961-22.126-2.035l1.473-20.037zm-2.127 28.938c1.388 0.065 15.616 1.299 21.816 2.007l-2.169 19.971c-6.238-0.714-19.932-1.889-21.12-1.943l1.473-20.035zm-4.254 57.87c1.017 0.045 14.075 1.165 19.805 1.824l-2.17 19.977c-4.961-0.572-17.935-1.709-19.108-1.76l1.473-20.041zm-2.127 28.936c1 0.043 13.578 1.129 18.799 1.732l-2.17 19.976c-4.433-0.514-16.986-1.622-18.103-1.669l1.474-20.039zm-4.254 57.873c0.795 0.031 12.367 1.033 16.788 1.549l-2.17 19.976c-4.206-0.493-15.373-1.458-16.091-1.486l1.473-20.039zm-19.509-204.23c1.139 0.016 15.369 0.471 23.885 1.004l-1.167 20.052c-7.055-0.443-21.167-0.948-23.192-0.976l0.474-20.08zm-0.684 29.006c1.851 0.025 15.805 0.518 22.884 0.963l-1.167 20.057c-7.325-0.462-21.01-0.919-22.191-0.935l0.474-20.085zm-0.684 29.008c1.949 0.025 15.503 0.519 21.883 0.922l-1.167 20.054c-5.979-0.38-19.29-0.87-21.19-0.894l0.474-20.082zm-0.684 29.005c1.779 0.022 14.939 0.503 20.882 0.881l-1.167 20.057c-5.401-0.345-18.331-0.831-20.189-0.853l0.474-20.085zm-0.684 29.005c1.613 0.019 14.374 0.488 19.881 0.84l-1.167 20.06c-6.107-0.393-18.187-0.801-19.188-0.812l0.474-20.088zm-0.685 29.006c1.495 0.017 13.844 0.475 18.88 0.799l-1.167 20.06c-4.473-0.29-16.574-0.754-18.187-0.771l0.474-20.088zm-0.684 29.005c1.389 0.014 13.323 0.462 17.879 0.759l-1.167 20.06c-4.007-0.262-15.678-0.716-17.186-0.73l0.474-20.089zm-0.684 29.008c1.244 0.012 12.725 0.445 16.878 0.718l-1.167 20.06c-3.616-0.239-14.848-0.678-16.185-0.689l0.474-20.089zm-31.134-261.02c1-0.022 15.585-0.303 25.883-0.185l-0.17 20.089c-10.009-0.117-24.192 0.156-25.194 0.179l-0.519-20.083zm0.751 29.002c1.019-0.023 14.977-0.292 24.888-0.176l-0.17 20.089c-8.914-0.106-23.183 0.147-24.198 0.17l-0.52-20.083zm0.751 29.006c1.002-0.022 14.663-0.278 23.892-0.167l-0.17 20.085c-7.687-0.093-22.201 0.113-23.202 0.161l-0.52-20.079zm1.501 58.01c19.636-0.265 15.126-0.235 21.9-0.15l-0.17 20.088c-6.47-0.083-2.014-0.113-21.21 0.144l-0.52-20.082zm1.501 58.008c18.176-0.239 13.538-0.217 19.908-0.133l-0.17 20.094c-6.083-0.082-1.477-0.104-19.218 0.127l-0.52-20.088zm1.502 58.007c16.708-0.212 11.935-0.199 17.916-0.115l-0.17 20.093c-5.81-0.084-0.815-0.096-17.226 0.109l-0.52-20.087zm-43.29-230.14c21.562-1.38 17.133-1.126 25.877-1.467l0.825 20.073c-8.502 0.33-4.001 0.072-25.183 1.426l-1.519-20.032zm4.388 57.862c20.22-1.289 15.699-1.034 23.872-1.35l0.825 20.069c-7.892 0.303-3.26 0.041-23.178 1.309l-1.519-20.028zm2.194 28.931c19.706-1.253 15.051-0.991 22.87-1.291l0.825 20.074c-7.613 0.291-2.93 0.029-22.175 1.251l-1.52-20.034zm4.388 57.863c18.148-1.148 13.498-0.895 20.865-1.174l0.825 20.074c-7.106 0.267-2.335 7e-3 -20.17 1.133l-1.52-20.033zm4.388 57.861c16.796-1.056 12.032-0.803 18.86-1.057l0.825 20.077c-6.593 0.243-1.754-0.013-18.165 1.016l-1.52-20.036zm2.194 28.93c16.151-1.011 11.31-0.757 17.857-0.998l0.825 20.077c-6.357 0.232-1.486-0.021-17.163 0.958l-1.519-20.037zm2.194 28.933c15.405-0.96 10.546-0.71 16.855-0.94l0.825 20.077c-6.079 0.219-1.178-0.032-16.16 0.899l-1.52-20.036zm-11.404 30.621c2.694-0.317 1.346-0.18 5.838-0.567l0.347 3.727c-4.436 0.381-3.082 0.244-5.79 0.562l-0.395-3.722zm-30.785-18.597c8.194-1.367 5.401-0.942 10.806-1.688l1.889 13.112c-5.104 0.704-2.431 0.293-10.503 1.641l-2.192-13.065zm-27.132-47.525l11.908-2.286 2.36 13.03-11.606 2.228-2.662-12.972zm4.006 50.14c-6.578 1.42-4.296 0.895-10.681 2.466l-3.13-12.872c6.718-1.652 4.373-1.108 10.981-2.536l2.83 12.942zm23.433-36.122c2.641-0.431-0.104-0.018 11.584-1.658l1.737 13.127c-11.673 1.638-8.576 1.172-11.281 1.614l-2.04-13.083zm-55.573-25.947c11.766-2.865 11.58-2.831 12.183-2.958l2.965 12.912c-0.47 0.099-11.417 2.772-11.884 2.886l-3.264-12.84zm-119.48 171.78c-9.358 6.827-5.471 3.922-11.75 8.744l-1.57-2.045c6.11-4.692 2.348-1.886 11.82-8.796l1.5 2.097zm-6.517-9.099c-9.539 6.958-5.653 4.056-12.05 8.967l-2.278-2.966c6.224-4.779 2.48-1.986 12.151-9.041l2.177 3.04zm-53.234-20.68c-2.322 1.831-3.437 2.817-9.726 8.131l-7.789-9.072c6.189-5.23 7.529-6.409 9.959-8.326l7.556 9.267zm-5.054 13.573c6.202-5.241 7.304-6.216 9.587-8.015l6.655 8.16c-2.232 1.757-3.301 2.705-9.382 7.843l-6.86-7.988zm29.462-24.274c4.092 2.409 8.059 4.998 11.903 7.752l9.73 13.586c-9.718 7.089-5.866 4.211-12.381 9.212l-18.269-23.788c6.286-4.831 3.96-3.081 9.017-6.762m-14.556 3.775c-4.713-6.072-7.992-10.297-12.654-16.302 8.155 2.81 15.248 5.97 21.714 9.428-2.742 1.992-0.469 0.289-9.06 6.874zm-74.428-86.856c-11.553 9.305-9.819 7.902-12.072 9.807l-6.801-8.165c2.283-1.93 0.627-0.591 12.281-9.977l6.592 8.335zm-9.466 38.491c4.352-3.864 2.078-1.912 11.349-9.75l7.282 8.701c-9.045 7.647-6.793 5.71-11.13 9.562l-7.501-8.513zm18.591 52.452l-9.781 9.542-7.752-7.744 9.98-9.736 7.553 7.938zm23.317 44.692c2.091-2.139-0.211 0.162 8.87-8.721l8.602 8.986c-9.08 8.885-6.505 6.31-8.645 8.5l-8.827-8.765zm13.916 13.818c2.092-2.141-0.375 0.327 8.516-8.373l6.948 7.257c-8.821 8.634-6.21 6.019-8.334 8.195l-7.13-7.079zm-24.342-44.962l-9.442 9.211-8.152-8.144 9.651-9.415 7.943 8.348zm117.26-16.097c1.745-1.118 2.661-1.629 7.637-4.566l5.812 9.897c-4.718 2.785-5.712 3.34-7.445 4.452l-6.004-9.783zm-32.887-68.123c-5.36 3.161-3.462 2.006-8.86 5.381l-6.057-9.755c5.512-3.445 3.58-2.27 9.051-5.497l5.866 9.871zm38.198 45.01c-3.511 1.953-1.48 0.781-7.984 4.637l-5.85-9.875c6.637-3.933 4.563-2.737 8.178-4.749l5.656 9.987zm-35.779-42.281c7.149-4.232 4.993-2.989 8.903-5.169l5.659 9.991c-3.775 2.104-1.656 0.88-8.709 5.057l-5.853-9.879zm-5.328 16.695c-5.249 3.267-3.436 2.108-8.481 5.433l-6.288-9.608c5.277-3.476 3.427-2.289 8.668-5.553l6.101 9.728zm0.949 19.84c4.99-3.29 3.24-2.167 8.199-5.252l6.099 9.726c-4.96 3.084-3.248 1.989-8.012 5.132l-6.286-9.606zm16.108 24.613c4.696-3.1 3.048-2.043 7.718-4.944l6.101 9.729c-4.664 2.896-3.055 1.868-7.531 4.824l-6.288-9.609zm68.783 0.876c-0.297 0.127-8.274 4.063-14.952 7.592l-16.408-31c7.364-3.89 15.829-8.06 16.16-8.202l15.2 31.61zm-45.613-157.87c-13.878 6.073-11.108 4.841-13.976 6.169l-12.31-26.98c2.81-1.299 0.459-0.259 14.671-6.475l11.615 27.286zm75.747 6.998c-12.029 3.578-8.818 2.59-13.819 4.217l-9.016-28.255c5.126-1.666 1.893-0.676 14.548-4.44l8.287 28.478zm-13.081 6.532c4.918-1.6 1.7-0.613 13.759-4.199l8.286 28.474c-11.464 3.409-8.268 2.425-13.031 3.977l-9.014-28.252zm9.754 30.57c4.709-1.535 1.524-0.555 12.971-3.959l3.418 11.744c-11.198 3.33-8.033 2.355-12.671 3.867l-3.718-11.652zm7.056 28.893c-7.478 2.418-4.887 1.544-12.129 4.098l-3.884-11.025c7.586-2.673 4.936-1.775 12.414-4.194l3.599 11.121zm-11.322 6.387c7.212-2.543 4.625-1.671 12.07-4.078l9.132 28.218c-6.843 2.209-4.411 1.385-11.348 3.834l-9.854-27.974zm-18.966-8.053c10.249-3.899 7.172-2.766 12.283-4.559l3.929 11.008c-4.962 1.74-1.909 0.615-12.002 4.455l-4.21-10.904zm3.799 48.258c11.874-4.834 8.807-3.632 11.048-4.476l4.267 10.916c-2.017 0.759-0.174 0.051-10.769 4.362l-4.546-10.802zm10.164-6.735c-2.244 0.845 0.847-0.367-11.106 4.499l-11.505-27.342c12.57-5.122 9.526-3.922 11.811-4.785l10.8 27.628zm2.681 1.581c9.632-3.666 6.401-2.477 11.173-4.147l3.94 11.038c-4.589 1.605-1.599 0.505-10.891 4.042l-4.222-10.933zm12.984-4.783c6.885-2.432 4.487-1.619 11.289-3.814l3.609 11.151c-6.786 2.189-4.435 1.397-11.004 3.718l-3.894-11.055zm13.112-4.408c4.242-1.388 1.128-0.426 11.396-3.478l3.275 11.253c-10.019 2.979-6.936 2.025-11.108 3.391l-3.563-11.166zm10.718-5.809c-10.236 3.043-7.144 2.086-11.455 3.497l-9.017-28.261c4.458-1.455 1.304-0.483 12.184-3.719l8.288 28.483zm-8.968-30.812c-10.85 3.226-7.699 2.254-12.242 3.737l-3.553-11.135c4.559-1.487 1.395-0.513 12.529-3.824l3.266 11.222zm-43.843-87.214c-8.919 2.894-5.827 1.852-14.471 4.89l-9.853-27.971c9.288-3.261 6.044-2.162 15.193-5.134l9.131 28.215zm-13.664 7.181c8.81-3.096 5.733-2.053 14.412-4.87l9.132 28.218c-8.252 2.675-5.318 1.681-13.691 4.626l-9.853-27.974zm10.66 30.266c8.148-2.866 5.226-1.881 13.633-4.606l9.131 28.215c-7.959 2.577-5.201 1.647-12.911 4.363l-9.853-27.972zm10.662 30.265c7.854-2.766 5.11-1.836 12.851-4.342l3.766 11.637c-7.739 2.504-5.057 1.6-12.553 4.242l-4.064-11.537zm-24.45-62.005c-5.91 2.081-2.842 0.952-14.321 5.316l-10.682-27.665c12.113-4.605 9.045-3.471 15.034-5.581l9.969 27.93zm-13.446 7.583c11.829-4.497 8.49-3.263 14.259-5.293l9.97 27.933c-5.443 1.914-2.358 0.774-13.546 5.028l-10.683-27.668zm23.118 59.868c10.364-3.942 7.5-2.889 12.715-4.72l4.111 11.519c-5.104 1.791-2.029 0.657-12.421 4.61l-4.405-11.409zm-26.294-61.261c-2.264 0.86 0.374-0.198-14.157 5.737l-11.502-27.334c14.865-6.075 12.517-5.131 14.862-6.023l10.797 27.62zm-13.214 7.977c14.262-5.825 11.773-4.83 14.099-5.713l10.798 27.623c-2.255 0.855 0.482-0.237-13.394 5.427l-11.503-27.337zm12.445 29.577c13.644-5.569 11.032-4.531 13.336-5.404l10.797 27.62c-2.254 0.853 0.601-0.279-12.631 5.118l-11.502-27.334zm12.445 29.576c13.032-5.315 10.288-4.23 12.573-5.094l4.453 11.392c-2.294 0.868 0.69-0.313-12.283 4.977l-4.743-11.275zm6.969 16.564c12.285-5.008 9.954-4.093 12.146-4.921l4.255 10.886c-2.258 0.852 0.737-0.329-11.868 4.808l-4.533-10.773zm15.203 41.107c-11.546 5.066-8.179 3.545-10.966 4.842l-12.313-26.988c2.737-1.272-0.213 0.058 11.661-5.148l11.618 27.294zm-9.956 7.049c2.76-1.284-0.592 0.23 10.909-4.816l4.59 10.784c-11.342 4.979-7.851 3.399-10.634 4.695l-4.865-10.663zm7.248 15.886c2.729-1.271-0.624 0.247 10.499-4.636l4.777 11.223c-10.962 4.814-7.451 3.222-10.213 4.51l-5.063-11.097zm12.198-5.358c10.473-4.261 8.631-3.554 10.633-4.307l4.441 11.36c-1.965 0.738-0.375 0.136-10.343 4.189l-4.731-11.242zm12.363-4.959c9.129-3.475 6.141-2.378 10.753-3.991l4.1 11.487c-4.445 1.553-1.482 0.464-10.459 3.882l-4.394-11.378zm12.495-4.603c6.637-2.346 4.318-1.56 10.864-3.671l3.756 11.604c-6.517 2.1-4.26 1.339-10.567 3.571l-4.053-11.504zm12.619-4.243c4.105-1.344 1.027-0.393 10.967-3.348l3.408 11.711c-9.678 2.877-6.621 1.93-10.667 3.256l-3.708-11.619zm-39.419-176.5c-13.203 3.928-9.932 2.926-15.397 4.699l-3.395-10.641c5.627-1.825 2.495-0.862 15.672-4.782l3.12 10.724zm-17.862 5.499c-9.399 3.053-6.141 1.955-15.252 5.154l-3.711-10.535c9.491-3.331 6.176-2.208 15.524-5.245l3.439 10.626zm-17.698 6.015c-5.993 2.112-2.826 0.94-15.093 5.603l-4.023-10.419c12.321-4.683 9.255-3.55 15.362-5.703l3.754 10.519zm-17.518 6.525c-2.264 0.861 0.244-0.151-14.919 6.046l-4.332-10.295c15.1-6.172 12.836-5.26 15.185-6.154l4.066 10.403zm-17.306 7.06c-14.421 6.307-11.839 5.165-14.729 6.501l-4.636-10.161c2.817-1.302 0.537-0.296 14.99-6.616l4.375 10.276zm12.919 67.097c2.77-1.284 0.122-0.1 13.167-5.812l11.614 27.287c-12.76 5.59-9.638 4.191-12.471 5.505l-12.31-26.98zm13.322 29.192c2.75-1.276-0.045-0.021 12.411-5.479l4.79 11.254c-12.482 5.47-9.303 4.043-12.125 5.352l-5.076-11.127zm7.459 16.349c2.742-1.273-0.142 0.024 11.99-5.293l4.578 10.755c-12.151 5.327-8.9 3.864-11.716 5.172l-4.852-10.634zm12.271-161.29c5.604-1.816 2.321-0.814 16.126-4.921l3.562 12.24c-13.427 3.995-10.195 3.004-15.813 4.825l-3.875-12.144zm-18.556 6.234c9.767-3.426 6.356-2.271 15.974-5.397l3.925 12.129c-9.652 3.137-6.306 2.009-15.664 5.293l-4.235-12.025zm-18.368 6.771c12.723-4.836 9.57-3.668 15.807-5.868l4.285 12.006c-6.042 2.13-2.933 0.977-15.5 5.754l-4.592-11.892zm-18.164 7.3c15.466-6.324 13.35-5.466 15.624-6.332l4.641 11.873c-2.262 0.861 0.141-0.112-15.321 6.21l-4.944-11.751zm-17.92 7.866c2.839-1.312 0.637-0.343 15.424-6.807l4.993 11.73c-14.749 6.449-12.222 5.334-15.125 6.675l-5.292-11.598zm33.899 146.76c9.284-4.902 16.929-8.614 17.931-9.084l14.738 30.701c-1 0.468-8.697 4.234-16.738 8.482l-15.931-30.099zm-12.45 13.784l8.628-4.819 5.522 10.065-8.433 4.71-5.717-9.956zm-56.804-6.893c6.301-4.375 4.051-2.848 8.762-5.945l6.349 9.565c-4.426 2.908-2.395 1.525-8.578 5.82l-6.533-9.44zm16.334 23.601c6.046-4.201 3.807-2.681 8.302-5.632l6.347 9.563c-4.223 2.772-2.189 1.387-8.117 5.507l-6.532-9.438zm16.741 24.191c5.726-3.982 3.563-2.513 7.829-5.312l6.347 9.563c-4.007 2.628-2.034 1.284-7.645 5.187l-6.531-9.438zm-43.132-46.678l31.125 43.456-1.651 1.208c-10.862-6.148-21.219-10.409-32.323-13.674l-14.184-18.273c10.366-7.924 6.73-5.205 17.033-12.717zm-89.738-44.896c2.38-2.011 0.952-0.856 12.655-10.281l7.353 9.298c-11.771 9.479-10.126 8.151-12.422 10.091l-7.586-9.108zm33.826 65.37c4.255-3.779 1.968-1.815 10.993-9.444l7.148 8.541-6.322 5.343c-2.612-0.053-5.171 0.039-7.789 0.133l-4.03-4.573zm-102.51 316.47c0.191-1.001 3.373-14.59 9.477-35.215l3.66 1.134c-1.461 4.94-7.775 26.412-9.402 34.937l-3.735-0.856zm-13.517-3.099c1.886-9.818 8.654-32.53 9.747-36.22l3.652 1.132c-0.546 1.844-7.699 25.656-9.673 35.943l-3.726-0.855zm45.504 43.163c4.26-25.778 7.528-39.29 14.209-61.962l2.283 0.697c-6.824 23.154-9.965 36.407-14.133 61.632l-2.359-0.367zm12.289 1.911c4.185-25.332 7.398-38.47 13.815-60.241l2.064 0.63c-6.33 21.476-9.543 34.497-13.746 59.942l-2.133-0.331zm-53.242-103.65c2.326-6.621 1.792-5.139 2.33-6.56l7.376 2.716c-0.52 1.371-0.042 0.049-2.294 6.459l-7.412-2.615zm49.515 10.818c-0.494 1.3-0.019-0.011-2.098 5.916l-7.409-2.615c2.151-6.13 1.623-4.671 2.134-6.017l7.373 2.716zm-22.012-25.15c-2.24 5.461-1.645 3.966-2.488 6.199l-7.323-2.856c0.846-2.238 0.237-0.712 2.527-6.298l7.284 2.955zm20.627-9.899l-2.593 5.936-7.217-3.114 2.636-6.034 7.174 3.212zm22.711 14.802c-2.49 5.669-1.932 4.359-2.437 5.609l-7.246-3.046c0.498-1.232-3e-3 -0.056 2.479-5.708l7.204 3.145zm-41.943 109.3c3.896-23.572 6.956-37.836 14.596-63.65l2.056 0.628c-7.444 25.155-10.533 39.183-14.528 63.353l-2.124-0.331zm-28.757-141.66l-12.232-5.377c-7.303 16.665-10.916 26.373-16.873 43.259l12.648 4.308c-0.261 0.699-4.296 13.133-4.524 13.893l16.439 5.094c-4.469 15.071-7.295 24.772-11.733 45.19l9.829 2.084 0.649-2.975 3.735 0.816-0.644 2.952 9.828 2.084 0.632-2.893 3.741 0.817c-2.477 11.304-4.588 22.616-6.395 35.642-74.248-42.805-95.284-137.32-59.806-221.02l17.814 9.552c8.033-15.236 16.764-29.256 23.047-39.326 1.577 1.179 3.121 2.333 4.681 3.5-4.394 7.042-13.547 21.42-23.622 40.525l23.09 12.269c7.337-13.92 13.772-24.621 22.06-37.905 1.469 0.924 2.933 1.844 4.387 2.758-9.217 14.772-14.721 24.005-22.843 39.421l23.701 12.48c8.048-15.271 13.33-24.029 22.353-38.504 2.843 1.555-0.09-0.027 4 2.168-8.77 14.073-13.78 22.222-23.252 40.191l24.315 12.687c6.807-12.922 15.386-28.056 23.437-40.227 1.17 0.582 2.351 1.171 3.523 1.754-9.295 14.055-16.947 27.867-24.362 41.914l24.93 12.89c7.941-15.05 14.276-26.317 25.047-42.669 1.014 0.458 2.023 0.914 3.014 1.362-11.518 17.501-17.171 27.702-25.972 44.336l23.063 11.814c-6.04 12.213-4.087 8.132-5.526 11.241l-85.502-40.732c-5.377 11.515-3.745 7.911-6.677 14.624zm111.71-57.315c-0.772-0.774-1.551-1.556-2.334-2.342 10.361-14.204 18.389-24.13 30.78-38.078l-20.872-18.763c-10.567 11.902-20.911 24.246-30.273 37.134-0.927-0.89-1.919-1.789-2.88-2.681 8.56-11.785 19.253-24.693 29.01-35.665l-20.464-18.259c-14.744 16.593-22.15 26.492-29.012 35.437-0.209-0.181-0.131-0.114-3.441-2.983 5.232-6.812 13.966-18.476 27.745-33.992l-20.054-17.758c-11.11 12.514-18.193 21.437-28.398 34.738-1.367-1.04-2.743-2.087-4.124-3.138 7.495-9.769 16.145-20.967 27.245-33.463l-19.639-17.262c-11.802 13.293-21.073 25.321-29.122 35.816-1.639-1.05-3.262-2.09-4.922-3.153 2.995-3.905 16.026-21.144 28.193-34.844l-3.128-2.729c8.599-4.772 14.772-7.791 24.557-11.7l109.44 103.92c-0.364 0.392-6.819 7.322-7.074 7.625l-19.207-17.395c-13.527 15.261-20.428 23.685-32.021 39.536zm328.01-165.96c2.61-0.308 1.29-0.175 5.679-0.551l0.239 2.567c-4.339 0.372-3.006 0.236-5.646 0.548l-0.272-2.564zm433.84 162l6.248 8.996-10.962 7.438-6.074-8.745 10.788-7.689zm30.785-45.165c5.156 6.713 3.343 4.3 7.285 9.712l-10.684 7.823c-3.83-5.26-2.07-2.918-7.102-9.469l10.501-8.066zm0.38-24.908l7.856 9.738-10.399 8.203-7.665-9.501 10.208-8.44zm-40.368 33.373l7.1 8.802-10.401 8.204-6.909-8.565 10.21-8.441zm14.237 86.995c13.377 23.944 18.977 36.013 27.711 57.265l-2.885 1.153c-11.319-27.747-21.766-46.68-22.383-47.681l-7.563 4.116c0.619 1 10.66 19.078 21.95 46.759l-2.673 1.068c-8.411-20.468-13.82-32.149-26.81-55.403l12.653-7.277zm55.442 183.38c-1.547-17.775-5.319-43.036-10.115-62.431l2.323-0.548c4.87 19.704 8.632 45.089 10.169 62.764l-2.377 0.215zm-5.201-107.06c-0.514-1.602-0.086-0.345-2.063-5.929l7.415-2.6c1.979 5.591 1.568 4.38 2.098 6.03l-7.45 2.499zm-23.882 10.391c-1.325-4.124-0.818-2.615-1.886-5.616l7.428-2.561c1.049 2.953 0.562 1.491 1.92 5.718l-7.462 2.459zm69.27-32.958c2.157 6.105 1.72 4.823 2.285 6.577l-7.452 2.499c-0.553-1.717-0.117-0.438-2.25-6.475l7.417-2.601zm-12.004 29.981l-1.896-6.404 7.506-2.332 1.927 6.506-7.537 2.23zm-37.34 21.709c-0.656-2.384-0.92-3.521-1.606-5.894l7.557-2.161c0.698 2.417 0.968 3.574 1.635 5.997l-7.586 2.058zm26.981-2.673l-1.696-6.253c2.902-0.8 4.71-1.299 7.574-2.089l1.724 6.356c-2.869 0.75-4.714 1.231-7.602 1.986zm29.225-7.638l-1.801-6.645 7.577-2.089 1.829 6.748-7.605 1.986zm-59.207 89.349c-1.484-17.097-5.152-41.79-9.838-60.729l2.104-0.497c4.715 19.06 8.393 43.815 9.887 61.031l-2.153 0.195zm16.241-66.882c4.892 19.806 8.803 45.652 10.445 64.465l-2.141 0.194c-1.604-18.404-5.475-44.246-10.396-64.165l2.092-0.494zm2.971-112.39c5.023 10.042 10.817 23.95 15.086 34.358l-3.556 1.404c-4.228-10.306-9.96-24.071-14.97-34.095l3.44-1.667zm-12.481 6.043c4.866 9.722 10.551 23.372 14.668 33.406l-3.564 1.407c-4.114-10.022-9.709-23.46-14.553-33.143l3.449-1.67zm-39.44-17.337c13.911 24.897 19.635 37.338 28.465 58.821l-1.996 0.798c-9.016-21.936-14.766-34.267-28.332-58.547l1.863-1.072zm14.608-58.556c5.053 7.275 3.086 4.378 6.574 9.688l-11.043 7.308c-3.239-4.932-1.532-2.424-6.403-9.435l10.872-7.561zm-134.63-147.06c-2.632-1.739-1.853-1.241-3.578-2.313l2.532-3.976c1.651 1.027 0.88 0.531 3.611 2.334l-2.565 3.955zm-21.759 22.495c3.429 2.132 2.653 1.64 3.399 2.131l-2.546 3.961c-0.678-0.446 0.018-6e-3 -3.367-2.11l2.514-3.982zm8.112 19.036l3.217 2.235-2.69 3.875-3.186-2.213 2.659-3.897zm16.937-15.818l-3.375-2.342 2.662-3.887 3.407 2.364-2.694 3.865zm10.731-19.143l2.678-3.876c1.218 0.844 2.304 1.596 3.554 2.461l-2.71 3.854c-1.238-0.858-2.314-1.603-3.522-2.439zm101.06-33.737c2.355 1.991 0.632 0.47 12.321 10.841l-10.36 11.44c-11.68-10.362-9.732-8.642-12.012-10.569l10.051-11.712zm16.925 5.758c-11.936-10.592-10.051-8.927-12.459-10.963l10.051-11.713c2.455 2.077 0.745 0.565 12.768 11.235l-10.36 11.441zm-31.442 11.16c2.241 1.893 0.531 0.385 11.874 10.447l-10.361 11.44c-11.256-9.983-9.265-8.233-11.565-10.175l10.052-11.712zm-14.517 16.917c2.218 1.872 0.449 0.318 11.427 10.053l-10.361 11.44c-10.856-9.625-8.845-7.863-11.118-9.781l10.052-11.712zm-14.517 16.918c2.21 1.864 0.337 0.224 10.98 9.659l-10.361 11.44c-10.6-9.395-8.423-7.492-10.671-9.387l10.052-11.712zm-14.515 16.916c2.187 1.843 0.246 0.148 10.533 9.265l-10.359 11.439c-10.24-9.073-7.997-7.117-10.224-8.993l10.05-11.711zm-14.516 16.915c2.167 1.824 0.149 0.068 10.087 8.871l-10.361 11.44c-9.888-8.758-7.561-6.734-9.777-8.599l10.051-11.712zm75.054-52.49c7.096 6.603 4.661 4.286 11.454 10.91l-10.793 11.033c-6.77-6.603-4.389-4.332-11.155-10.626l10.494-11.317zm16.25 6.008c-6.88-6.708-4.39-4.339-11.587-11.037l10.494-11.318c7.212 6.713 4.669 4.287 11.885 11.321l-10.792 11.034zm-31.407 10.338c6.842 6.364 4.486 4.124 11.022 10.499l-10.793 11.033c-6.363-6.209-4.063-4.021-10.724-10.215l10.495-11.317zm-15.157 16.347c6.434 5.983 4.159 3.812 10.591 10.089l-10.793 11.033c-6.244-6.095-4.047-3.999-10.292-9.804l10.494-11.318zm-15.156 16.344c6.17 5.734 3.994 3.658 10.16 9.678l-10.791 11.031c-5.849-5.712-3.736-3.702-9.861-9.393l10.492-11.316zm-15.156 16.345c6.044 5.614 3.96 3.632 9.729 9.267l-10.793 11.033c-5.718-5.587-3.705-3.667-9.43-8.983l10.494-11.317zm92.465-75.31c-7.296-7.111-4.731-4.664-12.018-11.447l10.495-11.318c7.628 7.103 5.009 4.612 12.317 11.732l-10.794 11.033zm-107.01 53.343c-3.756-3.185-0.985-0.909-10.542-8.609l9.591-12.09c9.737 7.844 6.98 5.58 10.862 8.87l-9.911 11.829zm-14.804-3.236c9.395 7.569 6.666 5.326 10.402 8.495l-9.913 11.831c-3.624-3.075-0.891-0.829-10.082-8.234l9.593-12.092zm29.118-13.847c-3.877-3.286-1.108-1.014-11.004-8.986l9.593-12.092c10.065 8.108 7.314 5.85 11.324 9.247l-9.913 11.831zm14.316-17.087c-4.009-3.395-1.242-1.127-11.466-9.362l9.594-12.094c10.438 8.408 7.661 6.132 11.786 9.623l-9.914 11.833zm14.317-17.088c-4.143-3.506-1.322-1.196-11.928-9.739l9.593-12.092c10.75 8.658 7.986 6.394 12.248 10l-9.913 11.831zm14.317-17.087c-4.227-3.576-1.421-1.281-12.39-10.116l9.593-12.092c11.093 8.934 8.316 6.661 12.71 10.377l-9.913 11.831zm14.317-17.088c-4.4-3.72-1.607-1.436-12.852-10.493l9.593-12.092c11.45 9.221 8.645 6.927 13.172 10.753l-9.913 11.832zm-73.203 55.512c-8.414-6.455-5.581-4.339-11.35-8.54l9.12-12.452c5.918 4.312 3.062 2.178 11.68 8.789l-9.45 12.203zm-15.4-3.01c5.698 4.149 2.921 2.075 11.203 8.43l-9.448 12.202c-8.153-6.256-5.506-4.274-10.873-8.181l9.118-12.451zm29.048-14.616c-8.767-6.724-6.043-4.685-11.826-8.899l9.119-12.452c6.11 4.453 3.251 2.318 12.156 9.148l-9.449 12.203zm23.636-57.323c6.253 4.56 3.485 2.486 13.11 9.866l-9.449 12.204c-9.343-7.164-6.419-4.979-12.78-9.617l9.119-12.453zm17.308 4.444c-9.612-7.37-6.707-5.199-13.257-9.976l9.119-12.452c6.437 4.696 3.687 2.636 13.587 10.225l-9.449 12.203zm-30.48 13.542c5.797 4.226 3.173 2.252 12.633 9.507l-9.449 12.204c-9.025-6.921-6.161-4.782-12.303-9.258l9.119-12.453zm-52.682 71.936c5.299 3.857 2.587 1.824 10.726 8.071l-9.449 12.204c-7.85-6.025-5.062-3.941-10.396-7.822l9.119-12.453zm-2.397-74.702c8.753 5.468 14.185 8.772 27.009 17.668l-3.96 5.697c-12.618-8.754-17.981-12.018-26.674-17.449l3.625-5.916zm-14.233 13.839c2.823 1.664 1.978 1.15 3.793 2.286-1.336 2.183-0.905 1.48-2.458 4.019-1.673-1.048-0.898-0.579-3.76-2.266 1.535-2.557 1.11-1.849 2.425-4.039zm-13.725 32.184l3.524 2.204c-1.414 2.262-1.096 1.754-2.498 3.997l-3.491-2.183c1.384-2.256 1.07-1.744 2.465-4.018zm-21.783 35.506l3.233 2.024c-0.948 1.516-1.547 2.476-2.495 3.992l-3.201-2.003c0.936-1.524 1.528-2.489 2.463-4.013zm72.089 88.407c5.61 5.737 11.285 11.861 12.132 12.862l-2.313 2.091c-0.846-1.001-6.454-7.052-12.046-12.771l2.227-2.182z"/>
</svg>
