<svg width="1255" height="1206" viewBox="0 0 1255 1206" fill="none" xmlns="http://www.w3.org/2000/svg">
<mask id="mask0_637_51" style="mask-type:luminance" maskUnits="userSpaceOnUse" x="0" y="0" width="1255" height="1206">
<path d="M0 -1.89152e-05H1255V1206H0V-1.89152e-05Z" fill="white"/>
</mask>
<g mask="url(#mask0_637_51)">
<path d="M1223.63 396.933C1204.12 345.646 1146.09 547.676 1146.17 602.28C1146.23 656.895 1204.83 858.771 1224.19 807.433C1243.56 756.098 1063.96 875.011 1027.49 916.898C991.029 958.769 900.864 1149.61 950.036 1122.24C999.206 1094.88 782.089 1075.04 726.145 1084.6C670.194 1094.15 473.472 1184.65 529.447 1194.06C585.422 1203.47 432.365 1054.16 383.113 1026.92C333.866 999.686 122.634 947.5 159.22 989.285C195.797 1031.07 178.42 822.154 158.917 770.859C139.413 719.571 12.5076 549.114 12.586 603.731C12.6568 658.332 139.088 487.555 158.454 436.223C177.822 384.882 194.622 175.922 158.152 217.797C121.69 259.673 332.767 206.949 381.943 179.586C431.121 152.218 583.768 2.52339 527.818 12.0769C471.869 21.6329 668.837 111.625 724.816 121.037C780.789 130.45 997.854 110.059 948.604 82.8252C899.359 55.5811 990.039 246.192 1026.62 287.977C1063.21 329.76 1243.13 448.215 1223.63 396.933Z" stroke="url(#paint0_linear_637_51)" stroke-width="5.33333" stroke-miterlimit="10"/>
<path d="M1173.17 360.22C1150.3 313.235 1112.78 509.051 1117.57 560.72C1122.33 612.402 1195.17 798.793 1209.07 748.667C1222.98 698.543 1063.26 825.371 1032.35 867.914C1001.46 910.441 932.57 1098.23 976.747 1068.41C1020.92 1038.6 813.738 1037.11 761.617 1050.6C709.488 1064.09 531.11 1165.39 584.896 1169.84C638.681 1174.29 480.964 1045.17 432.006 1023.31C383.053 1001.45 178.65 968.87 216.874 1005.5C255.09 1042.14 220.644 845.806 197.767 798.813C174.89 751.826 40.1021 600.606 44.8819 652.289C49.6541 703.955 154.592 532.275 168.496 482.154C182.403 432.025 180.297 232.932 149.391 275.464C118.492 317.996 313.709 251.304 357.891 221.495C402.074 191.681 533.639 37.8679 481.511 51.361C429.386 64.8558 623.547 134.351 677.336 138.804C731.118 143.26 934.789 106.691 885.834 84.8359C836.881 62.9712 939.123 236.147 977.346 272.782C1015.57 309.413 1196.05 407.201 1173.17 360.22Z" stroke="url(#paint1_linear_637_51)" stroke-width="5.33333" stroke-miterlimit="10"/>
<path d="M1122.08 330.543C1096.39 287.897 1077.75 476.199 1086.73 524.717C1095.7 573.249 1180.69 743.85 1189.53 695.306C1198.37 646.764 1058.14 779.499 1032.56 822.221C1006.98 864.927 957.967 1048.12 997.207 1016.39C1036.45 984.668 840.241 999.736 792.077 1016.66C743.905 1033.57 583.82 1143.63 635.105 1143.56C686.39 1143.5 526.004 1033.85 477.787 1017.05C429.575 1000.26 233.324 985.691 272.655 1017.32C311.979 1048.95 262.463 865.881 236.764 823.228C211.065 780.581 70.4741 648.193 79.4506 696.723C88.4182 745.241 172.939 574.417 181.778 525.876C190.62 477.328 171.473 289.077 145.888 331.788C120.311 374.498 299.315 295.85 338.56 264.123C377.806 232.393 489.064 76.3572 440.893 93.2752C392.724 110.194 582.464 160.515 633.753 160.449C685.036 160.387 874.636 109.573 826.421 92.785C778.21 75.9879 889.891 231.744 929.221 263.373C968.552 294.999 1147.78 373.185 1122.08 330.543Z" stroke="url(#paint2_linear_637_51)" stroke-width="5.33333" stroke-miterlimit="10"/>
<path d="M1070.93 307.428C1042.93 269.113 1041.52 448.801 1054.2 494.004C1066.87 539.221 1162.01 693.913 1166.19 647.269C1170.37 600.624 1049.1 737.4 1028.57 779.867C1008.04 822.319 977.44 999.595 1011.84 966.442C1046.24 933.296 861.856 963.167 817.732 983.013C773.601 1002.85 631.58 1119.75 680.11 1115.6C728.641 1111.46 567.406 1020.45 520.327 1008.39C473.252 996.337 286.268 998.164 326.216 1024.97C366.156 1051.77 303.523 882.46 275.526 844.14C247.53 805.824 103.07 691.718 115.747 736.933C128.414 782.136 193.684 613.745 197.868 567.104C202.053 520.456 167.712 343.821 147.179 386.277C126.652 428.733 289.283 340.059 323.691 306.911C358.098 273.759 449.947 117.237 405.816 137.08C361.688 156.924 545.591 189.451 594.123 185.308C642.652 181.168 817.709 117.994 770.632 105.942C723.558 93.8813 842.672 232.4 882.619 259.205C922.566 286.005 1098.92 345.739 1070.93 307.428Z" stroke="url(#paint3_linear_637_51)" stroke-width="5.33333" stroke-miterlimit="10"/>
<path d="M1021.47 289.765C991.679 255.732 1005.83 425.898 1021.72 467.669C1037.6 509.454 1140.97 648.282 1140.9 603.806C1140.85 559.33 1037.86 698.421 1022.09 740.244C1006.32 782.053 992.635 952.259 1022.34 918.148C1052.04 884.041 880.109 926.983 840.061 949.274C800.006 971.56 675.671 1093.49 721.242 1085.71C766.814 1077.93 606.382 1004.62 560.789 996.958C515.199 989.292 338.397 1005.9 378.513 1028.09C418.621 1050.27 344.758 895.025 314.96 860.987C285.164 826.953 138.618 730.459 154.511 772.241C170.394 814.013 217.655 649.458 217.596 604.984C217.536 560.503 169.818 396.072 154.045 437.885C138.276 479.698 284.547 382.838 314.253 348.73C343.96 314.618 417.398 159.18 377.343 181.47C337.291 203.762 514.136 219.912 559.709 212.13C605.279 204.351 765.507 130.635 719.916 122.975C674.327 115.306 798.99 236.921 839.105 259.11C879.219 281.296 1051.27 323.795 1021.47 289.765Z" stroke="url(#paint4_linear_637_51)" stroke-width="5.33333" stroke-miterlimit="10"/>
<path d="M973.993 277.109C942.863 247.271 970.914 407.188 989.556 445.455C1008.19 483.736 1117.97 606.896 1114.08 564.81C1110.19 522.723 1024.71 662.551 1013.39 703.386C1002.07 744.208 1003.78 906.377 1028.95 871.732C1054.12 837.091 895.112 891.409 859.131 915.692C823.144 939.971 715.981 1065.25 758.438 1054.26C800.896 1043.27 642.75 986.666 598.941 983.039C555.134 979.414 389.243 1009.2 429.119 1027C468.989 1044.81 385.709 903.76 354.577 873.918C323.445 844.079 176.442 764.42 195.083 802.698C213.714 840.965 244.263 681.473 240.375 639.388C236.486 597.297 177.158 445.478 165.833 486.305C154.513 527.13 284.596 423.826 309.771 389.183C334.945 354.536 391.053 201.589 355.066 225.871C319.082 250.154 487.837 251.368 530.296 240.376C572.753 229.388 718.038 146.877 674.232 143.255C630.427 139.625 758.885 244.8 798.76 262.608C838.635 280.413 1005.12 306.944 973.993 277.109Z" stroke="url(#paint5_linear_637_51)" stroke-width="5.33333" stroke-miterlimit="10"/>
<path d="M928.051 268.102C896.018 242.341 936.343 391.453 957.283 426.185C978.213 460.931 1092.72 568.753 1085.41 529.233C1078.11 489.71 1009.26 628.843 1002.06 668.39C994.867 707.924 1010.46 861.262 1031.3 826.473C1052.13 791.686 906.328 855.744 874.368 881.586C842.402 907.428 751.779 1034.52 791.014 1020.74C830.249 1006.96 675.703 965.973 633.931 966.025C592.161 966.079 437.729 1007.47 477.002 1021.14C516.268 1034.82 425.3 907.965 393.266 882.197C361.232 856.436 215.247 792.744 236.186 827.486C257.116 862.219 272.285 708.846 264.98 669.329C257.673 629.803 188.444 490.845 181.244 530.383C174.049 569.921 288.255 461.805 309.096 427.016C329.935 392.224 369.857 243.013 337.892 268.857C305.929 294.701 465.741 282.423 504.977 268.642C544.21 254.865 674.597 165.218 632.828 165.276C591.057 165.325 721.689 254.642 760.962 268.321C800.233 281.998 960.079 293.861 928.051 268.102Z" stroke="url(#paint6_linear_637_51)" stroke-width="5.33333" stroke-miterlimit="10"/>
<path d="M883.925 262.458C851.391 240.627 902.402 378.535 925.211 409.738C948.012 440.957 1065.67 533.887 1055.35 497.067C1045.03 460.245 991.865 597.396 988.46 635.397C985.056 673.383 1013.02 817.26 1029.75 782.676C1046.47 748.097 913.998 820.322 885.98 847.322C857.954 874.32 783.141 1001.81 819.084 985.647C855.028 969.485 705.238 942.989 665.709 946.364C626.183 949.739 483.597 1001.19 521.943 1011.01C560.282 1020.83 463.261 908.014 430.724 886.178C398.189 864.347 254.544 815.686 277.353 846.899C300.153 878.104 301.294 731.747 290.975 694.929C280.654 658.106 203.165 532.105 199.758 570.097C196.354 608.087 295.123 496.681 311.848 462.099C328.573 427.514 353.497 283.126 325.473 310.128C297.451 337.129 447.636 312.794 483.581 296.631C519.524 280.471 635.195 185.256 595.67 188.634C556.145 192.004 687.468 266.138 725.813 275.96C764.158 285.779 916.456 284.288 883.925 262.458Z" stroke="url(#paint7_linear_637_51)" stroke-width="5.33333" stroke-miterlimit="10"/>
<path d="M840.807 260.487C808.136 242.415 868.295 368.871 892.57 396.586C916.838 424.316 1036.2 502.902 1023.26 468.878C1010.32 434.851 971.817 568.88 971.871 605.113C971.922 641.334 1010.79 775.27 1023.63 741.211C1036.48 707.156 917.335 786.047 893.146 813.829C868.948 841.611 809.131 968.217 841.755 950.062C874.379 931.906 730.336 918.748 693.219 925.088C656.102 931.427 525.594 991.465 562.73 997.709C599.86 1003.95 498.32 904.903 465.646 886.826C432.974 868.754 292.837 834.131 317.113 861.855C341.379 889.574 329.849 750.973 316.911 716.949C303.97 682.921 219.779 569.842 219.828 606.067C219.881 642.292 303.755 529 316.604 494.941C329.452 460.88 340.599 322.251 316.404 350.035C292.211 377.818 432.247 342.838 464.872 324.681C497.496 306.528 598.761 207.214 561.646 213.556C524.53 219.89 655.2 279.601 692.335 285.845C729.471 292.087 873.475 278.558 840.807 260.487Z" stroke="url(#paint8_linear_637_51)" stroke-width="5.33333" stroke-miterlimit="10"/>
<path d="M799.078 261.909C766.6 247.405 834.43 362.294 859.791 386.592C885.147 410.905 1004.88 475.781 989.701 444.61C974.527 413.437 949.636 543.344 952.807 577.629C955.977 611.904 1004.3 735.567 1013.52 702.312C1022.74 669.061 916.785 753.202 896.286 781.419C875.781 809.637 830.079 934.215 859.389 914.436C888.701 894.658 751.247 893.666 716.665 902.618C682.084 911.571 563.747 978.774 599.43 981.73C635.107 984.686 530.477 899.024 497.997 884.515C465.52 870.013 329.914 848.395 355.276 872.702C380.63 897.003 357.775 766.751 342.6 735.581C327.421 704.406 238 604.09 241.168 638.369C244.339 672.647 313.955 558.756 323.18 525.501C332.404 492.243 331.009 360.16 310.506 388.379C290.003 416.598 419.518 372.351 448.829 352.572C478.14 332.796 565.418 230.75 530.84 239.705C496.26 248.653 625.068 294.765 660.75 297.72C696.433 300.672 831.55 276.412 799.078 261.909Z" stroke="url(#paint9_linear_637_51)" stroke-width="5.33333" stroke-miterlimit="10"/>
<path d="M759.571 267.278C727.585 256.136 801.678 359.468 827.773 380.446C853.864 401.438 972.767 453.309 955.717 425.016C938.67 396.723 926.307 521.644 932.262 553.84C938.215 586.025 994.601 699.213 1000.46 667.008C1006.33 634.806 913.3 722.865 896.33 751.201C879.356 779.536 846.838 901.071 872.873 880.021C898.908 858.972 768.739 868.97 736.782 880.194C704.827 891.417 598.625 964.432 632.649 964.391C666.668 964.349 560.266 891.604 528.278 880.459C496.293 869.317 366.094 859.648 392.192 880.635C418.28 901.616 385.428 780.166 368.38 751.874C351.329 723.579 258.059 635.755 264.011 667.944C269.965 700.131 326.035 586.809 331.901 554.602C337.765 522.394 325.064 397.504 308.091 425.841C291.119 454.178 409.878 401.999 435.913 380.948C461.948 359.9 535.755 256.382 503.802 267.607C471.847 278.827 597.723 312.218 631.746 312.175C665.769 312.13 791.553 278.42 759.571 267.278Z" stroke="url(#paint10_linear_637_51)" stroke-width="5.33333" stroke-miterlimit="10"/>
<path d="M722.457 276.116C691.228 268.116 770.249 360.014 796.754 377.79C823.256 395.58 940.253 435.21 921.679 409.791C903.108 384.37 902.17 503.578 910.581 533.574C918.988 563.56 982.104 666.192 984.877 635.248C987.651 604.306 907.199 695.045 893.58 723.212C879.957 751.378 859.656 868.985 882.481 846.994C905.306 825.001 782.978 844.819 753.701 857.984C724.426 871.148 630.209 948.699 662.406 945.952C694.597 943.205 587.633 882.827 556.399 874.825C525.168 866.825 401.117 868.034 427.624 885.818C454.121 903.598 412.566 791.274 393.995 765.857C375.42 740.434 279.584 664.74 287.99 694.729C296.398 724.718 339.698 613.01 342.474 582.063C345.248 551.115 322.468 433.931 308.847 462.1C295.226 490.268 403.121 431.438 425.947 409.443C448.773 387.453 509.703 283.611 480.43 296.778C451.155 309.939 573.159 331.524 605.355 328.777C637.551 326.027 753.685 284.115 722.457 276.116Z" stroke="url(#paint11_linear_637_51)" stroke-width="5.33333" stroke-miterlimit="10"/>
<path d="M688.724 287.555C658.48 282.469 741.183 363.152 767.798 377.867C794.412 392.594 908.551 420.79 888.781 398.212C869.017 375.632 878.402 488.523 888.944 516.241C899.486 543.951 968.061 636.059 968.017 606.553C967.978 577.049 899.657 669.325 889.196 697.064C878.73 724.805 869.65 837.722 889.357 815.093C909.063 792.463 795.001 820.952 768.429 835.741C741.857 850.529 659.374 931.417 689.607 926.256C719.836 921.095 613.404 872.464 583.155 867.377C552.91 862.291 435.614 873.306 462.232 888.025C488.84 902.746 439.835 799.75 420.069 777.173C400.3 754.592 303.08 690.579 313.619 718.294C324.161 746.005 355.514 636.84 355.475 607.333C355.434 577.823 323.778 468.734 313.314 496.476C302.85 524.218 399.893 459.957 419.599 437.326C439.307 414.698 488.023 311.576 461.454 326.366C434.882 341.151 552.205 351.872 582.437 346.71C612.67 341.546 718.967 292.642 688.724 287.555Z" stroke="url(#paint12_linear_637_51)" stroke-width="5.33333" stroke-miterlimit="10"/>
<path d="M658.334 301.131C629.273 298.723 714.494 368.5 740.949 380.309C767.405 392.129 877.853 409.732 857.2 389.937C836.549 370.14 855.157 476.232 867.524 501.625C879.886 527.01 952.722 608.724 950.138 580.802C947.558 552.884 890.852 645.649 883.341 672.734C875.827 699.819 876.963 807.404 893.663 784.421C910.364 761.436 804.871 797.472 780.998 813.584C757.124 829.693 686.033 912.807 714.202 905.517C742.365 898.228 637.449 860.672 608.384 858.264C579.321 855.857 469.264 875.614 495.723 887.428C522.172 899.241 466.921 805.666 446.27 785.872C425.614 766.075 328.091 713.23 340.453 738.619C352.817 764.007 373.084 658.201 370.504 630.279C367.923 602.354 328.564 501.633 321.052 528.719C313.54 555.806 399.842 487.27 416.543 464.284C433.243 441.302 470.463 339.833 446.592 355.943C422.72 372.049 534.676 372.861 562.843 365.57C591.009 358.278 687.393 303.538 658.334 301.131Z" stroke="url(#paint13_linear_637_51)" stroke-width="5.33333" stroke-miterlimit="10"/>
<path d="M630.766 315.83C603.056 315.864 689.718 375.119 715.773 384.189C741.83 393.27 847.874 401.142 826.622 384.051C805.372 366.959 832.124 465.883 846.015 488.93C859.902 511.97 935.873 583.508 931.023 557.29C926.175 531.073 880.502 623.376 875.728 649.607C870.95 675.838 881.294 777.565 895.119 754.484C908.943 731.404 812.212 773.9 791.008 791.047C769.802 808.193 709.683 892.507 735.714 883.366C761.74 874.228 659.211 847.034 631.498 847.067C603.786 847.102 501.331 874.556 527.39 883.63C553.44 892.706 493.087 808.545 471.838 791.455C450.584 774.362 353.737 732.11 367.624 755.155C381.512 778.197 391.576 676.451 386.728 650.232C381.88 624.01 335.953 531.82 331.177 558.052C326.402 584.285 402.172 512.556 415.996 489.473C429.821 466.395 456.302 367.405 435.1 384.55C413.895 401.692 519.918 393.553 545.947 384.412C571.975 375.269 658.474 315.796 630.766 315.83Z" stroke="url(#paint14_linear_637_51)" stroke-width="5.33333" stroke-miterlimit="10"/>
<path d="M605.997 331.429C579.776 333.666 666.899 382.849 692.338 389.36C717.779 395.881 818.816 394.893 797.231 380.41C775.648 365.925 809.489 457.416 824.621 478.122C839.749 498.823 917.81 560.48 910.961 536.053C904.114 511.628 868.844 602.617 866.585 627.82C864.323 653.025 882.878 748.474 893.974 725.531C905.069 702.588 817.185 750.504 798.594 768.419C780.002 786.331 730.371 870.91 754.22 860.187C778.062 849.467 678.688 831.889 652.463 834.125C626.24 836.364 531.644 870.497 557.087 877.013C582.522 883.529 518.154 808.683 496.572 794.199C474.985 779.713 379.689 747.431 394.817 768.136C409.946 788.84 410.704 691.746 403.857 667.318C397.009 642.889 345.601 559.296 343.342 584.501C341.083 609.708 406.61 535.795 417.704 512.851C428.8 489.909 445.332 394.12 426.744 412.033C408.152 429.943 507.79 413.805 531.636 403.082C555.48 392.36 632.217 329.192 605.997 331.429Z" stroke="url(#paint15_linear_637_51)" stroke-width="5.33333" stroke-miterlimit="10"/>
<path d="M583.35 348.073C558.727 352.276 645.417 391.89 670.053 396.028C694.692 400.175 790.226 391.202 768.55 379.212C746.877 367.221 786.786 451.114 802.892 469.506C818.992 487.893 898.181 540.034 889.594 517.461C881.009 494.89 855.469 583.807 855.504 607.84C855.535 631.874 881.32 720.729 889.843 698.132C898.367 675.537 819.323 727.876 803.272 746.31C787.222 764.741 747.539 848.733 769.184 836.688C790.825 824.647 695.264 815.918 670.637 820.121C646.014 824.326 559.43 864.156 584.071 868.297C608.703 872.439 541.337 806.727 519.664 794.737C497.986 782.747 405.019 759.778 421.12 778.169C437.221 796.558 429.572 704.611 420.988 682.037C412.402 659.462 356.548 584.441 356.582 608.475C356.615 632.51 412.261 557.346 420.784 534.75C429.308 512.156 436.7 420.186 420.652 438.618C404.601 457.047 497.506 433.846 519.149 421.801C540.791 409.756 607.97 343.87 583.35 348.073Z" stroke="url(#paint16_linear_637_51)" stroke-width="5.33333" stroke-miterlimit="10"/>
<path d="M562.814 365.542C539.873 371.48 625.328 402.072 649 404.028C672.675 405.993 762.315 389.898 740.766 380.277C719.223 370.653 764.221 446.873 781.047 462.998C797.868 479.118 877.304 522.162 867.233 501.483C857.164 480.805 840.655 566.986 842.758 589.728C844.858 612.471 876.917 694.511 883.036 672.447C889.155 650.386 818.859 706.206 805.259 724.929C791.656 743.65 761.339 826.296 780.784 813.175C800.227 800.057 709.038 799.399 686.094 805.336C663.153 811.274 584.643 855.859 608.319 857.818C631.989 859.777 562.572 802.949 541.028 793.326C519.479 783.703 429.517 769.363 446.339 785.487C463.162 801.609 448.001 715.199 437.932 694.519C427.861 673.838 368.538 607.284 370.64 630.027C372.743 652.77 418.929 577.209 425.048 555.146C431.168 533.084 430.24 445.457 416.64 464.178C403.038 482.896 488.962 453.547 508.407 440.426C527.851 427.305 585.752 359.606 562.814 365.542Z" stroke="url(#paint17_linear_637_51)" stroke-width="5.33333" stroke-miterlimit="10"/>
<path d="M544.778 384.159C523.579 391.604 607.088 413.757 629.659 413.725C652.234 413.7 735.681 391.337 714.46 383.946C693.242 376.551 742.393 445.105 759.707 459.026C777.016 472.944 855.902 507.36 844.589 488.591C833.278 469.823 825.08 552.697 829.03 574.052C832.976 595.408 870.385 670.499 874.275 649.132C878.165 627.766 816.448 686.187 805.189 704.988C793.93 723.787 772.358 804.414 789.631 790.449C806.901 776.488 720.545 783.12 699.342 790.565C678.142 798.01 607.683 846.451 630.26 846.422C652.828 846.393 582.237 798.134 561.019 790.742C539.796 783.349 453.422 776.935 470.731 790.856C488.042 804.775 466.248 724.206 454.937 705.434C443.624 686.663 381.747 628.398 385.697 649.754C389.646 671.11 426.846 595.926 430.735 574.558C434.626 553.193 426.198 470.339 414.94 489.137C403.68 507.934 482.468 473.322 499.741 459.357C517.012 445.393 565.975 376.716 544.778 384.159Z" stroke="url(#paint18_linear_637_51)" stroke-width="5.33333" stroke-miterlimit="10"/>
<path d="M529.177 403.628C509.757 412.36 590.697 426.681 612.055 424.854C633.418 423.035 710.463 395.231 689.743 389.925C669.026 384.615 721.45 445.582 739.034 457.38C756.615 469.174 834.236 495.469 821.912 478.606C809.591 461.744 808.972 540.827 814.55 560.722C820.126 580.619 861.999 648.709 863.839 628.177C865.68 607.648 812.305 667.847 803.27 686.536C794.235 705.223 780.767 783.243 795.91 768.652C811.052 754.066 729.896 767.214 710.471 775.945C691.05 784.679 628.544 836.128 649.906 834.304C671.262 832.482 600.298 792.426 579.58 787.119C558.859 781.811 476.563 782.613 494.144 794.412C511.725 806.206 484.157 731.691 471.836 714.825C459.511 697.961 395.932 647.743 401.51 667.639C407.088 687.537 435.815 613.424 437.655 592.892C439.496 572.363 424.381 494.621 415.347 513.307C406.31 531.993 477.892 492.967 493.035 478.378C508.176 463.787 548.598 394.898 529.177 403.628Z" stroke="url(#paint19_linear_637_51)" stroke-width="5.33333" stroke-miterlimit="10"/>
<path d="M516.487 423.348C498.86 433.157 576.695 440.269 596.751 436.842C616.81 433.42 687.331 400.977 667.264 397.604C647.199 394.227 702.067 447.755 719.724 457.521C737.377 467.283 813.103 485.993 799.987 471.014C786.874 456.037 793.102 530.929 800.095 549.314C807.087 567.701 852.581 628.807 852.554 609.231C852.527 589.655 807.202 650.874 800.26 669.279C793.319 687.684 787.296 762.592 800.37 747.579C813.443 732.571 737.772 751.47 720.141 761.279C702.513 771.089 647.79 824.753 667.851 821.327C687.905 817.904 617.294 785.641 597.23 782.268C577.163 778.893 499.347 786.2 517.002 795.967C534.657 805.731 502.147 737.404 489.033 722.423C475.917 707.442 411.419 664.977 418.412 683.363C425.406 701.75 446.206 629.324 446.179 609.747C446.153 590.172 425.149 517.801 418.209 536.204C411.267 554.607 475.649 511.978 488.723 496.966C501.795 481.953 534.114 413.541 516.487 423.348Z" stroke="url(#paint20_linear_637_51)" stroke-width="5.33333" stroke-miterlimit="10"/>
<path d="M506.536 443.046C490.7 453.732 564.974 454.271 583.66 449.431C602.349 444.597 666.293 408.282 647.011 406.686C627.731 405.087 684.269 451.379 701.821 459.217C719.368 467.051 792.648 478.732 778.944 465.6C765.242 452.469 777.591 522.851 785.792 539.694C793.993 556.538 842.314 610.749 840.601 592.224C838.889 573.7 801.269 635.243 796.286 653.214C791.303 671.184 792.056 742.554 803.136 727.307C814.214 712.063 744.228 735.969 728.388 746.655C712.551 757.341 665.386 812.483 684.076 807.645C702.76 802.809 633.154 777.895 613.875 776.299C594.593 774.702 521.58 787.808 539.13 795.646C556.679 803.482 520.025 741.405 506.323 728.27C492.619 715.138 427.921 680.08 436.123 696.924C444.326 713.767 457.771 643.571 456.058 625.046C454.347 606.522 428.234 539.703 423.252 557.671C418.267 575.639 475.524 530.174 486.604 514.926C497.682 499.678 522.373 432.363 506.536 443.046Z" stroke="url(#paint21_linear_637_51)" stroke-width="5.33333" stroke-miterlimit="10"/>
<path d="M498.801 462.141C484.735 473.513 555.073 468.114 572.339 462.046C589.61 455.985 646.997 416.529 628.612 416.553C610.228 416.574 667.722 455.885 685.009 461.906C702.291 467.924 772.647 473.149 758.546 461.811C744.449 450.475 762.199 516.1 771.412 531.388C780.625 546.676 831.025 594.136 827.808 576.74C824.592 559.346 794.291 620.582 791.125 637.986C787.956 655.39 794.819 722.874 803.991 707.562C813.162 692.254 748.989 720.448 734.918 731.82C720.851 743.193 680.965 799.131 698.236 793.066C715.502 787.003 647.482 768.963 629.099 768.985C610.713 769.007 542.743 787.221 560.028 793.243C577.311 799.263 537.274 743.43 523.175 732.089C509.074 720.751 444.824 692.72 454.037 708.008C463.252 723.298 469.928 655.794 466.711 638.4C463.495 621.005 433.025 559.845 429.858 577.247C426.689 594.648 476.959 547.065 486.13 531.753C495.3 516.44 512.868 450.769 498.801 462.141Z" stroke="url(#paint22_linear_637_51)" stroke-width="5.33333" stroke-miterlimit="10"/>
<path d="M493.175 480.506C480.843 492.388 546.944 481.682 562.763 474.566C578.585 467.455 629.495 425.548 612.098 427.034C594.701 428.516 652.5 461.146 669.379 465.468C686.253 469.789 753.287 469.136 738.965 459.528C724.647 449.92 747.099 510.615 757.136 524.35C767.173 538.086 818.96 578.991 814.416 562.784C809.873 546.578 786.474 606.942 784.977 623.665C783.478 640.387 795.787 703.706 803.147 688.487C810.508 673.27 752.204 705.056 739.869 716.939C727.535 728.823 694.609 784.935 710.43 777.821C726.248 770.709 660.321 759.047 642.925 760.531C625.527 762.016 562.771 784.661 579.648 788.984C596.523 793.306 553.821 743.652 539.501 734.042C525.18 724.433 461.959 703.017 471.996 716.752C482.034 730.49 482.536 666.073 477.992 649.868C473.45 633.661 439.344 578.205 437.846 594.926C436.347 611.647 479.821 562.614 487.181 547.394C494.541 532.173 505.508 468.625 493.175 480.506Z" stroke="url(#paint23_linear_637_51)" stroke-width="5.33333" stroke-miterlimit="10"/>
<path d="M489.046 498.254C478.399 510.48 540.034 495.088 554.391 487.095C568.753 479.107 613.322 435.397 596.986 438.187C580.65 440.973 638.161 467.255 654.507 470.003C670.848 472.749 734.233 466.798 719.851 458.844C705.473 450.891 731.951 506.546 742.632 518.745C753.314 530.946 805.85 565.538 800.154 550.561C794.459 535.585 777.515 594.575 777.538 610.52C777.56 626.465 794.666 685.411 800.32 670.421C805.975 655.434 753.536 690.155 742.885 702.383C732.237 714.61 705.911 770.333 720.271 762.342C734.627 754.352 671.23 748.562 654.896 751.351C638.558 754.139 581.117 780.564 597.462 783.313C613.805 786.059 569.115 742.466 554.734 734.51C540.353 726.557 478.676 711.319 489.359 723.52C500.041 735.721 494.966 674.719 489.27 659.742C483.575 644.767 446.52 594.998 446.543 610.941C446.564 626.885 483.483 577.023 489.137 562.032C494.791 547.042 499.694 486.029 489.046 498.254Z" stroke="url(#paint24_linear_637_51)" stroke-width="5.33333" stroke-miterlimit="10"/>
<path d="M486.29 515.303C477.267 527.721 534.271 508.25 547.169 499.543C560.073 490.84 598.486 445.928 583.266 449.867C568.046 453.805 624.738 474.101 640.445 475.401C656.147 476.7 715.62 466.025 701.324 459.642C687.032 453.259 716.884 503.823 728.045 514.519C739.204 525.216 791.905 553.773 785.224 540.052C778.543 526.332 767.59 583.508 768.987 598.596C770.381 613.685 791.65 668.108 795.708 653.472C799.769 638.84 753.133 675.872 744.107 688.291C735.083 700.71 714.969 755.539 727.872 746.834C740.769 738.131 680.273 737.696 665.054 741.634C649.833 745.572 597.749 775.151 613.454 776.452C629.157 777.751 583.107 740.051 568.812 733.666C554.516 727.282 494.834 717.769 505.994 728.466C517.155 739.163 507.096 681.836 500.416 668.115C493.736 654.397 454.379 610.244 455.775 625.33C457.168 640.418 487.812 590.291 491.871 575.655C495.93 561.018 495.313 502.886 486.29 515.303Z" stroke="url(#paint25_linear_637_51)" stroke-width="5.33333" stroke-miterlimit="10"/>
<path d="M485.062 531.962C477.593 544.433 529.863 521.47 541.32 512.204C552.781 502.941 585.266 457.38 571.201 462.32C557.137 467.258 612.538 481.954 627.513 481.936C642.486 481.916 697.851 467.081 683.771 462.177C669.695 457.274 702.305 502.752 713.788 511.985C725.272 521.221 777.607 544.054 770.101 531.6C762.597 519.148 757.157 574.13 759.779 588.297C762.4 602.466 787.216 652.28 789.796 638.106C792.378 623.934 751.433 662.691 743.962 675.163C736.491 687.634 722.18 741.124 733.641 731.859C745.097 722.597 687.807 726.997 673.743 731.936C659.678 736.875 612.934 769.01 627.909 768.992C642.883 768.973 596.053 736.958 581.975 732.053C567.895 727.148 510.593 722.894 522.076 732.13C533.561 741.365 519.102 687.911 511.597 675.458C504.093 663.007 463.043 624.352 465.663 638.519C468.282 652.687 492.963 602.81 495.544 588.635C498.124 574.461 492.532 519.494 485.062 531.962Z" stroke="url(#paint26_linear_637_51)" stroke-width="5.33333" stroke-miterlimit="10"/>
<path d="M485.243 548.13C479.249 560.527 526.738 534.637 536.783 524.955C546.831 515.277 573.648 469.574 560.764 475.369C547.879 481.16 601.576 490.66 615.747 489.451C629.915 488.241 681.033 469.796 667.285 466.276C653.542 462.756 688.322 503.201 699.986 511.025C711.648 518.853 763.144 536.298 754.969 525.109C746.793 513.921 746.382 566.387 750.085 579.587C753.786 592.787 781.563 637.957 782.784 624.337C784.008 610.718 748.596 650.656 742.601 663.054C736.606 675.451 727.67 727.212 737.718 717.531C747.762 707.853 693.922 716.577 681.038 722.371C668.152 728.162 626.684 762.295 640.855 761.086C655.024 759.876 607.946 733.304 594.2 729.782C580.453 726.261 525.856 726.794 537.521 734.62C549.185 742.446 530.895 693.009 522.719 681.821C514.545 670.634 472.365 637.319 476.065 650.518C479.764 663.717 498.825 614.55 500.047 600.93C501.266 587.31 491.239 535.736 485.243 548.13Z" stroke="url(#paint27_linear_637_51)" stroke-width="5.33333" stroke-miterlimit="10"/>
<path d="M487.026 563.396C482.422 575.604 525.134 547.324 533.805 537.362C542.481 527.403 563.923 482.017 552.228 488.526C540.533 495.032 592.17 499.751 605.477 497.479C618.781 495.206 665.569 473.683 652.256 471.445C638.946 469.208 675.345 504.716 687.058 511.194C698.77 517.674 749.008 530.086 740.306 520.147C731.606 510.209 735.737 559.896 740.379 572.094C745.019 584.292 775.198 624.828 775.181 611.842C775.165 598.857 745.093 639.471 740.488 651.682C735.881 663.889 731.884 713.587 740.56 703.626C749.232 693.667 699.031 706.207 687.336 712.715C675.64 719.222 639.337 754.824 652.643 752.552C665.948 750.279 619.106 728.878 605.793 726.638C592.479 724.4 540.856 729.249 552.569 735.728C564.283 742.206 542.714 696.874 534.012 686.937C525.312 677 482.523 648.826 487.162 661.024C491.801 673.221 505.602 625.174 505.585 612.187C505.566 599.2 491.632 551.188 487.026 563.396Z" stroke="url(#paint28_linear_637_51)" stroke-width="5.33333" stroke-miterlimit="10"/>
<path d="M490.297 577.777C486.992 589.697 524.977 559.534 532.326 549.416C539.678 539.301 556.059 494.643 545.553 501.733C535.045 508.821 584.32 509.179 596.718 505.969C609.114 502.76 651.538 478.668 638.746 477.61C625.956 476.551 663.464 507.26 675.107 512.458C686.749 517.658 735.363 525.408 726.271 516.695C717.18 507.982 725.372 554.675 730.816 565.85C736.259 577.025 768.312 612.987 767.177 600.698C766.043 588.411 741.084 629.239 737.777 641.162C734.47 653.083 734.969 700.433 742.321 690.316C749.67 680.202 703.241 696.063 692.734 703.152C682.225 710.242 650.936 746.822 663.334 743.614C675.729 740.405 629.554 723.877 616.762 722.818C603.97 721.758 555.532 730.455 567.175 735.654C578.819 740.853 554.5 699.668 545.409 690.955C536.319 682.244 493.396 658.985 498.838 670.159C504.279 681.334 513.201 634.765 512.065 622.475C510.929 610.186 493.605 565.857 490.297 577.777Z" stroke="url(#paint29_linear_637_51)" stroke-width="5.33333" stroke-miterlimit="10"/>
<path d="M494.595 590.88C492.493 602.425 525.844 570.857 531.926 560.697C538.014 550.539 549.669 506.972 540.336 514.518C531.003 522.061 577.666 518.479 589.124 514.455C600.578 510.432 638.652 484.257 626.454 484.272C614.259 484.289 652.402 510.366 663.868 514.36C675.334 518.355 722.009 521.821 712.655 514.298C703.3 506.776 715.076 550.314 721.191 560.457C727.304 570.599 760.738 602.083 758.605 590.543C756.473 579.005 736.37 619.63 734.268 631.177C732.164 642.722 736.717 687.493 742.803 677.333C748.886 667.177 706.314 685.883 696.981 693.428C687.646 700.973 661.187 738.081 672.643 734.059C684.097 730.034 638.974 718.068 626.776 718.082C614.579 718.098 569.487 730.182 580.954 734.176C592.421 738.171 565.858 701.128 556.504 693.606C547.151 686.085 504.525 667.488 510.638 677.631C516.75 687.773 521.181 642.99 519.047 631.45C516.913 619.911 496.699 579.337 494.595 590.88Z" stroke="url(#paint30_linear_637_51)" stroke-width="5.33333" stroke-miterlimit="10"/>
<path d="M499.791 602.684C498.796 613.776 527.639 581.247 532.52 571.148C537.406 561.05 544.681 518.892 536.5 526.775C528.317 534.657 572.17 527.554 582.666 522.835C593.159 518.116 626.936 490.314 615.394 491.3C603.854 492.285 642.199 513.93 653.395 516.797C664.591 519.665 709.062 519.232 699.56 512.858C690.059 506.482 704.955 546.75 711.616 555.862C718.275 564.974 752.63 592.11 749.617 581.358C746.605 570.608 731.08 610.655 730.085 621.749C729.089 632.843 737.255 674.852 742.14 664.753C747.023 654.657 708.344 675.747 700.161 683.63C691.977 691.512 670.134 728.737 680.63 724.018C691.124 719.3 647.387 711.564 635.845 712.548C624.303 713.534 582.669 728.557 593.866 731.425C605.063 734.293 576.732 701.35 567.231 694.976C557.732 688.602 515.789 674.394 522.448 683.505C529.106 692.619 529.441 649.884 526.427 639.132C523.413 628.381 500.787 591.591 499.791 602.684Z" stroke="url(#paint31_linear_637_51)" stroke-width="5.33333" stroke-miterlimit="10"/>
<path d="M505.457 613.407C505.473 623.983 529.965 590.905 533.714 580.958C537.468 571.013 540.721 530.536 533.658 538.647C526.592 546.758 567.483 536.547 577.01 531.245C586.533 525.945 616.104 496.946 605.266 498.797C594.43 500.648 632.584 518.081 643.427 519.904C654.268 521.727 696.318 517.779 686.777 512.502C677.236 507.225 694.803 544.149 701.891 552.242C708.979 560.336 743.83 583.283 740.052 573.348C736.275 563.414 725.033 602.548 725.047 613.128C725.06 623.705 736.409 662.812 740.161 652.866C743.912 642.923 709.125 665.959 702.059 674.071C694.994 682.183 677.528 719.149 687.055 713.849C696.58 708.548 654.522 704.706 643.683 706.556C632.845 708.407 594.739 725.938 605.581 727.761C616.426 729.585 586.775 700.662 577.234 695.386C567.695 690.109 526.777 680 533.864 688.093C540.95 696.187 537.585 655.718 533.806 645.783C530.028 635.848 505.445 602.831 505.457 613.407Z" stroke="url(#paint32_linear_637_51)" stroke-width="5.33333" stroke-miterlimit="10"/>
<path d="M511.481 623.089C512.407 633.097 532.736 599.843 535.427 590.132C538.123 580.421 537.714 541.855 531.728 550.094C525.74 558.332 563.559 545.415 572.118 539.639C580.674 533.865 606.161 504.069 596.063 506.684C585.968 509.297 623.578 522.76 633.996 523.622C644.414 524.485 683.869 517.402 674.385 513.167C664.902 508.933 684.707 542.478 692.113 549.574C699.518 556.67 734.477 575.614 730.046 566.512C725.616 557.411 718.349 595.342 719.273 605.353C720.197 615.362 734.307 651.47 737.001 641.758C739.694 632.05 708.756 656.62 702.769 664.858C696.781 673.097 683.438 709.471 691.997 703.697C700.554 697.922 660.421 697.633 650.322 700.246C640.224 702.86 605.672 722.484 616.09 723.345C626.509 724.208 595.957 699.196 586.473 694.961C576.991 690.727 537.395 684.416 544.799 691.51C552.203 698.607 545.532 660.575 541.099 651.473C536.668 642.371 510.558 613.081 511.481 623.089Z" stroke="url(#paint33_linear_637_51)" stroke-width="5.33333" stroke-miterlimit="10"/>
<path d="M517.974 631.966C519.713 641.364 536.087 608.274 537.797 598.87C539.511 589.465 535.801 553 530.846 561.273C525.889 569.546 560.567 554.312 568.17 548.165C575.77 542.02 597.323 511.793 587.991 515.071C578.662 518.347 615.416 528.096 625.351 528.083C635.285 528.071 672.014 518.229 662.673 514.976C653.333 511.722 674.968 541.894 682.587 548.02C690.207 554.146 724.924 569.293 719.946 561.032C714.969 552.771 711.361 589.246 713.098 598.647C714.835 608.046 731.299 641.096 733.011 631.69C734.723 622.288 707.561 648.002 702.605 656.276C697.648 664.549 688.154 700.034 695.756 693.889C703.358 687.743 665.351 690.663 656.02 693.938C646.688 697.215 615.679 718.537 625.613 718.523C635.548 718.511 604.478 697.269 595.138 694.017C585.799 690.764 547.782 687.941 555.402 694.067C563.02 700.194 553.43 664.732 548.451 656.471C543.472 648.211 516.238 622.568 517.974 631.966Z" stroke="url(#paint34_linear_637_51)" stroke-width="5.33333" stroke-miterlimit="10"/>
<path d="M524.757 640.018C527.212 648.774 539.858 616.155 540.666 607.119C541.478 598.083 534.825 563.867 530.848 572.091C526.87 580.315 558.376 563.138 565.041 556.716C571.705 550.295 589.498 519.975 580.949 523.819C572.403 527.662 608.026 533.964 617.427 533.161C626.826 532.36 660.739 520.123 651.618 517.787C642.498 515.452 665.572 542.284 673.311 547.475C681.051 552.666 715.211 564.239 709.789 556.817C704.367 549.395 704.094 584.202 706.548 592.96C709.003 601.718 727.431 631.685 728.242 622.647C729.052 613.613 705.562 640.109 701.584 648.334C697.606 656.558 691.678 690.897 698.342 684.476C705.008 678.054 669.29 683.842 660.741 687.685C652.193 691.528 624.683 714.173 634.083 713.37C643.485 712.568 612.25 694.938 603.131 692.603C594.012 690.267 557.791 690.62 565.529 695.811C573.267 701.004 561.135 668.206 555.712 660.783C550.288 653.363 522.305 631.262 524.757 640.018Z" stroke="url(#paint35_linear_637_51)" stroke-width="5.33333" stroke-miterlimit="10"/>
<path d="M532.045 647.117C535.122 655.208 544.279 623.332 544.266 614.716C544.255 606.099 535.011 574.247 531.956 582.346C528.899 590.446 557.237 571.684 562.991 565.075C568.744 558.469 582.971 528.358 575.211 532.677C567.454 536.993 601.711 540.123 610.538 538.615C619.365 537.109 650.405 522.83 641.572 521.345C632.74 519.86 656.888 543.418 664.661 547.715C672.432 552.013 705.758 560.247 699.987 553.654C694.216 547.062 696.957 580.024 700.035 588.117C703.111 596.21 723.135 623.105 723.123 614.486C723.111 605.872 703.163 632.818 700.107 640.918C697.051 649.017 694.4 681.986 700.154 675.38C705.908 668.771 672.604 677.091 664.845 681.408C657.085 685.726 633.002 709.345 641.829 707.837C650.658 706.33 619.579 692.13 610.747 690.646C601.916 689.161 567.667 692.377 575.438 696.675C583.208 700.972 568.901 670.899 563.128 664.305C557.356 657.714 528.969 639.025 532.045 647.117Z" stroke="url(#paint36_linear_637_51)" stroke-width="5.33333" stroke-miterlimit="10"/>
<path d="M539.686 653.271C543.296 660.683 549.215 629.788 548.46 621.635C547.708 613.481 536.215 584.073 534.022 591.981C531.827 599.889 557.028 579.878 561.905 573.166C566.78 566.456 577.65 536.828 570.678 541.532C563.709 546.235 596.398 546.471 604.622 544.341C612.847 542.214 640.992 526.231 632.504 525.528C624.018 524.826 648.901 545.2 656.627 548.648C664.352 552.097 696.601 557.237 690.571 551.457C684.543 545.678 689.976 576.654 693.587 584.069C697.195 591.483 718.462 615.342 717.707 607.187C716.955 599.036 700.397 626.123 698.204 634.033C696.009 641.941 696.341 673.353 701.217 666.643C706.093 659.931 675.292 670.455 668.321 675.157C661.349 679.861 640.593 704.13 648.816 702.001C657.042 699.873 626.406 688.907 617.919 688.205C609.434 687.502 577.298 693.27 585.023 696.719C592.747 700.168 576.615 672.846 570.585 667.066C564.553 661.286 536.078 645.858 539.686 653.271Z" stroke="url(#paint37_linear_637_51)" stroke-width="5.33333" stroke-miterlimit="10"/>
<path d="M547.424 658.327C551.478 665.054 554.418 635.345 553.001 627.689C551.587 620.033 538.176 593.116 536.782 600.774C535.386 608.433 557.512 587.49 561.549 580.75C565.584 574.012 573.318 545.107 567.126 550.114C560.936 555.119 591.892 552.741 599.492 550.072C607.092 547.404 632.352 530.038 624.258 530.049C616.167 530.059 641.472 547.361 649.08 550.009C656.688 552.658 687.651 554.958 681.446 549.967C675.242 544.977 683.053 573.861 687.11 580.591C691.164 587.32 713.346 608.208 711.929 600.55C710.514 592.896 697.179 619.849 695.784 627.509C694.39 635.168 697.41 664.868 701.445 658.13C705.482 651.391 677.239 663.801 671.047 668.806C664.854 673.812 647.302 698.432 654.901 695.762C662.502 693.094 632.565 685.153 624.472 685.163C616.381 685.174 586.465 693.19 594.073 695.84C601.68 698.489 584.06 673.915 577.854 668.923C571.648 663.934 543.37 651.599 547.424 658.327Z" stroke="url(#paint38_linear_637_51)" stroke-width="5.33333" stroke-miterlimit="10"/>
<path d="M555.234 662.242C559.651 668.285 559.874 639.936 557.872 632.803C555.875 625.67 540.864 601.262 540.204 608.622C539.543 615.981 558.678 594.4 561.918 587.7C565.156 581.002 569.985 553.032 564.556 558.263C559.129 563.492 588.221 558.779 595.184 555.648C602.146 552.518 624.556 534.074 616.897 534.728C609.24 535.382 634.679 549.742 642.108 551.643C649.536 553.545 679.036 553.257 672.735 549.028C666.434 544.799 676.314 571.513 680.734 577.559C685.15 583.605 707.942 601.608 705.942 594.474C703.943 587.342 693.646 613.911 692.985 621.271C692.325 628.631 697.742 656.499 700.981 649.801C704.221 643.102 678.562 657.094 673.133 662.322C667.703 667.553 653.213 692.25 660.174 689.118C667.139 685.988 638.122 680.855 630.464 681.509C622.808 682.162 595.187 692.129 602.614 694.031C610.042 695.934 591.249 674.079 584.946 669.848C578.643 665.621 550.818 656.197 555.234 662.242Z" stroke="url(#paint39_linear_637_51)" stroke-width="5.33333" stroke-miterlimit="10"/>
<path d="M562.797 665.294C567.498 670.662 565.266 643.815 562.757 637.224C560.252 630.632 543.943 608.728 543.953 615.744C543.962 622.761 560.211 600.815 562.7 594.217C565.187 587.621 567.347 560.766 562.66 566.148C557.975 571.529 585.101 564.754 591.42 561.236C597.74 557.72 617.358 538.482 610.166 539.71C602.977 540.939 628.289 552.505 635.483 553.713C642.677 554.922 670.571 552.302 664.243 548.801C657.915 545.301 669.569 569.795 674.272 575.167C678.971 580.536 702.093 595.762 699.585 589.168C697.078 582.578 689.623 608.542 689.632 615.56C689.642 622.577 697.169 648.521 699.658 641.924C702.147 635.326 679.068 650.61 674.382 655.99C669.694 661.372 658.108 685.898 664.427 682.38C670.748 678.864 642.844 676.314 635.654 677.542C628.464 678.771 603.183 690.4 610.376 691.609C617.569 692.819 597.9 673.631 591.571 670.128C585.242 666.629 558.097 659.924 562.797 665.294Z" stroke="url(#paint40_linear_637_51)" stroke-width="5.33333" stroke-miterlimit="10"/>
<path d="M570.033 667.585C574.944 672.292 570.519 647.061 567.577 641.023C564.638 634.984 547.316 615.551 547.93 622.192C548.542 628.832 562.03 606.77 563.817 600.327C565.603 593.886 565.333 568.299 561.36 573.766C557.39 579.231 582.478 570.661 588.156 566.829C593.834 562.999 610.742 543.231 604.042 544.966C597.344 546.7 622.295 555.633 629.208 556.203C636.121 556.775 662.293 552.077 656.003 549.267C649.713 546.457 662.851 568.712 667.765 573.42C672.676 578.128 695.87 590.697 692.928 584.657C689.988 578.62 685.169 603.785 685.782 610.425C686.396 617.066 695.756 641.02 697.542 634.579C699.33 628.136 678.805 644.437 674.833 649.902C670.86 655.369 662.009 679.501 667.686 675.669C673.366 671.838 646.738 671.645 640.038 673.38C633.34 675.114 610.416 688.132 617.329 688.704C624.24 689.277 603.972 672.682 597.681 669.871C591.389 667.063 565.122 662.877 570.033 667.585Z" stroke="url(#paint41_linear_637_51)" stroke-width="5.33333" stroke-miterlimit="10"/>
<path d="M577.054 669.268C582.108 673.331 575.745 649.805 572.441 644.325C569.139 638.844 551.071 621.831 552.225 628.067C553.377 634.302 564.24 612.35 565.376 606.11C566.511 599.873 564.051 575.679 560.763 581.169C557.476 586.656 580.481 576.549 585.524 572.472C590.567 568.395 604.866 548.342 598.675 550.517C592.485 552.692 616.869 559.159 623.46 559.149C630.05 559.141 654.415 552.612 648.22 550.453C642.025 548.295 656.376 568.311 661.433 572.376C666.486 576.441 689.519 586.491 686.216 581.008C682.913 575.528 680.52 599.727 681.673 605.963C682.825 612.199 693.748 634.124 694.883 627.885C696.019 621.646 678 638.706 674.712 644.194C671.423 649.684 665.126 673.226 670.168 669.148C675.213 665.071 649.997 667.007 643.806 669.182C637.616 671.356 617.043 685.499 623.634 685.492C630.225 685.483 609.613 671.392 603.416 669.231C597.221 667.075 572.001 665.203 577.054 669.268Z" stroke="url(#paint42_linear_637_51)" stroke-width="5.33333" stroke-miterlimit="10"/>
<path d="M583.766 670.447C588.898 673.891 580.851 652.133 577.251 647.209C573.654 642.284 555.089 627.621 556.718 633.43C558.345 639.239 566.735 617.6 567.273 611.604C567.809 605.611 563.397 582.911 560.758 588.368C558.12 593.823 579.021 582.427 583.442 578.167C587.863 573.907 599.668 553.792 593.996 556.342C588.325 558.893 611.959 563.074 618.196 562.541C624.432 562.007 646.928 553.89 640.879 552.34C634.83 550.79 650.137 568.591 655.272 572.036C660.405 575.481 683.07 583.159 679.47 578.234C675.873 573.31 675.693 596.402 677.321 602.212C678.949 608.022 691.175 627.902 691.713 621.908C692.25 615.913 676.667 633.493 674.028 638.948C671.388 644.405 667.457 667.186 671.877 662.925C676.301 658.666 652.603 662.504 646.931 665.055C641.262 667.604 623.009 682.627 629.247 682.096C635.483 681.562 614.762 669.867 608.712 668.315C602.663 666.767 578.634 667.003 583.766 670.447Z" stroke="url(#paint43_linear_637_51)" stroke-width="5.33333" stroke-miterlimit="10"/>
<path d="M590.331 671.026C595.485 673.876 585.994 653.926 582.164 649.552C578.335 645.178 559.502 632.778 561.544 638.147C563.584 643.515 569.66 622.368 569.652 616.65C569.643 610.936 563.512 589.803 561.484 595.178C559.458 600.551 578.256 588.103 582.073 583.719C585.891 579.336 595.329 559.36 590.181 562.225C585.034 565.09 607.761 567.167 613.617 566.165C619.473 565.165 640.064 555.693 634.206 554.707C628.347 553.722 644.367 569.35 649.524 572.202C654.679 575.054 676.79 580.517 672.958 576.142C669.13 571.769 670.949 593.637 672.991 599.007C675.033 604.375 688.316 622.216 688.308 616.501C688.3 610.784 675.066 628.661 673.039 634.034C671.012 639.409 669.254 661.281 673.07 656.897C676.889 652.514 654.793 658.033 649.645 660.898C644.498 663.761 628.519 679.431 634.377 678.431C640.233 677.431 619.615 668.01 613.756 667.024C607.897 666.04 585.177 668.174 590.331 671.026Z" stroke="url(#paint44_linear_637_51)" stroke-width="5.33333" stroke-miterlimit="10"/>
<path d="M596.663 671.089C601.787 673.376 591.085 655.25 587.083 651.416C583.083 647.581 564.192 637.345 566.587 642.263C568.98 647.181 572.907 626.684 572.408 621.274C571.907 615.866 564.283 596.355 562.828 601.603C561.373 606.848 578.091 593.572 581.325 589.12C584.561 584.668 591.772 565.012 587.146 568.133C582.523 571.254 604.21 571.411 609.666 569.998C615.122 568.585 633.792 557.982 628.163 557.515C622.534 557.049 639.042 570.565 644.168 572.853C649.292 575.142 670.688 578.553 666.685 574.718C662.685 570.884 666.291 591.434 668.686 596.353C671.081 601.272 685.189 617.1 684.689 611.692C684.189 606.282 673.205 624.253 671.749 629.499C670.294 634.747 670.515 655.587 673.748 651.134C676.985 646.682 656.55 653.664 651.925 656.785C647.301 659.904 633.529 676.003 638.986 674.592C644.442 673.179 624.118 665.905 618.487 665.437C612.858 664.972 591.54 668.801 596.663 671.089Z" stroke="url(#paint45_linear_637_51)" stroke-width="5.33333" stroke-miterlimit="10"/>
<path d="M602.656 670.524C607.702 672.281 596.012 655.979 591.894 652.668C587.778 649.357 569.018 641.172 571.708 645.637C574.397 650.1 576.348 630.39 575.408 625.31C574.469 620.232 565.573 602.373 564.647 607.456C563.722 612.536 578.4 598.642 581.078 594.171C583.756 589.7 588.887 570.524 584.779 573.846C580.672 577.168 601.209 575.59 606.251 573.818C611.293 572.047 628.049 560.528 622.68 560.534C617.313 560.541 634.101 572.018 639.149 573.776C644.195 575.535 664.739 577.06 660.62 573.749C656.504 570.439 661.687 589.601 664.378 594.065C667.068 598.529 681.783 612.387 680.844 607.308C679.905 602.228 671.058 620.109 670.133 625.19C669.208 630.273 671.212 649.977 673.889 645.506C676.568 641.036 657.831 649.268 653.722 652.59C649.615 655.91 637.968 672.242 643.011 670.473C648.052 668.701 628.191 663.434 622.823 663.439C617.455 663.447 597.61 668.766 602.656 670.524Z" stroke="url(#paint46_linear_637_51)" stroke-width="5.33333" stroke-miterlimit="10"/>
<path d="M608.275 669.407C613.202 670.669 600.735 656.17 596.552 653.366C592.372 650.558 573.912 644.305 576.842 648.316C579.772 652.326 579.92 633.518 578.593 628.785C577.267 624.054 567.308 607.861 566.87 612.744C566.433 617.625 579.127 603.308 581.275 598.864C583.425 594.42 586.628 575.864 583.027 579.334C579.426 582.805 598.727 579.679 603.346 577.6C607.964 575.523 622.829 563.288 617.75 563.72C612.671 564.154 629.547 573.681 634.477 574.942C639.403 576.205 658.977 576.015 654.794 573.209C650.613 570.403 657.169 588.125 660.101 592.137C663.03 596.148 678.151 608.091 676.825 603.359C675.498 598.627 668.667 616.253 668.228 621.135C667.791 626.019 671.386 644.507 673.533 640.063C675.685 635.619 658.66 644.9 655.058 648.372C651.457 651.841 641.842 668.224 646.462 666.147C651.081 664.069 631.832 660.665 626.75 661.097C621.671 661.532 603.348 668.144 608.275 669.407Z" stroke="url(#paint47_linear_637_51)" stroke-width="5.33333" stroke-miterlimit="10"/>
<path d="M613.356 667.878C618.127 668.68 605.079 655.951 600.88 653.629C596.681 651.306 578.672 646.856 581.791 650.419C584.909 653.98 583.429 636.17 581.765 631.795C580.102 627.423 569.283 612.891 569.289 617.547C569.296 622.202 580.075 607.642 581.726 603.265C583.377 598.889 584.81 581.073 581.7 584.643C578.592 588.215 596.588 583.72 600.78 581.386C604.972 579.052 617.986 566.29 613.216 567.104C608.447 567.918 625.239 575.591 630.013 576.393C634.785 577.196 653.291 575.459 649.093 573.136C644.893 570.813 652.625 587.064 655.746 590.627C658.863 594.19 674.202 604.289 672.539 599.917C670.876 595.544 665.93 612.768 665.936 617.423C665.941 622.08 670.938 639.292 672.587 634.915C674.24 630.537 658.929 640.677 655.818 644.247C652.71 647.817 645.021 664.087 649.215 661.754C653.407 659.421 634.896 657.73 630.125 658.543C625.356 659.359 608.584 667.075 613.356 667.878Z" stroke="url(#paint48_linear_637_51)" stroke-width="5.33333" stroke-miterlimit="10"/>
<path d="M617.911 666.014C622.495 666.394 609.05 655.386 604.875 653.523C600.702 651.658 583.275 648.879 586.534 652.003C589.791 655.126 586.856 638.387 584.905 634.38C582.954 630.375 571.463 617.482 571.87 621.888C572.277 626.293 581.224 611.656 582.409 607.383C583.595 603.109 583.416 586.135 580.78 589.761C578.147 593.388 594.791 587.703 598.557 585.16C602.323 582.618 613.54 569.505 609.096 570.655C604.652 571.805 621.205 577.731 625.792 578.11C630.377 578.49 647.743 575.373 643.568 573.509C639.394 571.645 648.111 586.409 651.371 589.533C654.629 592.657 670.016 600.994 668.065 596.989C666.115 592.982 662.918 609.677 663.324 614.082C663.73 618.489 669.942 634.38 671.125 630.106C672.313 625.832 658.696 636.646 656.061 640.272C653.426 643.899 647.552 659.907 651.32 657.367C655.086 654.825 637.421 654.697 632.976 655.847C628.533 656.999 613.326 665.635 617.911 666.014Z" stroke="url(#paint49_linear_637_51)" stroke-width="5.33333" stroke-miterlimit="10"/>
<path d="M622.015 663.961C626.386 663.956 612.713 654.607 608.602 653.176C604.492 651.744 587.76 650.501 591.113 653.198C594.465 655.894 590.244 640.287 588.053 636.65C585.862 633.014 573.875 621.727 574.641 625.865C575.406 630.001 582.612 615.437 583.365 611.298C584.119 607.16 582.487 591.11 580.305 594.751C578.125 598.394 593.387 591.688 596.732 588.982C600.077 586.277 609.563 572.974 605.456 574.416C601.35 575.858 617.526 580.149 621.899 580.143C626.271 580.138 642.437 575.806 638.325 574.374C634.215 572.942 643.737 586.221 647.092 588.918C650.443 591.615 665.724 598.282 663.533 594.646C661.342 591.01 659.754 607.064 660.518 611.2C661.283 615.338 668.531 629.883 669.282 625.744C670.038 621.605 658.083 632.923 655.901 636.565C653.72 640.206 649.541 655.824 652.887 653.119C656.233 650.414 639.504 651.699 635.396 653.14C631.291 654.584 617.643 663.967 622.015 663.961Z" stroke="url(#paint50_linear_637_51)" stroke-width="5.33333" stroke-miterlimit="10"/>
<path d="M625.673 661.78C629.81 661.428 616.063 653.669 612.049 652.641C608.036 651.613 592.094 651.767 595.5 654.052C598.904 656.338 593.565 641.904 591.178 638.636C588.791 635.369 576.475 625.64 577.555 629.496C578.636 633.349 584.201 618.993 584.557 615.016C584.914 611.039 581.986 595.98 580.236 599.6C578.486 603.22 592.352 595.66 595.285 592.833C598.218 590.007 606.048 576.663 602.286 578.354C598.524 580.045 614.202 582.819 618.341 582.465C622.478 582.113 637.405 576.727 633.389 575.699C629.377 574.671 639.532 586.48 642.939 588.766C646.344 591.051 661.38 596.145 658.991 592.878C656.605 589.611 656.486 604.931 657.565 608.785C658.645 612.64 666.758 625.829 667.113 621.851C667.471 617.874 657.133 629.537 655.381 633.156C653.631 636.776 651.021 651.889 653.955 649.063C656.888 646.237 641.168 648.784 637.404 650.475C633.643 652.168 621.536 662.134 625.673 661.78Z" stroke="url(#paint51_linear_637_51)" stroke-width="5.33333" stroke-miterlimit="10"/>
<path d="M628.999 659.438C632.883 658.776 619.205 652.526 615.318 651.873C611.431 651.219 596.357 652.634 599.777 654.526C603.196 656.418 596.9 643.182 594.359 640.279C591.819 637.378 579.325 629.151 580.679 632.714C582.034 636.274 586.064 622.245 586.058 618.453C586.053 614.661 581.985 600.642 580.64 604.207C579.296 607.773 591.767 599.515 594.299 596.606C596.831 593.698 603.092 580.446 599.677 582.346C596.263 584.246 611.34 585.623 615.226 584.96C619.111 584.297 632.773 578.012 628.884 577.358C624.997 576.705 635.626 587.073 639.047 588.965C642.468 590.857 657.136 594.481 654.595 591.58C652.054 588.678 653.262 603.185 654.615 606.746C655.969 610.309 664.783 622.146 664.777 618.353C664.773 614.561 655.994 626.42 654.648 629.985C653.303 633.55 652.136 648.06 654.668 645.153C657.2 642.245 642.543 645.906 639.126 647.806C635.713 649.707 625.114 660.102 628.999 659.438Z" stroke="url(#paint52_linear_637_51)" stroke-width="5.33333" stroke-miterlimit="10"/>
<path d="M631.974 656.95C635.593 656.014 622.111 651.187 618.376 650.878C614.64 650.568 600.497 653.107 603.897 654.625C607.295 656.144 600.196 644.118 597.541 641.574C594.887 639.03 582.354 632.238 583.943 635.502C585.532 638.764 588.137 625.167 587.805 621.578C587.473 617.99 582.415 605.046 581.45 608.527C580.485 612.008 591.576 603.201 593.721 600.247C595.868 597.293 600.65 584.253 597.583 586.323C594.516 588.392 608.902 588.497 612.523 587.559C616.143 586.623 628.531 579.589 624.794 579.279C621.059 578.97 632.011 587.937 635.412 589.455C638.812 590.974 653.006 593.236 650.351 590.692C647.697 588.148 650.09 601.782 651.678 605.044C653.266 608.309 662.627 618.809 662.294 615.22C661.963 611.632 654.677 623.554 653.711 627.035C652.745 630.516 652.891 644.341 655.038 641.388C657.183 638.434 643.626 643.065 640.556 645.135C637.49 647.206 628.355 657.887 631.974 656.95Z" stroke="url(#paint53_linear_637_51)" stroke-width="5.33333" stroke-miterlimit="10"/>
<path d="M634.578 654.301C637.922 653.127 624.747 649.631 621.185 649.636C617.624 649.64 604.457 653.168 607.805 654.334C611.152 655.501 603.397 644.686 600.666 642.489C597.935 640.292 585.489 634.862 587.274 637.824C589.059 640.785 590.352 627.709 589.729 624.339C589.106 620.97 583.204 609.123 582.59 612.493C581.977 615.865 591.715 606.647 593.49 603.681C595.267 600.715 598.67 587.993 595.945 590.197C593.22 592.399 606.845 591.353 610.191 590.178C613.536 589.004 624.653 581.361 621.09 581.365C617.529 581.37 628.667 588.984 632.016 590.15C635.364 591.317 648.992 592.329 646.26 590.133C643.53 587.937 646.968 600.649 648.753 603.61C650.537 606.573 660.301 615.765 659.677 612.396C659.055 609.026 653.186 620.889 652.572 624.26C651.958 627.631 653.287 640.703 655.064 637.737C656.839 634.772 644.409 640.233 641.682 642.436C638.959 644.64 631.234 655.475 634.578 654.301Z" stroke="url(#paint54_linear_637_51)" stroke-width="5.33333" stroke-miterlimit="10"/>
<path d="M636.801 651.521C639.865 650.144 627.096 647.884 623.725 648.172C620.355 648.459 608.199 652.846 611.467 653.683C614.736 654.521 606.465 644.902 603.69 643.041C600.916 641.179 588.67 637.03 590.614 639.692C592.558 642.352 592.656 629.874 591.776 626.735C590.896 623.595 584.29 612.852 583.999 616.092C583.71 619.331 592.131 609.833 593.555 606.884C594.982 603.936 597.106 591.626 594.717 593.928C592.328 596.229 605.132 594.155 608.198 592.777C611.262 591.399 621.124 583.281 617.754 583.569C614.384 583.857 625.58 590.177 628.849 591.014C632.119 591.852 645.104 591.725 642.329 589.864C639.556 588.003 643.906 599.76 645.849 602.421C647.793 605.083 657.825 613.005 656.944 609.866C656.066 606.726 651.533 618.419 651.242 621.659C650.952 624.899 653.337 637.164 654.762 634.216C656.187 631.268 644.893 637.426 642.503 639.728C640.116 642.029 633.739 652.899 636.801 651.521Z" stroke="url(#paint55_linear_637_51)" stroke-width="5.33333" stroke-miterlimit="10"/>
<path d="M638.567 648.657C641.348 647.11 629.068 645.987 625.903 646.527C622.739 647.068 611.611 652.186 614.777 652.718C617.943 653.251 609.286 644.806 606.5 643.265C603.715 641.724 591.767 638.772 593.837 641.137C595.906 643.499 594.923 631.682 593.819 628.781C592.717 625.881 585.539 616.239 585.543 619.327C585.548 622.417 592.699 612.758 593.794 609.854C594.889 606.95 595.839 595.131 593.777 597.5C591.713 599.868 603.653 596.886 606.435 595.338C609.216 593.79 617.85 585.323 614.685 585.864C611.52 586.404 622.661 591.494 625.827 592.026C628.994 592.559 641.271 591.406 638.485 589.866C635.7 588.325 640.83 599.105 642.898 601.468C644.967 603.834 655.145 610.533 654.041 607.632C652.938 604.731 649.657 616.157 649.66 619.246C649.664 622.335 652.978 633.753 654.074 630.85C655.168 627.947 645.01 634.673 642.946 637.042C640.885 639.41 635.787 650.204 638.567 648.657Z" stroke="url(#paint56_linear_637_51)" stroke-width="5.33333" stroke-miterlimit="10"/>
<path d="M639.891 645.836C642.389 644.151 630.671 644.065 627.722 644.828C624.775 645.591 614.685 651.321 617.727 651.572C620.769 651.825 611.848 644.521 609.079 643.285C606.31 642.048 594.749 640.205 596.911 642.278C599.073 644.349 597.125 633.243 595.83 630.586C594.537 627.929 586.913 619.375 587.183 622.298C587.454 625.221 593.389 615.511 594.175 612.675C594.961 609.841 594.842 598.579 593.094 600.985C591.346 603.39 602.388 599.618 604.888 597.931C607.387 596.246 614.829 587.546 611.879 588.309C608.931 589.072 619.913 593.003 622.955 593.255C625.998 593.507 637.518 591.44 634.749 590.203C631.981 588.967 637.764 598.761 639.925 600.833C642.086 602.907 652.295 608.437 651 605.779C649.707 603.122 647.586 614.196 647.856 617.119C648.126 620.042 652.245 630.584 653.032 627.749C653.817 624.915 644.784 632.089 643.034 634.495C641.288 636.9 637.393 647.522 639.891 645.836Z" stroke="url(#paint57_linear_637_51)" stroke-width="5.33333" stroke-miterlimit="10"/>
<path d="M640.863 643.104C643.082 641.311 631.986 642.163 629.261 643.119C626.536 644.076 617.481 650.301 620.382 650.297C623.283 650.294 614.211 644.092 611.484 643.142C608.756 642.192 597.657 641.368 599.881 643.157C602.106 644.946 599.305 634.59 597.851 632.179C596.398 629.766 588.446 622.278 588.953 625.022C589.462 627.768 594.242 618.106 594.741 615.359C595.242 612.614 594.159 601.967 592.711 604.382C591.264 606.797 601.389 602.349 603.61 600.554C605.829 598.76 612.122 589.934 609.397 590.891C606.673 591.847 617.405 594.694 620.306 594.691C623.207 594.687 633.931 591.814 631.204 590.864C628.477 589.914 634.794 598.723 637.018 600.512C639.242 602.302 649.381 606.724 647.926 604.312C646.474 601.899 645.42 612.549 645.927 615.294C646.435 618.039 651.241 627.688 651.742 624.943C652.24 622.197 644.31 629.706 642.862 632.122C641.416 634.537 638.645 644.899 640.863 643.104Z" stroke="url(#paint58_linear_637_51)" stroke-width="5.33333" stroke-miterlimit="10"/>
<path d="M641.515 640.487C643.46 638.614 633.032 640.302 630.536 641.424C628.039 642.546 620.007 649.159 622.752 648.924C625.496 648.691 616.377 643.542 613.714 642.86C611.051 642.178 600.475 642.281 602.735 643.797C604.994 645.313 601.451 635.736 599.868 633.569C598.284 631.402 590.113 624.948 590.83 627.504C591.548 630.063 595.239 620.538 595.475 617.899C595.712 615.262 593.77 605.271 592.608 607.672C591.446 610.073 600.645 605.058 602.592 603.182C604.538 601.308 609.733 592.455 607.237 593.577C604.741 594.699 615.143 596.539 617.888 596.305C620.633 596.071 630.535 592.498 627.872 591.816C625.209 591.134 631.946 598.968 634.206 600.484C636.464 602.002 646.441 605.379 644.857 603.213C643.274 601.045 643.195 611.207 643.91 613.765C644.627 616.323 650.008 625.071 650.246 622.433C650.481 619.796 643.622 627.533 642.46 629.934C641.3 632.335 639.569 642.361 641.515 640.487Z" stroke="url(#paint59_linear_637_51)" stroke-width="5.33333" stroke-miterlimit="10"/>
<path d="M641.925 637.996C643.605 636.068 633.881 638.496 631.616 639.757C629.35 641.017 622.317 647.914 624.895 647.472C627.472 647.034 618.398 642.887 615.819 642.454C613.24 642.019 603.24 642.958 605.509 644.214C607.778 645.468 603.6 636.687 601.915 634.762C600.229 632.837 591.94 627.38 592.839 629.742C593.739 632.106 596.411 622.798 596.407 620.282C596.404 617.767 593.705 608.467 592.813 610.831C591.92 613.196 600.194 607.717 601.875 605.788C603.555 603.859 607.709 595.067 605.443 596.328C603.177 597.588 613.18 598.502 615.758 598.062C618.336 597.622 627.399 593.453 624.82 593.02C622.241 592.586 629.293 599.464 631.561 600.719C633.829 601.975 643.562 604.378 641.875 602.454C640.192 600.528 640.992 610.152 641.889 612.516C642.789 614.879 648.634 622.73 648.631 620.215C648.627 617.701 642.803 625.568 641.91 627.934C641.019 630.298 640.245 639.924 641.925 637.996Z" stroke="url(#paint60_linear_637_51)" stroke-width="5.33333" stroke-miterlimit="10"/>
<path d="M642.097 635.567C643.521 633.609 634.527 636.681 632.492 638.054C630.456 639.427 624.395 646.513 626.797 645.891C629.197 645.271 620.253 642.068 617.775 641.863C615.296 641.658 605.913 643.342 608.17 644.35C610.425 645.357 605.714 637.379 603.953 635.691C602.192 634.003 593.878 629.498 594.931 631.661C595.987 633.827 597.714 624.806 597.493 622.425C597.274 620.045 593.918 611.458 593.278 613.767C592.637 616.076 599.995 610.233 601.419 608.273C602.843 606.314 606.017 597.663 603.981 599.036C601.945 600.409 611.491 600.478 613.892 599.856C616.294 599.235 624.512 594.569 622.033 594.364C619.556 594.159 626.822 600.106 629.076 601.115C631.333 602.123 640.75 603.622 638.988 601.935C637.228 600.246 638.815 609.291 639.868 611.456C640.923 613.621 647.131 620.587 646.912 618.207C646.692 615.827 641.857 623.736 641.216 626.046C640.576 628.354 640.674 637.526 642.097 635.567Z" stroke="url(#paint61_linear_637_51)" stroke-width="5.33333" stroke-miterlimit="10"/>
<path d="M642.052 633.243C643.23 631.276 634.984 634.9 633.175 636.361C631.368 637.822 626.242 645.01 628.461 644.231C630.68 643.453 621.939 641.133 619.576 641.137C617.213 641.14 608.478 643.48 610.7 644.254C612.921 645.028 607.775 637.852 605.964 636.395C604.151 634.938 595.894 631.336 597.078 633.3C598.264 635.265 599.121 626.59 598.708 624.354C598.294 622.12 594.379 614.26 593.972 616.496C593.563 618.732 600.024 612.617 601.203 610.649C602.381 608.682 604.64 600.242 602.832 601.703C601.023 603.165 610.063 602.471 612.282 601.692C614.501 600.912 621.877 595.842 619.514 595.845C617.152 595.848 624.54 600.899 626.761 601.673C628.982 602.448 638.024 603.118 636.212 601.662C634.401 600.203 636.681 608.637 637.865 610.602C639.05 612.567 645.526 618.665 645.113 616.43C644.699 614.196 640.805 622.065 640.398 624.303C639.991 626.538 640.873 635.211 642.052 633.243Z" stroke="url(#paint62_linear_637_51)" stroke-width="5.33333" stroke-miterlimit="10"/>
<path d="M641.786 630.941C642.732 628.987 635.24 633.071 633.655 634.598C632.07 636.125 627.838 643.336 629.871 642.421C631.904 641.508 623.431 640.009 621.196 640.2C618.959 640.391 610.894 643.301 613.064 643.856C615.233 644.412 609.745 638.03 607.904 636.796C606.064 635.561 597.939 632.808 599.228 634.573C600.52 636.339 600.584 628.061 600 625.978C599.416 623.895 595.033 616.769 594.841 618.917C594.647 621.066 600.234 614.765 601.181 612.808C602.126 610.853 603.537 602.686 601.952 604.214C600.366 605.74 608.861 604.364 610.894 603.45C612.927 602.536 619.47 597.151 617.234 597.342C614.999 597.532 622.427 601.724 624.595 602.281C626.763 602.837 635.379 602.752 633.538 601.517C631.699 600.282 634.583 608.082 635.873 609.847C637.164 611.612 643.817 616.869 643.234 614.786C642.65 612.705 639.644 620.462 639.45 622.612C639.258 624.76 640.841 632.897 641.786 630.941Z" stroke="url(#paint63_linear_637_51)" stroke-width="5.33333" stroke-miterlimit="10"/>
<path d="M641.272 628.789C641.999 626.864 635.261 631.326 633.892 632.897C632.524 634.468 629.14 641.629 630.986 640.602C632.831 639.576 624.683 638.831 622.583 639.19C620.484 639.548 613.102 642.943 615.203 643.296C617.303 643.65 611.56 638.047 609.711 637.025C607.864 636.003 599.937 634.045 601.31 635.612C602.684 637.181 602.031 629.341 601.299 627.417C600.567 625.492 595.805 619.096 595.809 621.145C595.81 623.194 600.555 616.786 601.282 614.859C602.008 612.933 602.64 605.091 601.271 606.664C599.902 608.234 607.822 606.256 609.668 605.229C611.513 604.202 617.241 598.586 615.142 598.945C613.043 599.302 620.434 602.679 622.533 603.033C624.633 603.387 632.78 602.62 630.931 601.599C629.084 600.576 632.486 607.728 633.859 609.296C635.232 610.864 641.982 615.309 641.251 613.385C640.518 611.461 638.342 619.042 638.344 621.091C638.348 623.14 640.546 630.715 641.272 628.789Z" stroke="url(#paint64_linear_637_51)" stroke-width="5.33333" stroke-miterlimit="10"/>
<path d="M640.498 626.809C641.02 624.929 635.028 629.688 633.868 631.284C632.708 632.879 630.123 639.926 631.78 638.806C633.439 637.689 625.664 637.632 623.708 638.139C621.752 638.645 615.058 642.446 617.077 642.613C619.095 642.78 613.176 637.935 611.339 637.115C609.502 636.294 601.832 635.071 603.266 636.446C604.702 637.821 603.409 630.454 602.55 628.691C601.692 626.927 596.634 621.253 596.813 623.192C596.992 625.131 600.93 618.689 601.452 616.807C601.973 614.928 601.895 607.456 600.735 609.053C599.575 610.648 606.9 608.146 608.558 607.028C610.216 605.908 615.154 600.137 613.197 600.643C611.242 601.149 618.528 603.756 620.545 603.925C622.563 604.092 630.207 602.719 628.369 601.899C626.533 601.078 630.368 607.576 631.803 608.951C633.238 610.326 640.008 613.996 639.151 612.232C638.292 610.47 636.886 617.818 637.064 619.757C637.243 621.695 639.977 628.69 640.498 626.809Z" stroke="url(#paint65_linear_637_51)" stroke-width="5.33333" stroke-miterlimit="10"/>
<path d="M639.576 625.023C639.908 623.203 634.647 628.183 633.687 629.786C632.726 631.387 630.887 638.261 632.359 637.071C633.832 635.882 626.47 636.446 624.662 637.082C622.854 637.716 616.847 641.845 618.772 641.844C620.696 641.84 614.677 637.726 612.868 637.097C611.059 636.466 603.695 635.919 605.17 637.106C606.648 638.293 604.789 631.424 603.825 629.823C602.86 628.223 597.585 623.255 597.922 625.076C598.257 626.896 601.429 620.487 601.761 618.665C602.093 616.844 601.375 609.779 600.414 611.382C599.454 612.985 606.171 610.034 607.644 608.844C609.117 607.653 613.292 601.797 611.484 602.432C609.677 603.067 616.797 604.955 618.721 604.953C620.645 604.952 627.76 603.044 625.95 602.414C624.142 601.783 628.332 607.627 629.808 608.815C631.284 610.001 638.008 612.936 637.045 611.335C636.081 609.736 635.382 616.802 635.718 618.623C636.055 620.443 639.244 626.844 639.576 625.023Z" stroke="url(#paint66_linear_637_51)" stroke-width="5.33333" stroke-miterlimit="10"/>
<path d="M638.505 623.429C638.662 621.681 634.112 626.812 633.342 628.405C632.57 629.997 631.422 636.65 632.713 635.406C634.004 634.163 627.085 635.283 625.429 636.028C623.773 636.773 618.444 641.159 620.265 641.004C622.086 640.848 616.036 637.433 614.269 636.981C612.503 636.528 605.486 636.596 606.985 637.602C608.485 638.608 606.134 632.255 605.084 630.817C604.033 629.379 598.613 625.098 599.088 626.794C599.563 628.49 602.012 622.172 602.17 620.421C602.327 618.672 601.038 612.042 600.268 613.636C599.497 615.229 605.599 611.902 606.891 610.658C608.181 609.414 611.629 603.541 609.973 604.285C608.317 605.03 615.217 606.25 617.038 606.096C618.859 605.941 625.429 603.569 623.662 603.117C621.896 602.664 626.365 607.861 627.864 608.867C629.365 609.874 635.979 612.115 634.931 610.676C633.879 609.241 633.827 615.983 634.303 617.679C634.778 619.376 638.348 625.18 638.505 623.429Z" stroke="url(#paint67_linear_637_51)" stroke-width="5.33333" stroke-miterlimit="10"/>
<path d="M637.369 622.02C637.367 620.352 633.503 625.571 632.911 627.14C632.318 628.708 631.805 635.095 632.919 633.815C634.035 632.536 627.583 634.147 626.079 634.984C624.576 635.82 619.911 640.395 621.621 640.104C623.331 639.811 617.311 637.06 615.6 636.773C613.889 636.486 607.255 637.108 608.759 637.941C610.266 638.773 607.494 632.948 606.376 631.671C605.258 630.394 599.759 626.772 600.355 628.341C600.951 629.908 602.725 623.733 602.722 622.064C602.72 620.396 600.93 614.225 600.337 615.794C599.746 617.363 605.234 613.729 606.349 612.449C607.464 611.169 610.22 605.336 608.717 606.173C607.214 607.009 613.85 607.615 615.56 607.323C617.269 607.032 623.282 604.265 621.571 603.978C619.861 603.689 624.538 608.252 626.043 609.086C627.55 609.918 634.003 611.514 632.887 610.235C631.768 608.96 632.3 615.345 632.896 616.913C633.493 618.48 637.371 623.689 637.369 622.02Z" stroke="url(#paint68_linear_637_51)" stroke-width="5.33333" stroke-miterlimit="10"/>
</g>
<defs>
<linearGradient id="paint0_linear_637_51" x1="619.115" y1="1194.48" x2="619.115" y2="11.639" gradientUnits="userSpaceOnUse">
<stop stop-color="#5211A9"/>
<stop offset="0.494792" stop-color="#8016D1"/>
<stop offset="1" stop-color="#E039E0"/>
</linearGradient>
<linearGradient id="paint1_linear_637_51" x1="627.344" y1="1169.95" x2="627.344" y2="50.5248" gradientUnits="userSpaceOnUse">
<stop stop-color="#5211A9"/>
<stop offset="0.494792" stop-color="#8016D1"/>
<stop offset="1" stop-color="#E039E0"/>
</linearGradient>
<linearGradient id="paint2_linear_637_51" x1="634.484" y1="1143.56" x2="634.484" y2="91.5222" gradientUnits="userSpaceOnUse">
<stop stop-color="#5211A9"/>
<stop offset="0.494792" stop-color="#8016D1"/>
<stop offset="1" stop-color="#E039E0"/>
</linearGradient>
<linearGradient id="paint3_linear_637_51" x1="640.626" y1="1115.71" x2="640.626" y2="105.2" gradientUnits="userSpaceOnUse">
<stop stop-color="#5211A9"/>
<stop offset="0.494792" stop-color="#8016D1"/>
<stop offset="1" stop-color="#E039E0"/>
</linearGradient>
<linearGradient id="paint4_linear_637_51" x1="646.882" y1="1086.06" x2="646.882" y2="122.628" gradientUnits="userSpaceOnUse">
<stop stop-color="#5211A9"/>
<stop offset="0.494792" stop-color="#8016D1"/>
<stop offset="1" stop-color="#E039E0"/>
</linearGradient>
<linearGradient id="paint5_linear_637_51" x1="639.659" y1="1054.95" x2="639.659" y2="143.163" gradientUnits="userSpaceOnUse">
<stop stop-color="#5211A9"/>
<stop offset="0.494792" stop-color="#8016D1"/>
<stop offset="1" stop-color="#E039E0"/>
</linearGradient>
<linearGradient id="paint6_linear_637_51" x1="633.334" y1="1022.17" x2="633.334" y2="165.276" gradientUnits="userSpaceOnUse">
<stop stop-color="#5211A9"/>
<stop offset="0.494792" stop-color="#8016D1"/>
<stop offset="1" stop-color="#E039E0"/>
</linearGradient>
<linearGradient id="paint7_linear_637_51" x1="627.831" y1="1011.62" x2="627.831" y2="188.546" gradientUnits="userSpaceOnUse">
<stop stop-color="#5211A9"/>
<stop offset="0.494792" stop-color="#8016D1"/>
<stop offset="1" stop-color="#E039E0"/>
</linearGradient>
<linearGradient id="paint8_linear_637_51" x1="622.213" y1="997.992" x2="622.213" y2="213.265" gradientUnits="userSpaceOnUse">
<stop stop-color="#5211A9"/>
<stop offset="0.494792" stop-color="#8016D1"/>
<stop offset="1" stop-color="#E039E0"/>
</linearGradient>
<linearGradient id="paint9_linear_637_51" x1="627.587" y1="981.805" x2="627.587" y2="239.15" gradientUnits="userSpaceOnUse">
<stop stop-color="#5211A9"/>
<stop offset="0.494792" stop-color="#8016D1"/>
<stop offset="1" stop-color="#E039E0"/>
</linearGradient>
<linearGradient id="paint10_linear_637_51" x1="632.233" y1="964.391" x2="632.233" y2="266.44" gradientUnits="userSpaceOnUse">
<stop stop-color="#5211A9"/>
<stop offset="0.494792" stop-color="#8016D1"/>
<stop offset="1" stop-color="#E039E0"/>
</linearGradient>
<linearGradient id="paint11_linear_637_51" x1="636.208" y1="946.023" x2="636.208" y2="275.624" gradientUnits="userSpaceOnUse">
<stop stop-color="#5211A9"/>
<stop offset="0.494792" stop-color="#8016D1"/>
<stop offset="1" stop-color="#E039E0"/>
</linearGradient>
<linearGradient id="paint12_linear_637_51" x1="640.272" y1="926.492" x2="640.272" y2="287.325" gradientUnits="userSpaceOnUse">
<stop stop-color="#5211A9"/>
<stop offset="0.494792" stop-color="#8016D1"/>
<stop offset="1" stop-color="#E039E0"/>
</linearGradient>
<linearGradient id="paint13_linear_637_51" x1="635.397" y1="905.969" x2="635.397" y2="301.07" gradientUnits="userSpaceOnUse">
<stop stop-color="#5211A9"/>
<stop offset="0.494792" stop-color="#8016D1"/>
<stop offset="1" stop-color="#E039E0"/>
</linearGradient>
<linearGradient id="paint14_linear_637_51" x1="631.103" y1="884.312" x2="631.103" y2="315.83" gradientUnits="userSpaceOnUse">
<stop stop-color="#5211A9"/>
<stop offset="0.494792" stop-color="#8016D1"/>
<stop offset="1" stop-color="#E039E0"/>
</linearGradient>
<linearGradient id="paint15_linear_637_51" x1="627.336" y1="877.414" x2="627.336" y2="331.371" gradientUnits="userSpaceOnUse">
<stop stop-color="#5211A9"/>
<stop offset="0.494792" stop-color="#8016D1"/>
<stop offset="1" stop-color="#E039E0"/>
</linearGradient>
<linearGradient id="paint16_linear_637_51" x1="623.533" y1="868.484" x2="623.533" y2="347.88" gradientUnits="userSpaceOnUse">
<stop stop-color="#5211A9"/>
<stop offset="0.494792" stop-color="#8016D1"/>
<stop offset="1" stop-color="#E039E0"/>
</linearGradient>
<linearGradient id="paint17_linear_637_51" x1="626.999" y1="857.867" x2="626.999" y2="365.174" gradientUnits="userSpaceOnUse">
<stop stop-color="#5211A9"/>
<stop offset="0.494792" stop-color="#8016D1"/>
<stop offset="1" stop-color="#E039E0"/>
</linearGradient>
<linearGradient id="paint18_linear_637_51" x1="629.983" y1="846.422" x2="629.983" y2="383.39" gradientUnits="userSpaceOnUse">
<stop stop-color="#5211A9"/>
<stop offset="0.494792" stop-color="#8016D1"/>
<stop offset="1" stop-color="#E039E0"/>
</linearGradient>
<linearGradient id="paint19_linear_637_51" x1="632.525" y1="834.352" x2="632.525" y2="389.598" gradientUnits="userSpaceOnUse">
<stop stop-color="#5211A9"/>
<stop offset="0.494792" stop-color="#8016D1"/>
<stop offset="1" stop-color="#E039E0"/>
</linearGradient>
<linearGradient id="paint20_linear_637_51" x1="635.121" y1="821.484" x2="635.121" y2="397.451" gradientUnits="userSpaceOnUse">
<stop stop-color="#5211A9"/>
<stop offset="0.494792" stop-color="#8016D1"/>
<stop offset="1" stop-color="#E039E0"/>
</linearGradient>
<linearGradient id="paint21_linear_637_51" x1="631.795" y1="807.945" x2="631.795" y2="406.645" gradientUnits="userSpaceOnUse">
<stop stop-color="#5211A9"/>
<stop offset="0.494792" stop-color="#8016D1"/>
<stop offset="1" stop-color="#E039E0"/>
</linearGradient>
<linearGradient id="paint22_linear_637_51" x1="628.835" y1="793.695" x2="628.835" y2="416.553" gradientUnits="userSpaceOnUse">
<stop stop-color="#5211A9"/>
<stop offset="0.494792" stop-color="#8016D1"/>
<stop offset="1" stop-color="#E039E0"/>
</linearGradient>
<linearGradient id="paint23_linear_637_51" x1="626.253" y1="789.25" x2="626.253" y2="426.995" gradientUnits="userSpaceOnUse">
<stop stop-color="#5211A9"/>
<stop offset="0.494792" stop-color="#8016D1"/>
<stop offset="1" stop-color="#E039E0"/>
</linearGradient>
<linearGradient id="paint24_linear_637_51" x1="623.644" y1="783.438" x2="623.644" y2="438.059" gradientUnits="userSpaceOnUse">
<stop stop-color="#5211A9"/>
<stop offset="0.494792" stop-color="#8016D1"/>
<stop offset="1" stop-color="#E039E0"/>
</linearGradient>
<linearGradient id="paint25_linear_637_51" x1="625.848" y1="776.484" x2="625.848" y2="449.623" gradientUnits="userSpaceOnUse">
<stop stop-color="#5211A9"/>
<stop offset="0.494792" stop-color="#8016D1"/>
<stop offset="1" stop-color="#E039E0"/>
</linearGradient>
<linearGradient id="paint26_linear_637_51" x1="627.728" y1="768.992" x2="627.728" y2="461.808" gradientUnits="userSpaceOnUse">
<stop stop-color="#5211A9"/>
<stop offset="0.494792" stop-color="#8016D1"/>
<stop offset="1" stop-color="#E039E0"/>
</linearGradient>
<linearGradient id="paint27_linear_637_51" x1="629.325" y1="761.117" x2="629.325" y2="466.059" gradientUnits="userSpaceOnUse">
<stop stop-color="#5211A9"/>
<stop offset="0.494792" stop-color="#8016D1"/>
<stop offset="1" stop-color="#E039E0"/>
</linearGradient>
<linearGradient id="paint28_linear_637_51" x1="630.93" y1="752.656" x2="630.93" y2="471.344" gradientUnits="userSpaceOnUse">
<stop stop-color="#5211A9"/>
<stop offset="0.494792" stop-color="#8016D1"/>
<stop offset="1" stop-color="#E039E0"/>
</linearGradient>
<linearGradient id="paint29_linear_637_51" x1="628.65" y1="743.812" x2="628.65" y2="477.583" gradientUnits="userSpaceOnUse">
<stop stop-color="#5211A9"/>
<stop offset="0.494792" stop-color="#8016D1"/>
<stop offset="1" stop-color="#E039E0"/>
</linearGradient>
<linearGradient id="paint30_linear_637_51" x1="626.602" y1="734.477" x2="626.602" y2="484.272" gradientUnits="userSpaceOnUse">
<stop stop-color="#5211A9"/>
<stop offset="0.494792" stop-color="#8016D1"/>
<stop offset="1" stop-color="#E039E0"/>
</linearGradient>
<linearGradient id="paint31_linear_637_51" x1="624.784" y1="731.602" x2="624.784" y2="491.275" gradientUnits="userSpaceOnUse">
<stop stop-color="#5211A9"/>
<stop offset="0.494792" stop-color="#8016D1"/>
<stop offset="1" stop-color="#E039E0"/>
</linearGradient>
<linearGradient id="paint32_linear_637_51" x1="622.95" y1="727.844" x2="622.95" y2="498.713" gradientUnits="userSpaceOnUse">
<stop stop-color="#5211A9"/>
<stop offset="0.494792" stop-color="#8016D1"/>
<stop offset="1" stop-color="#E039E0"/>
</linearGradient>
<linearGradient id="paint33_linear_637_51" x1="624.312" y1="723.367" x2="624.312" y2="506.521" gradientUnits="userSpaceOnUse">
<stop stop-color="#5211A9"/>
<stop offset="0.494792" stop-color="#8016D1"/>
<stop offset="1" stop-color="#E039E0"/>
</linearGradient>
<linearGradient id="paint34_linear_637_51" x1="625.492" y1="718.523" x2="625.492" y2="514.731" gradientUnits="userSpaceOnUse">
<stop stop-color="#5211A9"/>
<stop offset="0.494792" stop-color="#8016D1"/>
<stop offset="1" stop-color="#E039E0"/>
</linearGradient>
<linearGradient id="paint35_linear_637_51" x1="626.434" y1="713.391" x2="626.434" y2="517.644" gradientUnits="userSpaceOnUse">
<stop stop-color="#5211A9"/>
<stop offset="0.494792" stop-color="#8016D1"/>
<stop offset="1" stop-color="#E039E0"/>
</linearGradient>
<linearGradient id="paint36_linear_637_51" x1="627.425" y1="707.906" x2="627.425" y2="521.278" gradientUnits="userSpaceOnUse">
<stop stop-color="#5211A9"/>
<stop offset="0.494792" stop-color="#8016D1"/>
<stop offset="1" stop-color="#E039E0"/>
</linearGradient>
<linearGradient id="paint37_linear_637_51" x1="625.807" y1="702.133" x2="625.807" y2="525.511" gradientUnits="userSpaceOnUse">
<stop stop-color="#5211A9"/>
<stop offset="0.494792" stop-color="#8016D1"/>
<stop offset="1" stop-color="#E039E0"/>
</linearGradient>
<linearGradient id="paint38_linear_637_51" x1="624.357" y1="696.039" x2="624.357" y2="530.049" gradientUnits="userSpaceOnUse">
<stop stop-color="#5211A9"/>
<stop offset="0.494792" stop-color="#8016D1"/>
<stop offset="1" stop-color="#E039E0"/>
</linearGradient>
<linearGradient id="paint39_linear_637_51" x1="623.127" y1="694.148" x2="623.127" y2="534.711" gradientUnits="userSpaceOnUse">
<stop stop-color="#5211A9"/>
<stop offset="0.494792" stop-color="#8016D1"/>
<stop offset="1" stop-color="#E039E0"/>
</linearGradient>
<linearGradient id="paint40_linear_637_51" x1="621.899" y1="691.664" x2="621.899" y2="539.654" gradientUnits="userSpaceOnUse">
<stop stop-color="#5211A9"/>
<stop offset="0.494792" stop-color="#8016D1"/>
<stop offset="1" stop-color="#E039E0"/>
</linearGradient>
<linearGradient id="paint41_linear_637_51" x1="622.783" y1="688.719" x2="622.783" y2="544.858" gradientUnits="userSpaceOnUse">
<stop stop-color="#5211A9"/>
<stop offset="0.494792" stop-color="#8016D1"/>
<stop offset="1" stop-color="#E039E0"/>
</linearGradient>
<linearGradient id="paint42_linear_637_51" x1="623.553" y1="685.492" x2="623.553" y2="550.291" gradientUnits="userSpaceOnUse">
<stop stop-color="#5211A9"/>
<stop offset="0.494792" stop-color="#8016D1"/>
<stop offset="1" stop-color="#E039E0"/>
</linearGradient>
<linearGradient id="paint43_linear_637_51" x1="624.172" y1="682.109" x2="624.172" y2="552.245" gradientUnits="userSpaceOnUse">
<stop stop-color="#5211A9"/>
<stop offset="0.494792" stop-color="#8016D1"/>
<stop offset="1" stop-color="#E039E0"/>
</linearGradient>
<linearGradient id="paint44_linear_637_51" x1="624.82" y1="678.477" x2="624.82" y2="554.662" gradientUnits="userSpaceOnUse">
<stop stop-color="#5211A9"/>
<stop offset="0.494792" stop-color="#8016D1"/>
<stop offset="1" stop-color="#E039E0"/>
</linearGradient>
<linearGradient id="paint45_linear_637_51" x1="623.72" y1="674.68" x2="623.72" y2="557.504" gradientUnits="userSpaceOnUse">
<stop stop-color="#5211A9"/>
<stop offset="0.494792" stop-color="#8016D1"/>
<stop offset="1" stop-color="#E039E0"/>
</linearGradient>
<linearGradient id="paint46_linear_637_51" x1="622.746" y1="670.656" x2="622.746" y2="560.534" gradientUnits="userSpaceOnUse">
<stop stop-color="#5211A9"/>
<stop offset="0.494792" stop-color="#8016D1"/>
<stop offset="1" stop-color="#E039E0"/>
</linearGradient>
<linearGradient id="paint47_linear_637_51" x1="621.883" y1="669.484" x2="621.883" y2="563.709" gradientUnits="userSpaceOnUse">
<stop stop-color="#5211A9"/>
<stop offset="0.494792" stop-color="#8016D1"/>
<stop offset="1" stop-color="#E039E0"/>
</linearGradient>
<linearGradient id="paint48_linear_637_51" x1="621" y1="667.914" x2="621" y2="567.066" gradientUnits="userSpaceOnUse">
<stop stop-color="#5211A9"/>
<stop offset="0.494792" stop-color="#8016D1"/>
<stop offset="1" stop-color="#E039E0"/>
</linearGradient>
<linearGradient id="paint49_linear_637_51" x1="621.529" y1="666.023" x2="621.529" y2="570.584" gradientUnits="userSpaceOnUse">
<stop stop-color="#5211A9"/>
<stop offset="0.494792" stop-color="#8016D1"/>
<stop offset="1" stop-color="#E039E0"/>
</linearGradient>
<linearGradient id="paint50_linear_637_51" x1="621.961" y1="663.961" x2="621.961" y2="574.267" gradientUnits="userSpaceOnUse">
<stop stop-color="#5211A9"/>
<stop offset="0.494792" stop-color="#8016D1"/>
<stop offset="1" stop-color="#E039E0"/>
</linearGradient>
<linearGradient id="paint51_linear_637_51" x1="622.305" y1="661.789" x2="622.305" y2="575.636" gradientUnits="userSpaceOnUse">
<stop stop-color="#5211A9"/>
<stop offset="0.494792" stop-color="#8016D1"/>
<stop offset="1" stop-color="#E039E0"/>
</linearGradient>
<linearGradient id="paint52_linear_637_51" x1="622.658" y1="659.469" x2="622.658" y2="577.329" gradientUnits="userSpaceOnUse">
<stop stop-color="#5211A9"/>
<stop offset="0.494792" stop-color="#8016D1"/>
<stop offset="1" stop-color="#E039E0"/>
</linearGradient>
<linearGradient id="paint53_linear_637_51" x1="621.847" y1="657.008" x2="621.847" y2="579.271" gradientUnits="userSpaceOnUse">
<stop stop-color="#5211A9"/>
<stop offset="0.494792" stop-color="#8016D1"/>
<stop offset="1" stop-color="#E039E0"/>
</linearGradient>
<linearGradient id="paint54_linear_637_51" x1="621.134" y1="654.422" x2="621.134" y2="581.365" gradientUnits="userSpaceOnUse">
<stop stop-color="#5211A9"/>
<stop offset="0.494792" stop-color="#8016D1"/>
<stop offset="1" stop-color="#E039E0"/>
</linearGradient>
<linearGradient id="paint55_linear_637_51" x1="620.495" y1="653.734" x2="620.495" y2="583.562" gradientUnits="userSpaceOnUse">
<stop stop-color="#5211A9"/>
<stop offset="0.494792" stop-color="#8016D1"/>
<stop offset="1" stop-color="#E039E0"/>
</linearGradient>
<linearGradient id="paint56_linear_637_51" x1="619.849" y1="652.742" x2="619.849" y2="585.839" gradientUnits="userSpaceOnUse">
<stop stop-color="#5211A9"/>
<stop offset="0.494792" stop-color="#8016D1"/>
<stop offset="1" stop-color="#E039E0"/>
</linearGradient>
<linearGradient id="paint57_linear_637_51" x1="620.128" y1="651.578" x2="620.128" y2="588.262" gradientUnits="userSpaceOnUse">
<stop stop-color="#5211A9"/>
<stop offset="0.494792" stop-color="#8016D1"/>
<stop offset="1" stop-color="#E039E0"/>
</linearGradient>
<linearGradient id="paint58_linear_637_51" x1="620.347" y1="650.297" x2="620.347" y2="590.793" gradientUnits="userSpaceOnUse">
<stop stop-color="#5211A9"/>
<stop offset="0.494792" stop-color="#8016D1"/>
<stop offset="1" stop-color="#E039E0"/>
</linearGradient>
<linearGradient id="paint59_linear_637_51" x1="620.518" y1="648.93" x2="620.518" y2="591.774" gradientUnits="userSpaceOnUse">
<stop stop-color="#5211A9"/>
<stop offset="0.494792" stop-color="#8016D1"/>
<stop offset="1" stop-color="#E039E0"/>
</linearGradient>
<linearGradient id="paint60_linear_637_51" x1="620.689" y1="647.492" x2="620.689" y2="593" gradientUnits="userSpaceOnUse">
<stop stop-color="#5211A9"/>
<stop offset="0.494792" stop-color="#8016D1"/>
<stop offset="1" stop-color="#E039E0"/>
</linearGradient>
<linearGradient id="paint61_linear_637_51" x1="620.078" y1="645.93" x2="620.078" y2="594.359" gradientUnits="userSpaceOnUse">
<stop stop-color="#5211A9"/>
<stop offset="0.494792" stop-color="#8016D1"/>
<stop offset="1" stop-color="#E039E0"/>
</linearGradient>
<linearGradient id="paint62_linear_637_51" x1="619.542" y1="644.312" x2="619.542" y2="595.845" gradientUnits="userSpaceOnUse">
<stop stop-color="#5211A9"/>
<stop offset="0.494792" stop-color="#8016D1"/>
<stop offset="1" stop-color="#E039E0"/>
</linearGradient>
<linearGradient id="paint63_linear_637_51" x1="619.053" y1="643.891" x2="619.053" y2="597.337" gradientUnits="userSpaceOnUse">
<stop stop-color="#5211A9"/>
<stop offset="0.494792" stop-color="#8016D1"/>
<stop offset="1" stop-color="#E039E0"/>
</linearGradient>
<linearGradient id="paint64_linear_637_51" x1="618.568" y1="643.312" x2="618.568" y2="598.928" gradientUnits="userSpaceOnUse">
<stop stop-color="#5211A9"/>
<stop offset="0.494792" stop-color="#8016D1"/>
<stop offset="1" stop-color="#E039E0"/>
</linearGradient>
<linearGradient id="paint65_linear_637_51" x1="618.67" y1="642.617" x2="618.67" y2="600.612" gradientUnits="userSpaceOnUse">
<stop stop-color="#5211A9"/>
<stop offset="0.494792" stop-color="#8016D1"/>
<stop offset="1" stop-color="#E039E0"/>
</linearGradient>
<linearGradient id="paint66_linear_637_51" x1="618.749" y1="641.844" x2="618.749" y2="602.367" gradientUnits="userSpaceOnUse">
<stop stop-color="#5211A9"/>
<stop offset="0.494792" stop-color="#8016D1"/>
<stop offset="1" stop-color="#E039E0"/>
</linearGradient>
<linearGradient id="paint67_linear_637_51" x1="618.784" y1="641.008" x2="618.784" y2="603.089" gradientUnits="userSpaceOnUse">
<stop stop-color="#5211A9"/>
<stop offset="0.494792" stop-color="#8016D1"/>
<stop offset="1" stop-color="#E039E0"/>
</linearGradient>
<linearGradient id="paint68_linear_637_51" x1="618.831" y1="640.117" x2="618.831" y2="603.965" gradientUnits="userSpaceOnUse">
<stop stop-color="#5211A9"/>
<stop offset="0.494792" stop-color="#8016D1"/>
<stop offset="1" stop-color="#E039E0"/>
</linearGradient>
</defs>
</svg>
